<svg width="241" height="46" viewBox="0 0 241 46" fill="none" xmlns="http://www.w3.org/2000/svg">
<g clip-path="url(#clip0_9_177)">
<path d="M31.5 19.5C31.4 18 31 16.5 30.2 15.2L23.4 3.30002C22.9 2.40002 22.5 1.40002 22.3 0.400024L22 0.900024C20.3 3.80002 20.3 7.50002 22 10.4L27.5 19.9C29.2 22.8 29.2 26.5 27.5 29.4L27.2 29.9C27 28.9 26.6 27.9 26.1 27L21.1 18.3L17.9 12.7C17.4 11.8 17 10.8 16.8 9.80002L16.5 10.3C14.8 13.2 14.8 16.8 16.5 19.8L22 29.3C23.7 32.2 23.7 35.9 22 38.8L21.7 39.3C21.5 38.3 21.1 37.3 20.6 36.4L13.7 24.5C12.8 22.9 12.4 21.1 12.4 19.3C5.1 21.2 0 25.3 0 30C0 36.6 9.8 41.9 21.9 41.9C34 41.9 43.8 36.6 43.8 30C43.9 25.5 38.9 21.4 31.5 19.5ZM52.2 39.8C52.3 38.1 52.5 37 53 35.6C55.3 36.7 58.3 37.2 60.5 37.2C64.3 37.2 66.5 36 66.5 33.5C66.5 31.1 64.9 30 61.1 28.3L59 27.5C55.1 25.8 52.5 23.6 52.5 19.3C52.5 14.6 55.8 11.6 62.4 11.6C65.1 11.6 67.6 12 69.9 12.8C69.8 14.4 69.5 15.7 69.1 16.9C66.9 16.1 64.2 15.7 62.3 15.7C58.7 15.7 57.1 17.1 57.1 19.3C57.1 21.4 58.7 22.7 61.6 23.9L63.8 24.8C69 27 71.2 29.4 71.2 33.4C71.2 38.1 67.6 41.4 60.6 41.4C57.3 41.4 54.5 40.9 52.2 39.8ZM93.3 20.1V40.7H89.1L88.9 38.2C87.7 40 86 41.2 83.1 41.2C77.7 41.2 74 37.2 74 30.3C74 23.1 77.9 18.9 85.5 18.9C88.5 19 91 19.3 93.3 20.1ZM88.8 36V23.1C87.9 22.9 86.8 22.9 85.5 22.9C80.8 22.9 78.6 25.8 78.6 30.4C78.6 34.6 80.3 37.6 84.3 37.6C86.2 37.5 87.6 36.9 88.8 36ZM116.5 26.9V40.7H112V27.7C112 24.4 110.9 22.9 106.4 22.9C105.3 22.9 104.1 23 102.8 23.2V40.7H98.3V20.1C101.2 19.4 104.4 18.9 106.5 18.9C114.1 19 116.5 21.9 116.5 26.9ZM129.1 37.4C130.4 37.4 131.7 37.2 132.6 36.8C132.5 38 132.3 39.4 132.1 40.6C130.9 41.1 129.5 41.3 128.3 41.3C123.9 41.3 121.1 39.3 121.1 34.3V12.6C122.5 12.1 124.2 11.9 125.6 11.9V19.7H132.8C132.7 21.1 132.6 22.4 132.4 23.6H125.6V33.7C125.6 36.3 126.9 37.4 129.1 37.4ZM153.4 20.1V40.7H149.2L149 38.2C147.8 40 146.1 41.2 143.2 41.2C137.8 41.2 134.1 37.2 134.1 30.3C134.1 23.1 138 18.9 145.6 18.9C148.6 19 151 19.3 153.4 20.1ZM148.8 36V23.1C147.9 22.9 146.8 22.9 145.5 22.9C140.8 22.9 138.6 25.8 138.6 30.4C138.6 34.6 140.3 37.6 144.3 37.6C146.2 37.5 147.7 36.9 148.8 36ZM176.6 26.9V40.7H172V27.7C172 24.4 170.9 22.9 166.4 22.9C165.3 22.9 164.1 23 162.8 23.2V40.7H158.3V20.1C161.2 19.4 164.4 18.9 166.5 18.9C174.1 19 176.6 21.9 176.6 26.9ZM199.5 11.9V40.7H195.3L195.1 38.1C193.9 40 192.2 41.2 189.2 41.2C183.8 41.2 180.1 37.2 180.1 30.3C180.1 23.1 184 18.9 191.6 18.9C192.8 18.9 193.9 19 195 19.2V12.4C196.4 12 198 11.9 199.5 11.9ZM195 36V23.3C193.8 23.1 192.6 22.9 191.4 22.9C186.9 22.9 184.8 25.7 184.8 30.4C184.8 34.6 186.5 37.6 190.5 37.6C192.3 37.5 193.8 36.9 195 36ZM222.3 31.9H207.8C208.4 35.6 210.5 37.3 214.6 37.3C217.1 37.3 219.6 36.8 221.8 35.7C221.6 36.9 221.4 38.5 221.1 39.8C219 40.7 216.9 41.1 214.4 41.1C206.8 41.1 203.2 36.9 203.2 29.9C203.2 23.8 206 18.9 213.2 18.9C219.7 18.9 222.5 23.1 222.5 28.3C222.5 29.7 222.5 30.7 222.3 31.9ZM207.8 28.1H218C218 24.7 216.2 22.7 213.1 22.7C209.8 22.8 208.1 24.6 207.8 28.1ZM238.2 19.2C238.2 20.6 238 22.2 237.8 23.1C236.7 23 235.7 22.9 234.4 22.9C233.3 22.9 232.2 23 231.1 23.1V40.7H226.6V20.1C228.5 19.4 231.8 18.9 234.3 18.9C235.6 19 237.2 19 238.2 19.2Z" fill="#EC0000"/>
</g>
<defs>
<clipPath id="clip0_9_177">
<rect width="240.5" height="45.5" fill="white"/>
</clipPath>
</defs>
</svg>
