<svg width="21" height="20" viewBox="0 0 21 20" fill="none" xmlns="http://www.w3.org/2000/svg">
<g clip-path="url(#clip0_46_240)">
<path d="M4.20874 16.3043V14.7483H6.43066C5.73759 14.1777 5.194 13.4905 4.79989 12.6865C4.40579 11.8825 4.20874 11.0137 4.20874 10.0801C4.20874 8.62776 4.67079 7.34725 5.59489 6.23856C6.519 5.12986 7.68771 4.40046 9.10105 4.05034V5.68421C8.14977 6.00839 7.36836 6.56922 6.75682 7.3667C6.14528 8.16419 5.83951 9.06865 5.83951 10.0801C5.83951 10.7803 5.9856 11.4254 6.27778 12.0154C6.56996 12.6055 6.96746 13.1144 7.47028 13.5423V11.6362H9.10105V16.3043H4.20874ZM13.178 16.3043C12.4985 16.3043 11.9209 16.0774 11.4453 15.6236C10.9696 15.1697 10.7318 14.6186 10.7318 13.9703C10.7318 13.3478 10.956 12.8129 11.4045 12.3656C11.853 11.9182 12.4034 11.6815 13.0557 11.6556C13.2867 11.1888 13.6298 10.8095 14.0851 10.5177C14.5403 10.226 15.0534 10.0801 15.6241 10.0801C16.3444 10.0801 16.9661 10.3038 17.4893 10.7511C18.0125 11.1985 18.3285 11.7529 18.4372 12.4142C19.008 12.4142 19.4972 12.6022 19.9049 12.9783C20.3126 13.3543 20.5164 13.8082 20.5164 14.3398C20.5164 14.8844 20.3194 15.348 19.9253 15.7305C19.5312 16.1131 19.0487 16.3043 18.478 16.3043H13.178ZM15.5426 9.30206C15.4475 8.7704 15.264 8.27765 14.9922 7.8238C14.7204 7.36995 14.3875 6.96796 13.9934 6.61785V8.52403H12.3626V3.85583H17.2549V5.4119H15.033C15.6173 5.90465 16.0964 6.48169 16.4701 7.14302C16.8438 7.80435 17.085 8.52403 17.1937 9.30206H15.5426ZM13.178 14.7483H18.478C18.5867 14.7483 18.6818 14.7094 18.7634 14.6316C18.8449 14.5538 18.8857 14.463 18.8857 14.3593C18.8857 14.2555 18.8449 14.1648 18.7634 14.087C18.6818 14.0092 18.5867 13.9703 18.478 13.9703H17.051V12.9977C17.051 12.6217 16.9118 12.3007 16.6332 12.0349C16.3546 11.7691 16.0182 11.6362 15.6241 11.6362C15.23 11.6362 14.8937 11.7691 14.6151 12.0349C14.3365 12.3007 14.1972 12.6217 14.1972 12.9977V13.1922H13.178C12.9469 13.1922 12.7533 13.2668 12.597 13.4159C12.4407 13.565 12.3626 13.7498 12.3626 13.9703C12.3626 14.1907 12.4407 14.3755 12.597 14.5246C12.7533 14.6737 12.9469 14.7483 13.178 14.7483Z" fill="#F66C6A"/>
</g>
<defs>
<clipPath id="clip0_46_240">
<rect width="19.5692" height="18.6728" fill="white" transform="translate(0.947266 0.743652)"/>
</clipPath>
</defs>
</svg>
