<svg width="946" height="532" viewBox="0 0 946 532" fill="none" xmlns="http://www.w3.org/2000/svg">
<g clip-path="url(#clip0_35_250)">
<g opacity="0.6">
<g filter="url(#filter0_f_35_250)">
<path d="M447.883 498.43V499.124H447.936L447.988 499.12L447.883 498.43ZM453.399 498.031L453.411 497.331H453.401H453.391L453.399 498.031ZM447.794 498.844L448.476 498.991L448.657 498.149H447.794V498.844ZM459.402 498.844V498.149H459.353L459.305 498.154L459.402 498.844ZM453.137 499.253L453.118 499.947H453.134H453.149L453.137 499.253ZM459.47 498.528L459.402 499.223H459.436H459.47V498.528ZM483.014 497.883C482.63 497.849 482.29 498.129 482.255 498.514C482.219 498.898 482.5 499.238 482.884 499.272L483.014 497.883ZM482.855 498.095C482.47 498.12 482.181 498.455 482.208 498.839C482.235 499.223 482.568 499.514 482.953 499.489L482.855 498.095ZM485.903 497.809C485.52 497.77 485.178 498.051 485.14 498.435C485.102 498.819 485.382 499.159 485.766 499.198L485.903 497.809ZM485.695 498.174C485.311 498.203 485.027 498.543 485.061 498.927C485.095 499.312 485.434 499.597 485.818 499.563L485.695 498.174ZM488.466 497.73C488.082 497.691 487.739 497.967 487.7 498.351C487.661 498.735 487.94 499.075 488.323 499.115L488.466 497.73ZM488.215 498.243C487.832 498.282 487.552 498.622 487.59 499.006C487.628 499.39 487.97 499.671 488.354 499.632L488.215 498.243ZM491.212 497.666C490.829 497.627 490.488 497.913 490.452 498.292C490.416 498.676 490.697 499.016 491.081 499.056L491.212 497.666ZM490.939 498.307C490.556 498.346 490.276 498.686 490.315 499.07C490.354 499.455 490.697 499.73 491.08 499.696L490.939 498.307ZM409.669 495.78H670.004V494.386H409.669V495.78ZM668.162 503.011H407.823V504.41H668.162V503.011ZM672.813 499.253C672.37 501.312 670.266 503.011 668.162 503.011V504.41C670.926 504.41 673.596 502.248 674.178 499.543L672.813 499.253ZM670.004 495.78C671.034 495.78 671.828 496.184 672.315 496.785C672.798 497.386 673.03 498.248 672.813 499.253L674.178 499.543C674.473 498.164 674.173 496.868 673.399 495.908C672.621 494.947 671.414 494.386 670.004 494.386V495.78ZM405.016 499.543C405.458 497.484 407.561 495.78 409.669 495.78V494.386C406.903 494.386 404.23 496.548 403.651 499.253L405.016 499.543ZM403.651 499.253C403.357 500.627 403.654 501.927 404.431 502.888C405.207 503.844 406.414 504.41 407.823 504.41V503.011C406.794 503.011 406.003 502.612 405.516 502.006C405.029 501.405 404.801 500.548 405.016 499.543L403.651 499.253ZM472.891 496.627H638.698V495.233H472.891V496.627ZM638.314 497.021H472.507V498.415H638.314V497.021ZM472.507 497.021C472.474 497.021 472.458 497.016 472.455 497.016C472.451 497.011 472.454 497.011 472.459 497.021C472.463 497.026 472.463 497.026 472.462 497.026C472.461 497.021 472.459 497.001 472.466 496.972L471.101 496.676C471.008 497.11 471.098 497.553 471.374 497.898C471.649 498.238 472.064 498.415 472.507 498.415V497.021ZM638.742 496.676C638.703 496.854 638.491 497.021 638.314 497.021V498.415C639.151 498.415 639.93 497.785 640.107 496.972L638.742 496.676ZM638.698 496.627C638.732 496.627 638.747 496.632 638.752 496.637C638.757 496.637 638.752 496.637 638.747 496.632C638.742 496.627 638.742 496.622 638.742 496.627C638.742 496.627 638.747 496.647 638.742 496.676L640.107 496.972C640.196 496.538 640.107 496.095 639.831 495.755C639.555 495.41 639.141 495.233 638.698 495.233V496.627ZM472.891 495.233C472.055 495.233 471.276 495.864 471.101 496.676L472.466 496.972C472.503 496.799 472.714 496.627 472.891 496.627V495.233ZM626.577 496.627H659.953V495.233H626.577V496.627ZM659.574 497.021H626.193V498.415H659.574V497.021ZM626.193 497.021C626.158 497.021 626.144 497.016 626.139 497.016C626.139 497.011 626.139 497.011 626.144 497.021C626.149 497.026 626.149 497.026 626.149 497.026C626.149 497.021 626.144 497.001 626.153 496.972L624.789 496.676C624.695 497.11 624.784 497.553 625.06 497.898C625.336 498.238 625.749 498.415 626.193 498.415V497.021ZM659.998 496.676C659.958 496.854 659.746 497.021 659.574 497.021V498.415C660.407 498.415 661.185 497.785 661.362 496.972L659.998 496.676ZM659.953 496.627C659.988 496.627 660.003 496.632 660.007 496.637C660.012 496.637 660.007 496.637 660.003 496.632C659.998 496.627 659.998 496.622 659.998 496.627C660.003 496.627 660.003 496.647 659.998 496.676L661.362 496.972C661.456 496.538 661.362 496.095 661.086 495.755C660.811 495.41 660.397 495.233 659.953 495.233V496.627ZM626.577 495.233C625.74 495.233 624.961 495.864 624.789 496.676L626.153 496.972C626.188 496.799 626.4 496.627 626.577 496.627V495.233ZM436.535 498.676H470.937V497.282H436.535V498.676ZM470.659 498.583H436.257V499.977H470.659V498.583ZM436.257 498.583C436.263 498.583 436.32 498.588 436.37 498.647C436.42 498.711 436.415 498.77 436.413 498.775L435.049 498.484C434.97 498.849 435.045 499.228 435.285 499.528C435.525 499.824 435.883 499.977 436.257 499.977V498.583ZM470.78 498.484C470.78 498.484 470.779 498.489 470.77 498.504C470.762 498.514 470.748 498.528 470.731 498.543C470.713 498.558 470.696 498.568 470.681 498.573C470.666 498.583 470.659 498.583 470.659 498.583V499.977C471.355 499.977 471.999 499.455 472.145 498.775L470.78 498.484ZM470.937 498.676C470.931 498.676 470.873 498.671 470.824 498.607C470.774 498.548 470.779 498.489 470.78 498.484L472.145 498.775C472.224 498.41 472.149 498.026 471.909 497.73C471.669 497.435 471.311 497.282 470.937 497.282V498.676ZM436.535 497.282C435.838 497.282 435.194 497.799 435.049 498.484L436.413 498.775C436.413 498.775 436.415 498.765 436.423 498.755C436.432 498.74 436.445 498.725 436.463 498.711C436.48 498.696 436.498 498.686 436.513 498.681C436.528 498.676 436.535 498.676 436.535 498.676V497.282ZM435.733 499.124H447.883V497.73H435.733V499.124ZM447.988 499.12C448.753 499.001 450.937 498.76 453.407 498.73L453.391 497.331C450.852 497.361 448.604 497.612 447.779 497.74L447.988 499.12ZM453.386 498.73C454.311 498.745 456.444 498.804 457.644 498.908L457.764 497.519C456.511 497.41 454.335 497.351 453.411 497.331L453.386 498.73ZM435.644 499.543H447.794V498.149H435.644V499.543ZM471.416 498.149H459.402V499.543H471.416V498.149ZM459.305 498.154C458.519 498.262 456.152 498.504 453.126 498.553L453.149 499.947C456.226 499.898 458.651 499.656 459.499 499.533L459.305 498.154ZM453.157 498.553C452.261 498.528 450.923 498.479 449.818 498.41C449.263 498.376 448.779 498.336 448.442 498.297C448.269 498.272 448.16 498.257 448.104 498.243C448.069 498.233 448.096 498.238 448.145 498.262C448.167 498.272 448.247 498.317 448.326 498.405C448.416 498.509 448.535 498.721 448.476 498.991L447.112 498.701C447.051 498.982 447.174 499.208 447.275 499.321C447.365 499.425 447.463 499.479 447.509 499.504C447.607 499.553 447.708 499.583 447.77 499.597C447.91 499.632 448.087 499.656 448.272 499.681C448.652 499.725 449.17 499.77 449.731 499.804C450.859 499.873 452.214 499.922 453.118 499.947L453.157 498.553ZM471.484 497.829H459.47V499.223H471.484V497.829ZM459.537 497.834C459.413 497.819 459.282 497.804 459.177 497.79C459.124 497.78 459.086 497.775 459.062 497.77C459.02 497.76 459.059 497.76 459.122 497.794C459.143 497.804 459.181 497.824 459.224 497.863C459.263 497.893 459.339 497.962 459.398 498.07C459.465 498.198 459.503 498.371 459.457 498.558C459.415 498.73 459.319 498.839 459.259 498.893C459.153 498.991 459.046 499.026 459.042 499.026C459.016 499.036 459.004 499.036 459.014 499.036C459.068 499.021 459.224 499.006 459.553 498.991L459.486 497.597C459.157 497.612 458.911 497.632 458.749 497.661C458.706 497.671 458.65 497.686 458.593 497.706C458.556 497.716 458.429 497.76 458.311 497.868C458.245 497.932 458.146 498.046 458.102 498.223C458.055 498.41 458.094 498.592 458.163 498.721C458.273 498.932 458.452 499.021 458.48 499.036C458.586 499.09 458.697 499.115 458.746 499.124C458.815 499.144 458.888 499.154 458.959 499.169C459.1 499.189 459.261 499.208 459.402 499.223L459.537 497.834ZM482.884 499.272C482.982 499.282 483.082 499.292 483.159 499.307C483.199 499.312 483.223 499.317 483.235 499.321C483.266 499.326 483.211 499.322 483.137 499.277C483.117 499.267 482.956 499.179 482.863 498.972C482.807 498.849 482.783 498.691 482.823 498.528C482.86 498.376 482.938 498.272 482.996 498.213C483.097 498.11 483.201 498.07 483.214 498.065C483.245 498.056 483.264 498.051 483.26 498.051C483.232 498.06 483.12 498.075 482.855 498.095L482.953 499.489C483.217 499.469 483.429 499.445 483.575 499.41C483.615 499.4 483.669 499.386 483.725 499.366C483.764 499.351 483.886 499.302 483.996 499.189C484.058 499.124 484.14 499.016 484.179 498.858C484.219 498.691 484.195 498.533 484.137 498.4C484.04 498.184 483.867 498.085 483.83 498.065C483.722 498.006 483.61 497.977 483.568 497.967C483.507 497.952 483.441 497.937 483.382 497.927C483.263 497.908 483.13 497.893 483.014 497.883L482.884 499.272ZM485.766 499.198C485.915 499.213 486.071 499.233 486.194 499.253C486.256 499.262 486.3 499.272 486.326 499.282C486.374 499.292 486.323 499.287 486.25 499.238C486.222 499.218 486.076 499.124 486.002 498.923C485.959 498.804 485.946 498.666 485.979 498.528C486.01 498.4 486.074 498.307 486.124 498.248C486.215 498.144 486.31 498.105 486.323 498.095C486.349 498.085 486.361 498.08 486.348 498.085C486.282 498.105 486.094 498.134 485.695 498.174L485.818 499.563C486.217 499.528 486.516 499.484 486.715 499.435C486.767 499.42 486.832 499.4 486.897 499.371C486.949 499.346 487.071 499.287 487.176 499.164C487.312 499.011 487.422 498.74 487.312 498.44C487.231 498.218 487.069 498.105 487.017 498.07C486.893 497.992 486.758 497.952 486.696 497.937C486.613 497.913 486.523 497.893 486.438 497.878C486.267 497.849 486.074 497.824 485.903 497.809L485.766 499.198ZM488.323 499.115C488.519 499.134 488.725 499.164 488.89 499.193C488.974 499.213 489.035 499.228 489.075 499.238C489.137 499.257 489.094 499.253 489.024 499.203C488.994 499.179 488.86 499.08 488.796 498.883C488.76 498.775 488.753 498.647 488.782 498.524C488.811 498.405 488.865 498.322 488.912 498.262C488.995 498.164 489.082 498.12 489.091 498.115C489.113 498.105 489.118 498.105 489.097 498.11C488.994 498.144 488.734 498.189 488.215 498.243L488.354 499.632C488.874 499.578 489.252 499.523 489.494 499.45C489.558 499.43 489.632 499.405 489.705 499.371C489.766 499.341 489.888 499.272 489.991 499.149C490.119 498.991 490.216 498.74 490.125 498.455C490.053 498.233 489.898 498.11 489.836 498.065C489.702 497.972 489.549 497.923 489.469 497.898C489.368 497.868 489.256 497.844 489.149 497.824C488.932 497.785 488.684 497.75 488.466 497.73L488.323 499.115ZM491.081 499.056C491.336 499.08 491.607 499.11 491.827 499.149C491.938 499.169 492.025 499.189 492.087 499.208C492.117 499.213 492.133 499.223 492.138 499.223C492.148 499.228 492.123 499.218 492.083 499.193C492.059 499.174 491.923 499.08 491.856 498.883C491.818 498.775 491.809 498.647 491.839 498.519C491.868 498.4 491.924 498.312 491.97 498.258C492.051 498.159 492.134 498.125 492.135 498.125C492.148 498.115 492.144 498.12 492.109 498.129C491.956 498.174 491.605 498.238 490.939 498.307L491.08 499.696C491.747 499.627 492.213 499.553 492.502 499.469C492.578 499.445 492.66 499.42 492.738 499.381C492.807 499.346 492.935 499.282 493.038 499.154C493.171 498.991 493.28 498.73 493.176 498.435C493.098 498.208 492.935 498.085 492.871 498.041C492.728 497.942 492.562 497.893 492.462 497.863C492.341 497.829 492.206 497.799 492.071 497.775C491.801 497.73 491.489 497.691 491.212 497.666L491.081 499.056Z" fill="#DF1919" fill-opacity="0.96"/>
</g>
<g filter="url(#filter1_f_35_250)">
<path d="M263.887 488.055V488.753H263.939L263.991 488.745L263.887 488.055ZM269.402 487.658L269.414 486.961H269.404H269.394L269.402 487.658ZM263.797 488.472L264.48 488.618L264.66 487.774H263.797V488.472ZM275.405 488.472V487.774H275.356L275.308 487.781L275.405 488.472ZM269.141 488.879L269.122 489.576L269.137 489.577L269.152 489.576L269.141 488.879ZM275.473 488.154L275.405 488.849L275.439 488.852H275.473V488.154ZM299.017 487.511C298.633 487.475 298.293 487.757 298.257 488.141C298.222 488.524 298.504 488.864 298.888 488.9L299.017 487.511ZM298.858 487.721C298.474 487.749 298.184 488.082 298.211 488.466C298.238 488.851 298.571 489.141 298.956 489.113L298.858 487.721ZM301.906 487.435C301.523 487.397 301.181 487.677 301.143 488.061C301.105 488.444 301.386 488.786 301.769 488.823L301.906 487.435ZM301.699 487.799C301.314 487.833 301.03 488.171 301.064 488.555C301.098 488.939 301.437 489.223 301.821 489.189L301.699 487.799ZM304.469 487.355C304.086 487.316 303.743 487.595 303.703 487.979C303.664 488.362 303.943 488.704 304.327 488.744L304.469 487.355ZM304.219 487.869C303.835 487.907 303.555 488.249 303.593 488.633C303.631 489.016 303.973 489.296 304.357 489.258L304.219 487.869ZM307.215 487.292C306.832 487.256 306.491 487.537 306.455 487.921C306.419 488.305 306.701 488.645 307.084 488.681L307.215 487.292ZM306.942 487.932C306.559 487.971 306.28 488.314 306.319 488.697C306.358 489.08 306.7 489.359 307.083 489.32L306.942 487.932ZM225.672 485.409H486.009V484.014H225.672V485.409ZM484.163 492.642H223.825V494.036H484.163V492.642ZM488.815 488.879C488.374 490.939 486.271 492.642 484.163 492.642V494.036C486.929 494.036 489.602 491.874 490.18 489.17L488.815 488.879ZM486.009 485.409C487.038 485.409 487.829 485.812 488.316 486.413C488.803 487.015 489.031 487.873 488.815 488.879L490.18 489.17C490.475 487.793 490.177 486.495 489.401 485.536C488.625 484.576 487.418 484.014 486.009 484.014V485.409ZM221.02 489.17C221.46 487.11 223.565 485.409 225.672 485.409V484.014C222.907 484.014 220.234 486.175 219.655 488.878L221.02 489.17ZM219.655 488.878C219.36 490.255 219.658 491.553 220.434 492.513C221.21 493.474 222.417 494.036 223.825 494.036V492.642C222.798 492.642 222.005 492.237 221.519 491.636C221.032 491.034 220.804 490.176 221.02 489.17L219.655 488.878ZM288.894 486.254H454.702V484.859H288.894V486.254ZM454.318 486.649H288.51V488.045H454.318V486.649ZM288.51 486.649C288.477 486.649 288.461 486.643 288.458 486.641C288.455 486.64 288.457 486.641 288.462 486.646C288.466 486.652 288.466 486.654 288.466 486.651C288.465 486.648 288.462 486.631 288.469 486.598L287.104 486.306C287.011 486.739 287.101 487.182 287.376 487.523C287.652 487.864 288.067 488.045 288.51 488.045V486.649ZM454.743 486.306C454.706 486.478 454.495 486.649 454.318 486.649V488.045C455.153 488.045 455.933 487.414 456.108 486.598L454.743 486.306ZM454.702 486.254C454.735 486.254 454.751 486.261 454.754 486.262C454.758 486.264 454.754 486.263 454.75 486.257C454.746 486.252 454.746 486.249 454.747 486.252C454.747 486.256 454.75 486.273 454.743 486.306L456.108 486.598C456.201 486.164 456.111 485.721 455.835 485.38C455.56 485.039 455.145 484.859 454.702 484.859V486.254ZM288.894 484.859C288.059 484.859 287.279 485.489 287.104 486.306L288.469 486.598C288.506 486.425 288.717 486.254 288.894 486.254V484.859ZM442.579 486.254H475.958V484.859H442.579V486.254ZM475.575 486.649H442.196V488.045H475.575V486.649ZM442.196 486.649C442.162 486.649 442.147 486.643 442.143 486.641C442.14 486.64 442.143 486.641 442.148 486.646C442.151 486.652 442.152 486.654 442.151 486.651C442.15 486.648 442.148 486.631 442.154 486.598L440.79 486.306C440.697 486.739 440.786 487.182 441.062 487.523C441.338 487.864 441.753 488.045 442.196 488.045V486.649ZM476 486.306C475.963 486.478 475.751 486.649 475.575 486.649V488.045C476.409 488.045 477.189 487.414 477.364 486.598L476 486.306ZM475.958 486.254C475.992 486.254 476.007 486.261 476.011 486.262C476.014 486.264 476.011 486.263 476.006 486.257C476.003 486.252 476.002 486.249 476.003 486.252C476.003 486.256 476.006 486.273 476 486.306L477.364 486.598C477.457 486.164 477.368 485.721 477.092 485.38C476.816 485.039 476.401 484.859 475.958 484.859V486.254ZM442.579 484.859C441.744 484.859 440.964 485.489 440.79 486.306L442.154 486.598C442.191 486.425 442.403 486.254 442.579 486.254V484.859ZM252.538 488.303H286.94V486.908H252.538V488.303ZM286.662 488.207H252.26V489.603H286.662V488.207ZM252.26 488.207C252.267 488.207 252.324 488.215 252.373 488.276C252.423 488.337 252.418 488.395 252.417 488.401L251.052 488.109C250.974 488.475 251.048 488.857 251.288 489.153C251.528 489.45 251.886 489.603 252.26 489.603V488.207ZM286.783 488.109C286.784 488.109 286.782 488.116 286.773 488.129C286.765 488.143 286.752 488.158 286.734 488.172C286.716 488.186 286.699 488.196 286.684 488.202C286.669 488.207 286.662 488.207 286.662 488.207V489.603C287.358 489.603 288.003 489.082 288.148 488.401L286.783 488.109ZM286.94 488.303C286.934 488.303 286.877 488.296 286.827 488.234C286.777 488.173 286.782 488.116 286.783 488.109L288.148 488.401C288.226 488.036 288.152 487.653 287.912 487.357C287.672 487.06 287.314 486.908 286.94 486.908V488.303ZM252.538 486.908C251.842 486.908 251.197 487.428 251.052 488.109L252.417 488.401C252.416 488.402 252.418 488.394 252.427 488.381C252.435 488.368 252.448 488.352 252.466 488.338C252.484 488.324 252.502 488.314 252.516 488.309C252.531 488.303 252.539 488.303 252.538 488.303V486.908ZM251.736 488.753H263.887V487.357H251.736V488.753ZM263.991 488.745C264.756 488.629 266.94 488.385 269.41 488.356L269.394 486.961C266.855 486.99 264.607 487.241 263.782 487.365L263.991 488.745ZM269.389 488.356C270.314 488.373 272.447 488.432 273.647 488.535L273.767 487.145C272.514 487.037 270.338 486.977 269.414 486.961L269.389 488.356ZM251.647 489.17H263.797V487.774H251.647V489.17ZM287.419 487.774H275.405V489.17H287.419V487.774ZM275.308 487.781C274.523 487.891 272.155 488.131 269.129 488.181L269.152 489.576C272.23 489.525 274.654 489.281 275.502 489.163L275.308 487.781ZM269.16 488.181C268.264 488.156 266.926 488.107 265.821 488.038C265.266 488.003 264.782 487.964 264.445 487.923C264.272 487.902 264.163 487.882 264.107 487.869C264.072 487.86 264.099 487.863 264.149 487.889C264.17 487.9 264.25 487.942 264.329 488.031C264.419 488.135 264.538 488.346 264.48 488.618L263.115 488.326C263.054 488.611 263.177 488.834 263.279 488.95C263.368 489.053 263.466 489.107 263.512 489.131C263.61 489.181 263.711 489.209 263.774 489.224C263.913 489.258 264.091 489.285 264.275 489.308C264.655 489.354 265.173 489.395 265.734 489.43C266.862 489.501 268.218 489.551 269.122 489.576L269.16 488.181ZM287.487 487.456H275.473V488.852H287.487V487.456ZM275.54 487.46C275.416 487.448 275.285 487.432 275.18 487.416C275.127 487.407 275.089 487.4 275.065 487.394C275.024 487.385 275.063 487.389 275.125 487.422C275.146 487.432 275.183 487.453 275.227 487.488C275.267 487.52 275.342 487.587 275.401 487.7C275.468 487.827 275.506 487.999 275.46 488.185C275.417 488.355 275.322 488.464 275.262 488.52C275.156 488.618 275.05 488.651 275.045 488.652C275.019 488.661 275.007 488.663 275.017 488.661C275.071 488.65 275.227 488.632 275.556 488.616L275.489 487.223C275.161 487.239 274.914 487.259 274.752 487.291C274.708 487.299 274.654 487.312 274.597 487.331C274.56 487.344 274.432 487.387 274.314 487.496C274.248 487.557 274.149 487.672 274.105 487.848C274.058 488.04 274.097 488.217 274.166 488.349C274.276 488.558 274.455 488.647 274.484 488.661C274.589 488.715 274.7 488.742 274.75 488.754C274.818 488.77 274.892 488.783 274.962 488.794C275.104 488.816 275.264 488.835 275.405 488.849L275.54 487.46ZM298.888 488.9C298.985 488.909 299.085 488.921 299.163 488.934C299.202 488.94 299.227 488.945 299.238 488.948C299.269 488.956 299.215 488.947 299.14 488.904C299.12 488.893 298.959 488.805 298.866 488.599C298.81 488.473 298.786 488.317 298.826 488.155C298.863 488.004 298.942 487.901 298.999 487.842C299.1 487.738 299.204 487.699 299.217 487.694C299.248 487.682 299.267 487.678 299.263 487.679C299.235 487.685 299.123 487.703 298.858 487.721L298.956 489.113C299.22 489.095 299.432 489.073 299.579 489.038C299.618 489.029 299.672 489.015 299.728 488.993C299.767 488.978 299.889 488.928 300 488.814C300.062 488.751 300.144 488.643 300.181 488.486C300.222 488.319 300.198 488.158 300.14 488.028C300.043 487.812 299.87 487.714 299.834 487.693C299.725 487.631 299.613 487.603 299.571 487.593C299.509 487.578 299.445 487.566 299.386 487.556C299.267 487.537 299.133 487.521 299.017 487.511L298.888 488.9ZM301.769 488.823C301.918 488.838 302.073 488.858 302.197 488.88C302.259 488.891 302.303 488.901 302.329 488.908C302.377 488.921 302.327 488.914 302.253 488.866C302.225 488.848 302.08 488.752 302.005 488.548C301.962 488.43 301.949 488.294 301.982 488.157C302.014 488.027 302.077 487.933 302.128 487.875C302.218 487.771 302.313 487.73 302.326 487.724C302.352 487.712 302.365 487.71 302.351 487.713C302.285 487.731 302.097 487.764 301.699 487.799L301.821 489.189C302.22 489.154 302.519 489.113 302.717 489.06C302.771 489.046 302.835 489.025 302.9 488.996C302.952 488.972 303.074 488.913 303.18 488.792C303.315 488.637 303.425 488.367 303.315 488.067C303.234 487.846 303.072 487.734 303.019 487.699C302.896 487.618 302.761 487.58 302.699 487.562C302.616 487.54 302.526 487.521 302.441 487.506C302.27 487.476 302.076 487.451 301.906 487.435L301.769 488.823ZM304.327 488.744C304.522 488.764 304.728 488.791 304.893 488.822C304.977 488.838 305.039 488.852 305.079 488.864C305.14 488.882 305.097 488.879 305.027 488.828C304.997 488.807 304.864 488.709 304.8 488.511C304.764 488.4 304.756 488.276 304.785 488.152C304.814 488.034 304.869 487.947 304.915 487.89C304.998 487.789 305.085 487.748 305.095 487.743C305.116 487.733 305.122 487.733 305.1 487.739C304.997 487.77 304.738 487.817 304.219 487.869L304.357 489.258C304.877 489.206 305.255 489.148 305.497 489.077C305.561 489.058 305.635 489.032 305.708 488.997C305.769 488.967 305.891 488.901 305.994 488.775C306.122 488.619 306.219 488.365 306.127 488.081C306.056 487.859 305.902 487.738 305.839 487.693C305.705 487.597 305.552 487.549 305.472 487.526C305.371 487.496 305.26 487.471 305.152 487.451C304.935 487.41 304.688 487.378 304.469 487.355L304.327 488.744ZM307.084 488.681C307.339 488.705 307.61 488.739 307.831 488.778C307.942 488.798 308.028 488.817 308.089 488.834C308.12 488.843 308.136 488.848 308.141 488.85C308.151 488.854 308.125 488.846 308.086 488.818C308.062 488.802 307.926 488.71 307.859 488.512C307.821 488.399 307.812 488.273 307.842 488.147C307.871 488.026 307.927 487.939 307.973 487.884C308.054 487.787 308.137 487.75 308.138 487.75C308.152 487.743 308.147 487.747 308.112 487.757C307.959 487.802 307.608 487.865 306.942 487.932L307.083 489.32C307.75 489.253 308.216 489.181 308.505 489.096C308.581 489.074 308.663 489.046 308.743 489.008C308.81 488.975 308.937 488.907 309.044 488.779C309.176 488.62 309.281 488.356 309.18 488.061C309.102 487.834 308.94 487.712 308.875 487.667C308.731 487.569 308.564 487.518 308.465 487.49C308.345 487.456 308.209 487.428 308.075 487.404C307.804 487.356 307.493 487.318 307.215 487.292L307.084 488.681Z" fill="black" fill-opacity="0.3"/>
</g>
</g>
<g filter="url(#filter2_f_35_250)">
<path d="M546.94 251.626L455.088 328.681L489.099 369.204L580.951 292.149L546.94 251.626Z" fill="black" fill-opacity="0.51"/>
</g>
<mask id="mask0_35_250" style="mask-type:luminance" maskUnits="userSpaceOnUse" x="258" y="86" width="264" height="307">
<path d="M521.117 234.506L305.285 86.2037L258.179 244.381L474.011 392.684L521.117 234.506Z" fill="white"/>
</mask>
<g mask="url(#mask0_35_250)">
<g filter="url(#filter3_ii_35_250)">
<path d="M302.569 95.322L260.895 235.263C259.395 240.299 261.691 246.794 266.022 249.77L466.169 387.295C470.5 390.271 475.227 388.601 476.727 383.565L518.402 243.625C519.901 238.588 517.606 232.093 513.274 229.117L313.128 91.5923C308.796 88.6161 304.069 90.286 302.569 95.322Z" fill="#E90F12"/>
<path d="M302.569 95.322L260.895 235.263C259.395 240.299 261.691 246.794 266.022 249.77L466.169 387.295C470.5 390.271 475.227 388.601 476.727 383.565L518.402 243.625C519.901 238.588 517.606 232.093 513.274 229.117L313.128 91.5923C308.796 88.6161 304.069 90.286 302.569 95.322Z" fill="url(#paint0_radial_35_250)"/>
</g>
<path opacity="0.48" d="M483.849 247.345C486.549 238.28 482.417 226.588 474.62 221.231C466.824 215.874 458.315 218.88 455.615 227.945C452.916 237.01 457.048 248.701 464.844 254.058C472.641 259.415 481.15 256.41 483.849 247.345Z" fill="#3A3A3A"/>
<path opacity="0.7" d="M500.894 259.056C503.594 249.992 499.462 238.3 491.665 232.943C483.869 227.586 475.36 230.591 472.66 239.656C469.961 248.721 474.093 260.413 481.889 265.77C489.686 271.127 498.195 268.121 500.894 259.056Z" fill="#FF5C04"/>
<g filter="url(#filter4_d_35_250)">
<path d="M339.517 173.655L318.185 158.997C316.164 157.608 313.958 158.388 313.258 160.738L308.696 176.057C307.996 178.407 309.067 181.438 311.088 182.827L332.42 197.485C334.442 198.874 336.648 198.095 337.348 195.744L341.91 180.425C342.61 178.075 341.538 175.044 339.517 173.655Z" fill="url(#paint1_linear_35_250)"/>
</g>
<path d="M312.036 164.708L321.779 171.402C323.052 169.624 326.138 166.277 328.3 167.119C328.953 167.934 330.367 170.219 330.791 172.847M309.761 172.347L319.504 179.041C318.377 182.824 320.457 187.584 321.637 189.49C324.351 190.244 327.55 187.102 328.812 185.437L338.446 192.057M340.179 186.236L330.545 179.616C330.392 178.368 330.435 175.758 331.827 175.312" stroke="url(#paint2_linear_35_250)" stroke-width="0.772581"/>
<path d="M349.103 193.496C349.234 194.465 349.186 196.6 347.944 197.387M351.82 193.679C351.998 195.193 351.851 198.65 349.828 200.366M354.293 193.621C354.508 195.648 354.248 200.371 351.487 203.043M356.833 193.975C357.155 196.417 356.908 202.184 353.339 205.707" stroke="white" stroke-width="2.8328" stroke-linecap="round" stroke-linejoin="round"/>
<path d="M290.318 244.08L291.007 235.577L292.332 236.487L291.774 242.269L294.47 237.956L296.008 239.013L295.582 244.99L298.116 240.462L299.418 241.357L295.643 247.739L294.27 246.795L294.653 240.347L291.722 245.044L290.318 244.08ZM300.889 249.274L302.042 250.354C301.729 250.768 301.362 250.995 300.939 251.035C300.52 251.073 300.055 250.918 299.546 250.567C298.738 250.012 298.232 249.295 298.027 248.415C297.867 247.714 297.899 246.989 298.122 246.24C298.389 245.345 298.798 244.784 299.35 244.555C299.904 244.323 300.489 244.419 301.104 244.841C301.794 245.316 302.26 245.956 302.501 246.762C302.743 247.566 302.692 248.508 302.349 249.591L299.271 247.476C299.153 247.906 299.154 248.304 299.273 248.672C299.393 249.036 299.594 249.314 299.877 249.509C300.069 249.641 300.249 249.691 300.416 249.659C300.584 249.627 300.741 249.499 300.889 249.274ZM301.389 247.879C301.504 247.459 301.505 247.083 301.394 246.749C301.283 246.412 301.103 246.157 300.852 245.985C300.584 245.801 300.329 245.762 300.087 245.869C299.844 245.976 299.666 246.225 299.553 246.617L301.389 247.879ZM302.698 250.732L303.997 251.36C303.966 251.674 304.01 251.959 304.126 252.215C304.245 252.467 304.448 252.693 304.736 252.891C305.054 253.109 305.313 253.205 305.514 253.18C305.65 253.159 305.741 253.069 305.789 252.91C305.821 252.802 305.819 252.692 305.782 252.58C305.741 252.47 305.623 252.314 305.427 252.11C304.512 251.175 303.953 250.511 303.75 250.119C303.469 249.576 303.406 249.044 303.561 248.526C303.7 248.058 303.976 247.774 304.388 247.674C304.801 247.574 305.341 247.753 306.008 248.212C306.644 248.648 307.08 249.093 307.318 249.545C307.555 249.999 307.661 250.501 307.638 251.051L306.405 250.505C306.418 250.26 306.372 250.035 306.265 249.826C306.161 249.62 305.981 249.429 305.725 249.253C305.401 249.031 305.154 248.924 304.983 248.933C304.867 248.944 304.792 249.008 304.756 249.127C304.726 249.228 304.741 249.343 304.802 249.47C304.884 249.641 305.226 250.037 305.828 250.659C306.432 251.282 306.826 251.808 307.011 252.237C307.192 252.668 307.215 253.11 307.079 253.564C306.932 254.059 306.628 254.362 306.166 254.473C305.704 254.585 305.125 254.401 304.429 253.923C303.797 253.488 303.339 252.995 303.058 252.442C302.78 251.891 302.66 251.321 302.698 250.732ZM307.657 255.993L309.876 248.542L311.104 249.386L308.885 256.837L307.657 255.993ZM313.349 257.835L314.502 258.915C314.189 259.329 313.821 259.555 313.399 259.596C312.98 259.635 312.515 259.479 312.005 259.128C311.198 258.574 310.692 257.856 310.487 256.977C310.327 256.275 310.359 255.55 310.582 254.801C310.848 253.906 311.258 253.345 311.81 253.116C312.364 252.884 312.948 252.98 313.563 253.402C314.253 253.877 314.719 254.517 314.96 255.324C315.202 256.126 315.151 257.069 314.808 258.152L311.73 256.037C311.613 256.467 311.613 256.865 311.732 257.232C311.852 257.596 312.053 257.876 312.336 258.07C312.528 258.202 312.708 258.252 312.876 258.221C313.043 258.188 313.201 258.06 313.349 257.835ZM313.848 256.439C313.963 256.02 313.965 255.644 313.853 255.31C313.743 254.973 313.563 254.718 313.312 254.546C313.044 254.362 312.788 254.323 312.546 254.43C312.303 254.537 312.125 254.786 312.013 255.178L313.848 256.439ZM316.158 255.332L317.465 256.23L317.434 260.826L319.66 257.739L320.932 258.613L317.746 262.681L317.173 263.42C316.971 263.661 316.796 263.831 316.647 263.929C316.502 264.029 316.35 264.085 316.191 264.099C316.035 264.118 315.855 264.092 315.651 264.021C315.45 263.953 315.233 263.839 315 263.678C314.764 263.516 314.541 263.328 314.331 263.114L314.554 261.921C314.734 262.097 314.9 262.238 315.055 262.344C315.341 262.541 315.581 262.588 315.777 262.485C315.971 262.386 316.15 262.211 316.312 261.959L316.158 255.332ZM322.599 266.261L324.818 258.809L326.755 260.14L326.404 266.022L329.068 261.729L331.008 263.063L328.789 270.514L327.587 269.688L329.334 263.822L326.315 268.814L325.069 267.958L325.548 261.221L323.801 267.087L322.599 266.261Z" fill="white"/>
</g>
<path d="M427.589 318.169L428.978 318.892C428.693 319.305 428.583 319.672 428.647 319.994C428.715 320.318 428.949 320.609 429.35 320.868C429.775 321.142 430.17 321.273 430.533 321.261C430.902 321.249 431.188 321.141 431.391 320.938C431.521 320.808 431.584 320.668 431.582 320.519C431.586 320.369 431.508 320.187 431.35 319.974C431.24 319.829 430.968 319.522 430.534 319.051C429.974 318.447 429.659 317.945 429.589 317.546C429.49 316.984 429.658 316.485 430.093 316.05C430.373 315.77 430.727 315.569 431.157 315.447C431.592 315.324 432.049 315.313 432.53 315.414C433.014 315.517 433.507 315.73 434.009 316.054C434.829 316.584 435.294 317.134 435.405 317.703C435.519 318.274 435.333 318.82 434.85 319.338L433.482 318.535C433.708 318.216 433.788 317.935 433.724 317.691C433.665 317.447 433.449 317.205 433.078 316.966C432.694 316.718 432.328 316.591 431.979 316.583C431.755 316.578 431.571 316.647 431.429 316.789C431.299 316.92 431.253 317.073 431.291 317.25C431.34 317.475 431.622 317.859 432.136 318.401C432.65 318.943 432.992 319.381 433.16 319.717C433.334 320.051 433.389 320.393 433.324 320.742C433.264 321.091 433.06 321.439 432.714 321.787C432.399 322.102 432 322.33 431.517 322.471C431.034 322.612 430.535 322.627 430.02 322.517C429.508 322.404 428.968 322.164 428.4 321.798C427.575 321.264 427.1 320.695 426.978 320.089C426.857 319.48 427.061 318.84 427.589 318.169ZM435.915 321.934L434.951 321.028C435.464 320.725 435.968 320.582 436.465 320.598C436.962 320.614 437.518 320.821 438.132 321.218C438.691 321.579 439.051 321.904 439.211 322.193C439.375 322.48 439.425 322.745 439.363 322.988C439.306 323.231 439.049 323.582 438.592 324.04L437.349 325.262C436.999 325.613 436.76 325.884 436.631 326.077C436.508 326.269 436.406 326.495 436.327 326.757L435.088 325.956C435.125 325.865 435.188 325.736 435.279 325.567C435.32 325.491 435.347 325.441 435.358 325.415C434.969 325.452 434.609 325.435 434.278 325.366C433.947 325.296 433.643 325.172 433.367 324.993C432.88 324.679 432.606 324.319 432.547 323.914C432.489 323.511 432.631 323.139 432.971 322.799C433.196 322.574 433.46 322.415 433.762 322.322C434.067 322.227 434.38 322.207 434.701 322.262C435.028 322.317 435.443 322.449 435.947 322.659C436.624 322.944 437.116 323.12 437.422 323.186L437.527 323.08C437.729 322.878 437.813 322.695 437.78 322.533C437.748 322.369 437.567 322.181 437.238 321.967C437.015 321.824 436.804 321.749 436.604 321.744C436.407 321.735 436.177 321.799 435.915 321.934ZM436.736 323.872C436.531 323.814 436.223 323.704 435.813 323.542C435.403 323.38 435.115 323.294 434.948 323.285C434.687 323.277 434.481 323.349 434.332 323.499C434.184 323.646 434.122 323.816 434.145 324.008C434.169 324.2 434.281 324.361 434.483 324.492C434.709 324.638 434.987 324.714 435.317 324.721C435.563 324.724 435.779 324.672 435.964 324.565C436.086 324.496 436.274 324.335 436.526 324.083L436.736 323.872ZM441.598 330.161L440.346 329.352L442.377 327.318C442.806 326.887 443.057 326.592 443.128 326.433C443.202 326.271 443.213 326.115 443.162 325.967C443.113 325.819 443.003 325.691 442.834 325.582C442.618 325.442 442.373 325.367 442.101 325.355C441.828 325.344 441.577 325.4 441.347 325.523C441.12 325.648 440.784 325.933 440.339 326.379L438.536 328.184L437.284 327.376L441.264 323.389L442.427 324.14L441.843 324.725C442.705 324.542 443.45 324.652 444.076 325.057C444.353 325.236 444.563 325.441 444.707 325.674C444.853 325.904 444.919 326.122 444.905 326.327C444.894 326.534 444.828 326.734 444.708 326.928C444.59 327.124 444.378 327.376 444.071 327.684L441.598 330.161ZM449.022 328.399L448.182 329.24L447.327 328.688L445.723 330.294C445.398 330.62 445.216 330.814 445.176 330.879C445.141 330.943 445.134 331.011 445.155 331.082C445.18 331.156 445.234 331.219 445.317 331.273C445.433 331.348 445.634 331.423 445.922 331.497L445.212 332.384C444.816 332.301 444.434 332.141 444.065 331.903C443.839 331.757 443.668 331.595 443.549 331.415C443.433 331.233 443.381 331.064 443.395 330.908C443.414 330.752 443.494 330.577 443.633 330.383C443.729 330.243 443.963 329.987 444.335 329.614L446.07 327.876L445.495 327.505L446.335 326.664L446.91 327.035L447.7 326.243L449.571 326.439L448.166 327.847L449.022 328.399ZM449.612 330.781L448.648 329.874C449.161 329.572 449.665 329.428 450.162 329.444C450.659 329.461 451.215 329.668 451.829 330.065C452.388 330.425 452.748 330.75 452.908 331.039C453.072 331.326 453.122 331.591 453.06 331.835C453.003 332.078 452.746 332.429 452.288 332.887L451.046 334.109C450.697 334.46 450.457 334.731 450.328 334.924C450.205 335.116 450.103 335.342 450.023 335.603L448.785 334.803C448.822 334.712 448.886 334.582 448.975 334.414C449.017 334.338 449.043 334.287 449.054 334.262C448.666 334.298 448.306 334.282 447.975 334.212C447.644 334.142 447.34 334.019 447.064 333.84C446.577 333.526 446.304 333.165 446.243 332.761C446.187 332.358 446.328 331.986 446.668 331.645C446.893 331.42 447.156 331.261 447.459 331.169C447.764 331.073 448.077 331.053 448.398 331.108C448.725 331.163 449.14 331.296 449.644 331.505C450.322 331.791 450.813 331.967 451.119 332.032L451.224 331.927C451.426 331.724 451.51 331.542 451.476 331.38C451.445 331.216 451.265 331.027 450.934 330.814C450.712 330.671 450.501 330.596 450.301 330.59C450.104 330.582 449.874 330.646 449.612 330.781ZM450.433 332.719C450.227 332.661 449.92 332.55 449.51 332.388C449.1 332.227 448.811 332.141 448.644 332.132C448.384 332.124 448.178 332.195 448.028 332.345C447.881 332.493 447.819 332.663 447.842 332.855C447.865 333.047 447.978 333.208 448.18 333.338C448.406 333.484 448.684 333.561 449.014 333.568C449.26 333.571 449.476 333.519 449.661 333.412C449.783 333.343 449.971 333.182 450.223 332.929L450.433 332.719ZM455.294 339.008L454.042 338.199L456.073 336.164C456.503 335.734 456.754 335.439 456.825 335.28C456.899 335.117 456.91 334.962 456.858 334.813C456.81 334.666 456.701 334.538 456.531 334.429C456.314 334.289 456.069 334.213 455.798 334.202C455.525 334.191 455.274 334.247 455.044 334.37C454.817 334.495 454.48 334.78 454.036 335.225L452.233 337.031L450.981 336.222L454.961 332.235L456.124 332.987L455.539 333.572C456.402 333.389 457.147 333.499 457.773 333.904C458.05 334.082 458.26 334.288 458.403 334.521C458.55 334.751 458.616 334.969 458.602 335.174C458.591 335.381 458.525 335.581 458.405 335.775C458.287 335.971 458.075 336.223 457.768 336.53L455.294 339.008ZM460.909 342.634L459.746 341.883L460.33 341.297C459.91 341.4 459.512 341.423 459.135 341.365C458.763 341.306 458.444 341.19 458.177 341.017C457.633 340.666 457.35 340.181 457.328 339.562C457.312 338.942 457.633 338.302 458.293 337.641C458.968 336.966 459.668 336.574 460.395 336.468C461.125 336.358 461.778 336.49 462.354 336.862C462.883 337.204 463.155 337.685 463.172 338.304L465.15 336.322L466.402 337.131L460.909 342.634ZM459.643 338.396C459.218 338.821 458.981 339.174 458.931 339.454C458.858 339.86 459.003 340.181 459.365 340.414C459.653 340.601 460.001 340.656 460.407 340.581C460.817 340.504 461.226 340.26 461.636 339.85C462.093 339.392 462.323 339 462.327 338.673C462.334 338.344 462.184 338.08 461.878 337.883C461.581 337.69 461.232 337.629 460.83 337.699C460.433 337.768 460.038 338.001 459.643 338.396ZM466.154 343.935L467.226 344.917C466.68 345.199 466.133 345.329 465.583 345.307C465.039 345.285 464.507 345.106 463.987 344.77C463.164 344.239 462.781 343.619 462.838 342.911C462.889 342.346 463.19 341.788 463.742 341.235C464.402 340.574 465.123 340.19 465.904 340.081C466.689 339.971 467.395 340.118 468.022 340.523C468.726 340.978 469.085 341.533 469.1 342.189C469.117 342.842 468.713 343.567 467.889 344.364L464.751 342.338C464.448 342.656 464.306 342.966 464.324 343.265C464.345 343.563 464.499 343.805 464.787 343.991C464.983 344.117 465.193 344.179 465.417 344.175C465.64 344.171 465.886 344.091 466.154 343.935ZM467.29 342.915C467.586 342.604 467.723 342.312 467.702 342.04C467.684 341.764 467.547 341.544 467.292 341.379C467.018 341.203 466.709 341.141 466.363 341.193C466.018 341.245 465.703 341.417 465.419 341.707L467.29 342.915ZM468.426 347.489L467.174 346.68L471.153 342.694L472.316 343.445L471.75 344.012C472.217 343.872 472.571 343.811 472.813 343.828C473.059 343.846 473.282 343.921 473.484 344.051C473.77 344.236 473.978 344.479 474.11 344.783L472.804 345.452C472.708 345.201 472.57 345.016 472.388 344.9C472.213 344.786 472.023 344.732 471.819 344.735C471.617 344.737 471.375 344.821 471.091 344.988C470.81 345.156 470.332 345.579 469.654 346.258L468.426 347.489Z" fill="white"/>
<path d="M423.634 329.568L424.572 330.735C423.776 331.209 423.004 331.445 422.254 331.442C421.509 331.439 420.787 331.211 420.086 330.758C419.218 330.198 418.754 329.488 418.693 328.63C418.634 327.768 419.037 326.905 419.901 326.039C420.816 325.123 421.806 324.594 422.872 324.451C423.94 324.305 424.932 324.528 425.847 325.119C426.646 325.635 427.097 326.253 427.198 326.974C427.26 327.401 427.146 327.882 426.855 328.419L425.287 327.838C425.494 327.503 425.557 327.173 425.476 326.849C425.397 326.526 425.183 326.252 424.832 326.025C424.348 325.713 423.808 325.605 423.213 325.702C422.62 325.801 421.997 326.179 421.342 326.834C420.648 327.53 420.302 328.121 420.304 328.609C420.307 329.096 420.545 329.493 421.021 329.8C421.371 330.026 421.766 330.127 422.206 330.103C422.646 330.078 423.122 329.9 423.634 329.568ZM425.777 330.908C426.127 330.558 426.568 330.285 427.1 330.09C427.632 329.894 428.171 329.831 428.718 329.9C429.268 329.971 429.774 330.156 430.238 330.455C430.954 330.918 431.344 331.493 431.409 332.181C431.477 332.868 431.212 333.509 430.615 334.107C430.013 334.711 429.282 335.062 428.421 335.16C427.566 335.258 426.788 335.081 426.087 334.628C425.654 334.348 425.321 333.998 425.091 333.577C424.864 333.159 424.807 332.725 424.919 332.274C425.034 331.822 425.32 331.366 425.777 330.908ZM427.004 331.794C426.609 332.189 426.418 332.564 426.431 332.918C426.444 333.272 426.614 333.554 426.941 333.765C427.268 333.976 427.646 334.048 428.075 333.98C428.508 333.913 428.924 333.68 429.324 333.279C429.713 332.889 429.902 332.517 429.889 332.163C429.879 331.81 429.711 331.529 429.384 331.318C429.057 331.107 428.677 331.035 428.245 331.101C427.812 331.167 427.399 331.398 427.004 331.794ZM433.939 339.551L432.776 338.8L433.361 338.214C432.94 338.318 432.542 338.34 432.165 338.282C431.793 338.223 431.474 338.107 431.207 337.935C430.663 337.584 430.38 337.098 430.358 336.479C430.342 335.86 430.663 335.219 431.323 334.559C431.998 333.883 432.698 333.492 433.426 333.385C434.155 333.276 434.808 333.407 435.384 333.779C435.913 334.121 436.185 334.601 436.202 335.221L438.18 333.239L439.432 334.048L433.939 339.551ZM432.673 335.313C432.248 335.738 432.011 336.092 431.961 336.372C431.888 336.778 432.033 337.097 432.395 337.331C432.683 337.518 433.03 337.573 433.437 337.498C433.847 337.421 434.256 337.177 434.666 336.767C435.123 336.309 435.354 335.917 435.357 335.59C435.364 335.261 435.214 334.997 434.908 334.799C434.611 334.607 434.262 334.547 433.86 334.616C433.463 334.685 433.068 334.918 432.673 335.313ZM439.184 340.852L440.256 341.835C439.711 342.116 439.163 342.246 438.613 342.224C438.069 342.202 437.537 342.023 437.017 341.687C436.194 341.156 435.811 340.536 435.868 339.828C435.919 339.264 436.22 338.705 436.772 338.152C437.431 337.491 438.153 337.107 438.935 336.999C439.719 336.888 440.425 337.035 441.052 337.44C441.756 337.895 442.115 338.45 442.13 339.106C442.147 339.759 441.743 340.484 440.919 341.281L437.782 339.255C437.478 339.573 437.336 339.883 437.354 340.183C437.375 340.48 437.529 340.721 437.817 340.908C438.013 341.034 438.223 341.096 438.447 341.092C438.67 341.088 438.916 341.008 439.184 340.852ZM440.32 339.832C440.616 339.521 440.753 339.229 440.732 338.956C440.714 338.681 440.577 338.461 440.322 338.296C440.049 338.12 439.739 338.057 439.393 338.11C439.048 338.163 438.733 338.334 438.449 338.623L440.32 339.832ZM441.456 344.406L440.204 343.597L444.183 339.611L445.346 340.362L444.781 340.929C445.247 340.789 445.601 340.728 445.843 340.745C446.089 340.763 446.312 340.838 446.514 340.968C446.8 341.152 447.008 341.396 447.14 341.7L445.834 342.369C445.738 342.118 445.6 341.934 445.419 341.816C445.243 341.703 445.053 341.648 444.85 341.652C444.647 341.654 444.405 341.738 444.121 341.905C443.84 342.073 443.362 342.497 442.685 343.175L441.456 344.406Z" fill="#040404"/>
<mask id="mask1_35_250" style="mask-type:luminance" maskUnits="userSpaceOnUse" x="433" y="278" width="62" height="62">
<path d="M494.745 298.345L453.42 278.026L433.096 319.341L474.421 339.66L494.745 298.345Z" fill="white"/>
</mask>
<g mask="url(#mask1_35_250)">
<path fill-rule="evenodd" clip-rule="evenodd" d="M473.961 306.035C473.999 303.817 472.791 292.055 473.574 290.131C472.142 291.014 470.973 292.264 470.189 293.752C469.405 295.24 469.034 296.911 469.115 298.59L469.667 308.987C469.748 310.666 469.377 312.337 468.593 313.825C467.808 315.312 466.64 316.563 465.208 317.445C465.467 316.494 465.574 315.507 465.524 314.522C465.572 312.378 464.177 297.784 464.998 296.019C463.572 296.9 462.407 298.146 461.623 299.627C460.839 301.109 460.465 302.773 460.54 304.448L461.098 314.895C461.18 316.575 460.81 318.246 460.025 319.735C459.242 321.224 458.072 322.475 456.641 323.358C457.423 321.516 456.229 309.59 456.254 307.451C456.165 305.73 456.556 304.017 457.384 302.506C436.258 298.908 437.867 317.196 455.751 325.763C473.462 334.683 488.93 324.807 473.183 310.274C473.772 308.942 474.038 307.49 473.961 306.035Z" fill="#040404"/>
</g>
<mask id="mask2_35_250" style="mask-type:luminance" maskUnits="userSpaceOnUse" x="409" y="198" width="279" height="316">
<path d="M609.078 198.022L409.933 368.068L488.499 513.217L687.644 343.172L609.078 198.022Z" fill="white"/>
</mask>
<g mask="url(#mask2_35_250)">
<g filter="url(#filter5_ii_35_250)">
<path d="M414.462 376.435L483.97 504.85C486.471 509.471 491.739 510.451 495.736 507.039L680.407 349.351C684.404 345.939 685.616 339.426 683.115 334.805L613.607 206.39C611.105 201.769 605.838 200.789 601.841 204.201L417.17 361.889C413.173 365.302 411.961 371.814 414.462 376.435Z" fill="#E70A0D"/>
<path d="M414.462 376.435L483.97 504.85C486.471 509.471 491.739 510.451 495.736 507.039L680.407 349.351C684.404 345.939 685.616 339.426 683.115 334.805L613.607 206.39C611.105 201.769 605.838 200.789 601.841 204.201L417.17 361.889C413.173 365.302 411.961 371.814 414.462 376.435Z" fill="url(#paint3_radial_35_250)"/>
</g>
<path opacity="0.48" d="M599.315 249.182C594.813 240.864 585.331 239.1 578.137 245.243C570.944 251.385 568.762 263.108 573.265 271.426C577.767 279.745 587.249 281.509 594.442 275.366C601.636 269.223 603.818 257.5 599.315 249.182Z" fill="#3A3A3A"/>
<path opacity="0.7" d="M615.042 235.753C610.54 227.435 601.058 225.671 593.865 231.814C586.671 237.956 584.489 249.679 588.992 257.997C593.494 266.316 602.976 268.079 610.17 261.937C617.363 255.794 619.545 244.071 615.042 235.753Z" fill="#FF5C04"/>
<g filter="url(#filter6_d_35_250)">
<path d="M482.461 377.345L462.778 394.152C460.913 395.744 460.348 398.784 461.515 400.94L469.124 414.998C470.291 417.154 472.749 417.612 474.615 416.019L494.297 399.212C496.162 397.62 496.728 394.581 495.561 392.424L487.952 378.366C486.784 376.21 484.326 375.753 482.461 377.345Z" fill="url(#paint4_linear_35_250)"/>
</g>
<path d="M463.468 404.63L472.457 396.954C471.933 394.446 471.279 388.915 472.862 386.847C473.698 386.539 475.845 386.171 477.732 387.162M467.262 411.639L476.252 403.963C478.131 407.435 482.182 407.684 483.973 407.375C485.765 404.609 485.298 399.059 484.839 396.63L493.728 389.04M490.838 383.699L481.949 391.289C481.075 390.761 479.425 389.231 479.811 387.339" stroke="url(#paint5_linear_35_250)" stroke-width="0.772581"/>
<path d="M499.794 377.308C500.479 377.703 501.824 378.97 501.725 380.879M501.223 374.213C502.277 374.861 504.42 376.995 504.543 380.349M502.38 371.268C503.78 372.164 506.682 375.148 507.061 379.914M503.834 368.478C505.553 369.483 509.126 373.044 509.658 379.244" stroke="white" stroke-width="2.8328" stroke-linecap="round" stroke-linejoin="round"/>
<path d="M503.819 475.204L498.705 469.572L499.927 468.528L503.361 472.464L501.898 466.844L503.322 465.632L506.943 469.522L505.263 463.971L506.465 462.945L508.731 471.009L507.465 472.09L503.519 467.984L505.115 474.099L503.819 475.204ZM512.244 465.702L513.496 464.957C513.609 465.56 513.575 466.122 513.397 466.642C513.22 467.157 512.895 467.616 512.427 468.018C511.683 468.654 510.978 468.843 510.313 468.586C509.791 468.376 509.337 467.927 508.968 467.24C508.525 466.419 508.362 465.619 508.48 464.838C508.598 464.055 508.943 463.421 509.51 462.937C510.146 462.392 510.781 462.207 511.417 462.381C512.047 462.551 512.624 463.145 513.151 464.164L510.313 466.589C510.53 466.97 510.786 467.195 511.082 467.264C511.372 467.329 511.648 467.251 511.909 467.028C512.087 466.876 512.205 466.693 512.264 466.477C512.323 466.262 512.318 466.004 512.244 465.702ZM511.594 464.323C511.382 463.95 511.141 463.735 510.875 463.676C510.604 463.615 510.352 463.683 510.121 463.881C509.875 464.092 509.727 464.371 509.677 464.717C509.628 465.063 509.702 465.414 509.899 465.769L511.594 464.323ZM514.053 464.398L515.082 463.226C515.27 463.44 515.472 463.55 515.693 463.558C515.91 463.562 516.152 463.451 516.418 463.223C516.713 462.973 516.901 462.723 516.979 462.472C517.034 462.3 517.019 462.141 516.94 461.995C516.886 461.895 516.812 461.836 516.723 461.816C516.634 461.803 516.477 461.853 516.25 461.968C515.211 462.515 514.516 462.797 514.166 462.813C513.683 462.835 513.314 462.608 513.057 462.132C512.826 461.703 512.777 461.217 512.91 460.675C513.048 460.132 513.422 459.598 514.038 459.072C514.624 458.572 515.117 458.31 515.521 458.287C515.925 458.265 516.299 458.423 516.639 458.764L515.698 459.905C515.546 459.751 515.378 459.679 515.196 459.686C515.013 459.691 514.802 459.795 514.565 459.997C514.269 460.252 514.082 460.483 514.003 460.689C513.954 460.831 513.959 460.957 514.018 461.066C514.067 461.159 514.151 461.206 514.26 461.207C514.407 461.207 514.826 461.029 515.516 460.673C516.206 460.315 516.733 460.149 517.098 460.175C517.462 460.206 517.758 460.43 517.98 460.846C518.226 461.3 518.275 461.831 518.122 462.437C517.97 463.044 517.576 463.621 516.93 464.17C516.349 464.668 515.812 464.927 515.324 464.945C514.836 464.96 514.412 464.778 514.053 464.398ZM519.817 461.544L516.112 454.706L517.245 453.738L520.951 460.576L519.817 461.544ZM523.744 455.886L524.991 455.141C525.104 455.744 525.075 456.305 524.892 456.826C524.715 457.341 524.395 457.799 523.922 458.201C523.178 458.837 522.473 459.027 521.813 458.769C521.286 458.559 520.837 458.111 520.463 457.424C520.019 456.603 519.857 455.802 519.98 455.022C520.098 454.239 520.438 453.605 521.005 453.12C521.645 452.576 522.281 452.391 522.912 452.564C523.542 452.735 524.124 453.329 524.651 454.348L521.808 456.772C522.03 457.154 522.286 457.379 522.577 457.448C522.867 457.513 523.143 457.434 523.404 457.212C523.582 457.06 523.7 456.877 523.759 456.661C523.823 456.446 523.813 456.187 523.744 455.886ZM523.089 454.506C522.877 454.134 522.636 453.919 522.37 453.86C522.099 453.799 521.847 453.867 521.616 454.064C521.369 454.276 521.222 454.555 521.172 454.901C521.123 455.247 521.197 455.597 521.394 455.953L523.089 454.506ZM523.498 451.159L524.7 450.129L527.632 452.771L526.725 448.4L527.903 447.398L528.967 453.456L529.164 454.55C529.223 454.924 529.248 455.226 529.238 455.457C529.228 455.685 529.194 455.896 529.125 456.09C529.061 456.286 528.957 456.483 528.814 456.683C528.676 456.88 528.499 457.071 528.282 457.254C528.065 457.441 527.834 457.597 527.597 457.723L526.942 456.783C527.139 456.672 527.311 456.555 527.454 456.434C527.716 456.209 527.863 455.952 527.893 455.664C527.922 455.379 527.898 455.069 527.814 454.735L523.498 451.159ZM533.603 449.771L529.903 442.933L531.687 441.408L535.288 445.156L533.82 439.586L535.614 438.056L539.314 444.894L538.205 445.842L535.293 440.459L537.033 446.844L535.88 447.825L531.8 443.442L534.712 448.824L533.603 449.771Z" fill="white"/>
</g>
<path d="M621.118 360.626L622.212 359.503C622.527 359.895 622.847 360.105 623.173 360.135C623.503 360.163 623.848 360.022 624.212 359.712C624.596 359.384 624.833 359.044 624.927 358.692C625.02 358.335 625 358.03 624.863 357.778C624.774 357.616 624.661 357.515 624.518 357.474C624.375 357.428 624.178 357.45 623.926 357.541C623.759 357.605 623.384 357.777 622.808 358.059C622.069 358.422 621.497 358.58 621.098 358.533C620.532 358.467 620.098 358.163 619.807 357.622C619.62 357.274 619.527 356.876 619.531 356.43C619.541 355.978 619.66 355.537 619.896 355.105C620.133 354.671 620.477 354.259 620.931 353.871C621.675 353.238 622.335 352.95 622.911 353.006C623.493 353.061 623.961 353.394 624.321 354.007L623.158 355.087C622.916 354.779 622.67 354.621 622.419 354.614C622.167 354.601 621.877 354.738 621.537 355.024C621.192 355.321 620.965 355.635 620.857 355.968C620.788 356.181 620.803 356.376 620.896 356.554C620.985 356.715 621.118 356.803 621.3 356.817C621.532 356.835 621.98 356.675 622.645 356.338C623.31 356 623.828 355.799 624.197 355.733C624.572 355.662 624.912 355.708 625.227 355.87C625.547 356.027 625.818 356.322 626.055 356.754C626.267 357.145 626.37 357.593 626.37 358.096C626.365 358.599 626.237 359.081 625.986 359.542C625.73 360.001 625.345 360.45 624.833 360.889C624.084 361.527 623.399 361.818 622.783 361.762C622.167 361.703 621.611 361.325 621.118 360.626ZM627.114 353.729L625.966 354.393C625.823 353.815 625.833 353.291 625.991 352.819C626.149 352.349 626.503 351.875 627.06 351.4C627.568 350.968 627.981 350.717 628.307 350.645C628.627 350.571 628.893 350.598 629.11 350.728C629.326 350.853 629.588 351.199 629.898 351.768L630.711 353.308C630.947 353.744 631.14 354.05 631.287 354.229C631.435 354.402 631.623 354.564 631.854 354.715L630.731 355.673C630.652 355.612 630.548 355.513 630.41 355.379C630.351 355.317 630.312 355.278 630.287 355.259C630.213 355.643 630.095 355.982 629.933 356.28C629.77 356.577 629.563 356.832 629.317 357.046C628.873 357.422 628.449 357.581 628.045 357.523C627.641 357.462 627.326 357.22 627.099 356.797C626.947 356.517 626.868 356.219 626.868 355.903C626.863 355.583 626.937 355.278 627.08 354.985C627.228 354.688 627.469 354.328 627.814 353.906C628.282 353.339 628.592 352.918 628.745 352.644L628.671 352.514C628.538 352.261 628.385 352.129 628.223 352.115C628.055 352.098 627.824 352.217 627.523 352.472C627.321 352.644 627.188 352.825 627.129 353.015C627.065 353.201 627.06 353.439 627.114 353.729ZM629.203 353.498C629.09 353.678 628.898 353.941 628.622 354.287C628.351 354.634 628.188 354.885 628.129 355.043C628.05 355.29 628.055 355.507 628.159 355.694C628.257 355.878 628.405 355.985 628.592 356.018C628.785 356.051 628.972 355.989 629.154 355.833C629.356 355.658 629.514 355.414 629.612 355.1C629.686 354.865 629.696 354.644 629.647 354.436C629.617 354.298 629.519 354.073 629.346 353.759L629.203 353.498ZM636.623 350.641L635.49 351.609L634.121 349.081C633.835 348.546 633.623 348.222 633.49 348.107C633.357 347.99 633.209 347.935 633.051 347.942C632.899 347.947 632.741 348.015 632.588 348.146C632.391 348.313 632.253 348.526 632.164 348.783C632.076 349.041 632.056 349.297 632.105 349.553C632.16 349.807 632.337 350.21 632.637 350.764L633.854 353.007L632.721 353.975L630.036 349.022L631.09 348.123L631.485 348.85C631.554 347.971 631.874 347.29 632.44 346.805C632.692 346.592 632.948 346.449 633.214 346.378C633.475 346.304 633.702 346.303 633.894 346.375C634.091 346.445 634.263 346.566 634.416 346.736C634.569 346.904 634.751 347.18 634.958 347.563L636.623 350.641ZM637.062 343.025L637.629 344.07L636.85 344.731L637.934 346.728C638.151 347.132 638.284 347.363 638.338 347.419C638.387 347.471 638.451 347.497 638.525 347.497C638.604 347.494 638.678 347.461 638.757 347.397C638.86 347.307 638.988 347.135 639.141 346.881L639.792 347.815C639.595 348.171 639.333 348.491 638.998 348.776C638.796 348.951 638.589 349.069 638.382 349.131C638.176 349.191 637.998 349.191 637.855 349.133C637.712 349.07 637.565 348.944 637.422 348.755C637.313 348.623 637.136 348.326 636.885 347.862L635.717 345.703L635.195 346.147L634.628 345.102L635.15 344.658L634.618 343.674L635.337 341.937L636.288 343.686L637.062 343.025ZM639.511 343.142L638.368 343.805C638.225 343.228 638.23 342.703 638.387 342.232C638.545 341.761 638.905 341.287 639.461 340.812C639.964 340.381 640.383 340.129 640.703 340.057C641.023 339.983 641.294 340.011 641.511 340.14C641.728 340.265 641.989 340.611 642.295 341.18L643.112 342.72C643.349 343.156 643.541 343.463 643.689 343.641C643.837 343.814 644.024 343.976 644.251 344.128L643.132 345.085C643.053 345.024 642.95 344.926 642.812 344.791C642.753 344.73 642.708 344.69 642.689 344.671C642.615 345.055 642.492 345.395 642.334 345.692C642.171 345.989 641.964 346.244 641.713 346.458C641.275 346.834 640.851 346.994 640.447 346.935C640.043 346.874 639.728 346.632 639.496 346.209C639.348 345.929 639.269 345.631 639.269 345.315C639.264 344.995 639.333 344.69 639.481 344.398C639.624 344.101 639.87 343.74 640.215 343.318C640.683 342.751 640.994 342.33 641.142 342.056L641.073 341.926C640.935 341.674 640.787 341.541 640.619 341.527C640.452 341.51 640.22 341.629 639.925 341.884C639.723 342.056 639.59 342.237 639.526 342.427C639.461 342.613 639.457 342.851 639.511 343.142ZM641.605 342.91C641.491 343.09 641.294 343.353 641.023 343.699C640.752 344.046 640.585 344.298 640.531 344.455C640.447 344.703 640.457 344.919 640.56 345.106C640.659 345.29 640.802 345.398 640.994 345.43C641.186 345.463 641.373 345.401 641.555 345.245C641.757 345.071 641.91 344.826 642.014 344.512C642.088 344.277 642.097 344.056 642.048 343.848C642.019 343.71 641.915 343.485 641.748 343.171L641.605 342.91ZM649.025 340.053L647.892 341.021L646.522 338.493C646.231 337.958 646.019 337.634 645.886 337.52C645.753 337.402 645.61 337.347 645.453 337.355C645.295 337.359 645.142 337.427 644.99 337.558C644.793 337.725 644.65 337.938 644.561 338.195C644.472 338.453 644.453 338.71 644.507 338.965C644.561 339.219 644.738 339.622 645.039 340.176L646.251 342.419L645.118 343.387L642.437 338.434L643.492 337.535L643.886 338.262C643.955 337.384 644.275 336.702 644.842 336.218C645.093 336.004 645.349 335.861 645.615 335.791C645.877 335.716 646.103 335.715 646.295 335.788C646.492 335.857 646.665 335.978 646.818 336.148C646.97 336.317 647.153 336.592 647.36 336.975L649.025 340.053ZM654.105 335.713L653.055 336.612L652.661 335.885C652.637 336.317 652.543 336.705 652.38 337.05C652.218 337.389 652.016 337.661 651.774 337.868C651.282 338.288 650.735 338.42 650.138 338.264C649.537 338.102 649.015 337.611 648.572 336.79C648.118 335.95 647.946 335.167 648.049 334.44C648.153 333.71 648.468 333.122 648.99 332.677C649.468 332.268 650.005 332.144 650.607 332.306L649.271 329.843L650.405 328.876L654.105 335.713ZM649.68 335.713C649.966 336.241 650.237 336.57 650.493 336.698C650.863 336.884 651.208 336.837 651.538 336.557C651.799 336.334 651.952 336.017 651.996 335.606C652.04 335.192 651.922 334.73 651.646 334.22C651.336 333.651 651.03 333.318 650.715 333.22C650.404 333.12 650.109 333.188 649.828 333.425C649.562 333.654 649.404 333.971 649.355 334.376C649.306 334.776 649.414 335.221 649.68 335.713ZM656.854 331.061L658.101 330.316C658.219 330.919 658.184 331.48 658.007 332.001C657.83 332.516 657.504 332.974 657.036 333.376C656.287 334.012 655.588 334.202 654.923 333.944C654.395 333.734 653.947 333.286 653.578 332.599C653.134 331.778 652.972 330.977 653.09 330.197C653.208 329.414 653.553 328.78 654.12 328.296C654.755 327.751 655.391 327.566 656.026 327.74C656.657 327.91 657.233 328.505 657.761 329.523L654.923 331.947C655.139 332.329 655.396 332.554 655.691 332.623C655.982 332.688 656.258 332.609 656.519 332.387C656.696 332.235 656.815 332.052 656.874 331.837C656.933 331.621 656.928 331.363 656.854 331.061ZM656.204 329.681C655.987 329.309 655.75 329.094 655.479 329.036C655.213 328.974 654.962 329.043 654.73 329.24C654.484 329.451 654.336 329.73 654.287 330.076C654.238 330.422 654.312 330.773 654.509 331.128L656.204 329.681ZM660.909 329.903L659.776 330.871L657.096 325.917L658.15 325.018L658.529 325.722C658.529 325.236 658.574 324.879 658.657 324.652C658.746 324.422 658.884 324.229 659.066 324.073C659.323 323.853 659.618 323.723 659.943 323.683L660.214 325.125C659.943 325.145 659.727 325.225 659.564 325.365C659.406 325.501 659.298 325.667 659.244 325.864C659.19 326.057 659.199 326.314 659.278 326.633C659.357 326.951 659.628 327.53 660.081 328.373L660.909 329.903Z" fill="white"/>
<path d="M630.913 367.679L632.298 367.115C632.524 368.013 632.529 368.82 632.312 369.538C632.095 370.249 631.672 370.876 631.036 371.418C630.253 372.089 629.44 372.331 628.597 372.143C627.755 371.953 627.045 371.32 626.464 370.244C625.848 369.106 625.621 368.006 625.789 366.944C625.956 365.879 626.454 364.992 627.282 364.285C628.006 363.668 628.725 363.413 629.445 363.522C629.873 363.585 630.302 363.832 630.736 364.264L629.73 365.6C629.464 365.305 629.169 365.151 628.834 365.136C628.504 365.119 628.178 365.246 627.863 365.517C627.425 365.891 627.163 366.378 627.09 366.976C627.011 367.571 627.198 368.277 627.636 369.091C628.105 369.956 628.573 370.456 629.041 370.594C629.509 370.731 629.957 370.616 630.386 370.248C630.706 369.977 630.913 369.628 631.016 369.2C631.12 368.771 631.085 368.264 630.913 367.679ZM632.81 366.01C632.573 365.575 632.44 365.074 632.406 364.508C632.371 363.942 632.465 363.408 632.687 362.904C632.913 362.397 633.234 361.965 633.652 361.607C634.303 361.054 634.963 360.844 635.643 360.979C636.318 361.11 636.86 361.548 637.264 362.291C637.668 363.04 637.796 363.841 637.643 364.694C637.491 365.541 637.096 366.236 636.466 366.778C636.072 367.113 635.643 367.331 635.17 367.431C634.707 367.529 634.273 367.459 633.874 367.223C633.475 366.983 633.12 366.579 632.81 366.01ZM634.012 365.088C634.278 365.579 634.579 365.869 634.924 365.958C635.269 366.048 635.584 365.965 635.884 365.713C636.18 365.46 636.352 365.119 636.412 364.688C636.471 364.254 636.367 363.789 636.096 363.291C635.835 362.806 635.535 362.519 635.19 362.43C634.85 362.339 634.529 362.419 634.234 362.672C633.938 362.924 633.761 363.267 633.702 363.701C633.643 364.134 633.746 364.596 634.012 365.088ZM643.433 360.665L642.378 361.564L641.984 360.837C641.964 361.269 641.871 361.658 641.708 362.002C641.546 362.341 641.339 362.614 641.097 362.82C640.605 363.24 640.063 363.372 639.461 363.216C638.86 363.054 638.343 362.563 637.895 361.742C637.441 360.902 637.269 360.119 637.372 359.392C637.476 358.662 637.791 358.074 638.313 357.629C638.791 357.22 639.328 357.097 639.93 357.258L638.594 354.796L639.728 353.828L643.433 360.665ZM639.008 360.665C639.294 361.194 639.565 361.522 639.816 361.651C640.186 361.836 640.531 361.789 640.861 361.509C641.122 361.286 641.275 360.969 641.319 360.558C641.363 360.144 641.245 359.682 640.969 359.172C640.664 358.603 640.353 358.27 640.038 358.172C639.728 358.072 639.432 358.14 639.156 358.377C638.885 358.606 638.727 358.924 638.678 359.329C638.629 359.728 638.742 360.173 639.008 360.665ZM646.177 356.013L647.429 355.268C647.542 355.871 647.507 356.433 647.33 356.953C647.153 357.469 646.827 357.927 646.359 358.329C645.615 358.965 644.911 359.154 644.246 358.897C643.723 358.687 643.27 358.238 642.901 357.551C642.457 356.73 642.295 355.93 642.413 355.149C642.531 354.366 642.876 353.732 643.443 353.248C644.083 352.704 644.714 352.518 645.349 352.692C645.98 352.862 646.556 353.457 647.089 354.475L644.246 356.9C644.467 357.281 644.719 357.506 645.014 357.575C645.305 357.64 645.581 357.562 645.842 357.339C646.019 357.187 646.138 357.004 646.197 356.789C646.256 356.573 646.251 356.315 646.177 356.013ZM645.527 354.634C645.315 354.261 645.073 354.046 644.807 353.988C644.536 353.926 644.285 353.995 644.054 354.192C643.807 354.403 643.659 354.682 643.61 355.028C643.561 355.374 643.635 355.725 643.832 356.08L645.527 354.634ZM650.237 354.855L649.104 355.823L646.418 350.87L647.473 349.971L647.852 350.675C647.852 350.189 647.897 349.831 647.98 349.604C648.069 349.374 648.207 349.181 648.389 349.025C648.646 348.805 648.941 348.675 649.271 348.635L649.537 350.078C649.266 350.097 649.05 350.178 648.887 350.318C648.729 350.453 648.621 350.619 648.567 350.816C648.512 351.01 648.522 351.266 648.601 351.586C648.68 351.903 648.951 352.483 649.409 353.325L650.237 354.855Z" fill="#040404"/>
<path fill-rule="evenodd" clip-rule="evenodd" d="M624.936 312.483C622.966 311.469 611.875 307.357 610.495 305.805C610.653 307.479 611.259 309.08 612.249 310.44C613.24 311.801 614.575 312.872 616.117 313.541L625.69 317.638C627.233 318.307 628.568 319.377 629.558 320.738C630.544 322.099 631.15 323.699 631.312 325.374C630.573 324.72 629.731 324.189 628.829 323.799C626.922 322.808 613.21 317.613 611.988 316.098C612.151 317.766 612.752 319.362 613.737 320.719C614.723 322.076 616.048 323.147 617.585 323.819L627.208 327.933C628.75 328.602 630.085 329.672 631.076 331.033C632.066 332.394 632.672 333.995 632.83 335.669C631.524 334.154 620.295 329.958 618.388 328.99C616.802 328.31 615.437 327.203 614.447 325.793C601.888 343.153 619.009 349.786 634.598 337.529C650.424 325.584 648.394 307.347 628.4 315.052C627.464 313.936 626.277 313.056 624.936 312.483Z" fill="#040404"/>
</g>
<defs>
<filter id="filter0_f_35_250" x="367.54" y="458.386" width="342.75" height="82.0242" filterUnits="userSpaceOnUse" color-interpolation-filters="sRGB">
<feFlood flood-opacity="0" result="BackgroundImageFix"/>
<feBlend mode="normal" in="SourceGraphic" in2="BackgroundImageFix" result="shape"/>
<feGaussianBlur stdDeviation="18" result="effect1_foregroundBlur_35_250"/>
</filter>
<filter id="filter1_f_35_250" x="183.543" y="448.014" width="342.749" height="82.0222" filterUnits="userSpaceOnUse" color-interpolation-filters="sRGB">
<feFlood flood-opacity="0" result="BackgroundImageFix"/>
<feBlend mode="normal" in="SourceGraphic" in2="BackgroundImageFix" result="shape"/>
<feGaussianBlur stdDeviation="18" result="effect1_foregroundBlur_35_250"/>
</filter>
<filter id="filter2_f_35_250" x="390.706" y="187.244" width="254.627" height="246.342" filterUnits="userSpaceOnUse" color-interpolation-filters="sRGB">
<feFlood flood-opacity="0" result="BackgroundImageFix"/>
<feBlend mode="normal" in="SourceGraphic" in2="BackgroundImageFix" result="shape"/>
<feGaussianBlur stdDeviation="32.1909" result="effect1_foregroundBlur_35_250"/>
</filter>
<filter id="filter3_ii_35_250" x="259.92" y="89.6023" width="259.97" height="300.198" filterUnits="userSpaceOnUse" color-interpolation-filters="sRGB">
<feFlood flood-opacity="0" result="BackgroundImageFix"/>
<feBlend mode="normal" in="SourceGraphic" in2="BackgroundImageFix" result="shape"/>
<feColorMatrix in="SourceAlpha" type="matrix" values="0 0 0 0 0 0 0 0 0 0 0 0 0 0 0 0 0 0 127 0" result="hardAlpha"/>
<feOffset dx="-0.515054" dy="-0.515054"/>
<feGaussianBlur stdDeviation="0.386291"/>
<feComposite in2="hardAlpha" operator="arithmetic" k2="-1" k3="1"/>
<feColorMatrix type="matrix" values="0 0 0 0 0 0 0 0 0 0 0 0 0 0 0 0 0 0 0.36 0"/>
<feBlend mode="normal" in2="shape" result="effect1_innerShadow_35_250"/>
<feColorMatrix in="SourceAlpha" type="matrix" values="0 0 0 0 0 0 0 0 0 0 0 0 0 0 0 0 0 0 127 0" result="hardAlpha"/>
<feOffset dx="1.28764" dy="1.03011"/>
<feGaussianBlur stdDeviation="0.515054"/>
<feComposite in2="hardAlpha" operator="arithmetic" k2="-1" k3="1"/>
<feColorMatrix type="matrix" values="0 0 0 0 1 0 0 0 0 1 0 0 0 0 1 0 0 0 0.25 0"/>
<feBlend mode="normal" in2="effect1_innerShadow_35_250" result="effect2_innerShadow_35_250"/>
</filter>
<filter id="filter4_d_35_250" x="307.709" y="157.536" width="34.4154" height="40.637" filterUnits="userSpaceOnUse" color-interpolation-filters="sRGB">
<feFlood flood-opacity="0" result="BackgroundImageFix"/>
<feColorMatrix in="SourceAlpha" type="matrix" values="0 0 0 0 0 0 0 0 0 0 0 0 0 0 0 0 0 0 127 0" result="hardAlpha"/>
<feOffset dx="-0.772581" dy="-0.772581"/>
<feComposite in2="hardAlpha" operator="out"/>
<feColorMatrix type="matrix" values="0 0 0 0 0 0 0 0 0 0 0 0 0 0 0 0 0 0 0.25 0"/>
<feBlend mode="normal" in2="BackgroundImageFix" result="effect1_dropShadow_35_250"/>
<feBlend mode="normal" in="SourceGraphic" in2="effect1_dropShadow_35_250" result="shape"/>
</filter>
<filter id="filter5_ii_35_250" x="412.646" y="201.652" width="272.801" height="308.452" filterUnits="userSpaceOnUse" color-interpolation-filters="sRGB">
<feFlood flood-opacity="0" result="BackgroundImageFix"/>
<feBlend mode="normal" in="SourceGraphic" in2="BackgroundImageFix" result="shape"/>
<feColorMatrix in="SourceAlpha" type="matrix" values="0 0 0 0 0 0 0 0 0 0 0 0 0 0 0 0 0 0 127 0" result="hardAlpha"/>
<feOffset dx="-0.515054" dy="-0.515054"/>
<feGaussianBlur stdDeviation="0.386291"/>
<feComposite in2="hardAlpha" operator="arithmetic" k2="-1" k3="1"/>
<feColorMatrix type="matrix" values="0 0 0 0 0 0 0 0 0 0 0 0 0 0 0 0 0 0 0.36 0"/>
<feBlend mode="normal" in2="shape" result="effect1_innerShadow_35_250"/>
<feColorMatrix in="SourceAlpha" type="matrix" values="0 0 0 0 0 0 0 0 0 0 0 0 0 0 0 0 0 0 127 0" result="hardAlpha"/>
<feOffset dx="1.28764" dy="1.03011"/>
<feGaussianBlur stdDeviation="0.515054"/>
<feComposite in2="hardAlpha" operator="arithmetic" k2="-1" k3="1"/>
<feColorMatrix type="matrix" values="0 0 0 0 1 0 0 0 0 1 0 0 0 0 1 0 0 0 0.25 0"/>
<feBlend mode="normal" in2="effect1_innerShadow_35_250" result="effect2_innerShadow_35_250"/>
</filter>
<filter id="filter6_d_35_250" x="460.135" y="375.623" width="36.0333" height="41.3458" filterUnits="userSpaceOnUse" color-interpolation-filters="sRGB">
<feFlood flood-opacity="0" result="BackgroundImageFix"/>
<feColorMatrix in="SourceAlpha" type="matrix" values="0 0 0 0 0 0 0 0 0 0 0 0 0 0 0 0 0 0 127 0" result="hardAlpha"/>
<feOffset dx="-0.772581" dy="-0.772581"/>
<feComposite in2="hardAlpha" operator="out"/>
<feColorMatrix type="matrix" values="0 0 0 0 0 0 0 0 0 0 0 0 0 0 0 0 0 0 0.25 0"/>
<feBlend mode="normal" in2="BackgroundImageFix" result="effect1_dropShadow_35_250"/>
<feBlend mode="normal" in="SourceGraphic" in2="effect1_dropShadow_35_250" result="shape"/>
</filter>
<radialGradient id="paint0_radial_35_250" cx="0" cy="0" r="1" gradientUnits="userSpaceOnUse" gradientTransform="translate(253.68 247.221) rotate(0.75951) scale(245.947 201.04)">
<stop stop-color="white" stop-opacity="0.3"/>
<stop offset="1" stop-color="white" stop-opacity="0"/>
</radialGradient>
<linearGradient id="paint1_linear_35_250" x1="314.525" y1="156.482" x2="335.953" y2="196.422" gradientUnits="userSpaceOnUse">
<stop stop-color="#ABABAB"/>
<stop offset="0.3125" stop-color="white"/>
<stop offset="0.630208" stop-color="#BDBDBD"/>
<stop offset="1" stop-color="#5E5E5E"/>
</linearGradient>
<linearGradient id="paint2_linear_35_250" x1="315.172" y1="158.538" x2="338.268" y2="195.183" gradientUnits="userSpaceOnUse">
<stop stop-color="#7D7D7D"/>
<stop offset="0.494792" stop-color="white"/>
<stop offset="1" stop-color="#1C1C1C"/>
</linearGradient>
<radialGradient id="paint3_radial_35_250" cx="0" cy="0" r="1" gradientUnits="userSpaceOnUse" gradientTransform="translate(488.147 520.125) rotate(-67.2279) scale(312.039 162.85)">
<stop stop-color="white" stop-opacity="0.3"/>
<stop offset="1" stop-color="white" stop-opacity="0"/>
</radialGradient>
<linearGradient id="paint4_linear_35_250" x1="459.401" y1="397.035" x2="494.767" y2="400.354" gradientUnits="userSpaceOnUse">
<stop stop-color="#ABABAB"/>
<stop offset="0.3125" stop-color="white"/>
<stop offset="0.630208" stop-color="#BDBDBD"/>
<stop offset="1" stop-color="#5E5E5E"/>
</linearGradient>
<linearGradient id="paint5_linear_35_250" x1="461.03" y1="397.439" x2="495.226" y2="399.198" gradientUnits="userSpaceOnUse">
<stop stop-color="#7D7D7D"/>
<stop offset="0.494792" stop-color="white"/>
<stop offset="1" stop-color="#1C1C1C"/>
</linearGradient>
<clipPath id="clip0_35_250">
<rect width="946" height="532" fill="white"/>
</clipPath>
</defs>
</svg>
