<svg width="21" height="20" viewBox="0 0 21 20" fill="none" xmlns="http://www.w3.org/2000/svg">
<path d="M10.732 5.9315C10.3922 5.9315 10.1034 5.81803 9.86561 5.59111C9.62779 5.36418 9.50888 5.08863 9.50888 4.76445C9.50888 4.44027 9.62779 4.16472 9.86561 3.93779C10.1034 3.71086 10.3922 3.5974 10.732 3.5974C11.0717 3.5974 11.3605 3.71086 11.5983 3.93779C11.8361 4.16472 11.955 4.44027 11.955 4.76445C11.955 5.08863 11.8361 5.36418 11.5983 5.59111C11.3605 5.81803 11.0717 5.9315 10.732 5.9315ZM10.732 18.38C9.604 18.38 8.64253 18.0007 7.84753 17.2421C7.05253 16.4836 6.65503 15.5661 6.65503 14.4898V5.15347C6.65503 4.07719 7.05253 3.15976 7.84753 2.40118C8.64253 1.6426 9.604 1.26331 10.732 1.26331C11.8599 1.26331 12.8214 1.6426 13.6164 2.40118C14.4114 3.15976 14.8089 4.07719 14.8089 5.15347V14.4898C14.8089 15.5661 14.4114 16.4836 13.6164 17.2421C12.8214 18.0007 11.8599 18.38 10.732 18.38ZM10.732 6.70953C11.3027 6.70953 11.7852 6.5215 12.1793 6.14546C12.5734 5.76941 12.7704 5.30907 12.7704 4.76445C12.7704 4.21983 12.5734 3.75949 12.1793 3.38344C11.7852 3.00739 11.3027 2.81937 10.732 2.81937C10.1612 2.81937 9.67875 3.00739 9.28464 3.38344C8.89054 3.75949 8.69349 4.21983 8.69349 4.76445C8.69349 5.30907 8.89054 5.76941 9.28464 6.14546C9.67875 6.5215 10.1612 6.70953 10.732 6.70953ZM10.732 16.8239C11.4114 16.8239 11.989 16.597 12.4646 16.1432C12.9403 15.6893 13.1781 15.1382 13.1781 14.4898V7.35141C12.8384 7.64965 12.4578 7.87658 12.0366 8.03218C11.6153 8.18779 11.1804 8.26559 10.732 8.26559C10.2835 8.26559 9.84862 8.18779 9.42734 8.03218C9.00605 7.87658 8.62554 7.64965 8.2858 7.35141V14.4898C8.2858 15.1382 8.52362 15.6893 8.99926 16.1432C9.4749 16.597 10.0525 16.8239 10.732 16.8239ZM9.50888 12.9338C9.7399 12.9338 9.93355 12.8592 10.0898 12.7101C10.2461 12.561 10.3243 12.3762 10.3243 12.1558C10.3243 11.9353 10.2461 11.7505 10.0898 11.6014C9.93355 11.4523 9.7399 11.3777 9.50888 11.3777C9.27785 11.3777 9.0842 11.4523 8.92791 11.6014C8.77163 11.7505 8.69349 11.9353 8.69349 12.1558C8.69349 12.3762 8.77163 12.561 8.92791 12.7101C9.0842 12.8592 9.27785 12.9338 9.50888 12.9338ZM9.50888 10.5997C9.7399 10.5997 9.93355 10.5251 10.0898 10.376C10.2461 10.2269 10.3243 10.0421 10.3243 9.82166C10.3243 9.60121 10.2461 9.41643 10.0898 9.26731C9.93355 9.11819 9.7399 9.04362 9.50888 9.04362C9.27785 9.04362 9.0842 9.11819 8.92791 9.26731C8.77163 9.41643 8.69349 9.60121 8.69349 9.82166C8.69349 10.0421 8.77163 10.2269 8.92791 10.376C9.0842 10.5251 9.27785 10.5997 9.50888 10.5997ZM11.955 10.5997C12.1861 10.5997 12.3797 10.5251 12.536 10.376C12.6923 10.2269 12.7704 10.0421 12.7704 9.82166C12.7704 9.60121 12.6923 9.41643 12.536 9.26731C12.3797 9.11819 12.1861 9.04362 11.955 9.04362C11.724 9.04362 11.5303 9.11819 11.3741 9.26731C11.2178 9.41643 11.1396 9.60121 11.1396 9.82166C11.1396 10.0421 11.2178 10.2269 11.3741 10.376C11.5303 10.5251 11.724 10.5997 11.955 10.5997ZM11.955 12.9338C12.1861 12.9338 12.3797 12.8592 12.536 12.7101C12.6923 12.561 12.7704 12.3762 12.7704 12.1558C12.7704 11.9353 12.6923 11.7505 12.536 11.6014C12.3797 11.4523 12.1861 11.3777 11.955 11.3777C11.724 11.3777 11.5303 11.4523 11.3741 11.6014C11.2178 11.7505 11.1396 11.9353 11.1396 12.1558C11.1396 12.3762 11.2178 12.561 11.3741 12.7101C11.5303 12.8592 11.724 12.9338 11.955 12.9338ZM9.50888 15.2679C9.7399 15.2679 9.93355 15.1933 10.0898 15.0442C10.2461 14.8951 10.3243 14.7103 10.3243 14.4898C10.3243 14.2694 10.2461 14.0846 10.0898 13.9355C9.93355 13.7864 9.7399 13.7118 9.50888 13.7118C9.27785 13.7118 9.0842 13.7864 8.92791 13.9355C8.77163 14.0846 8.69349 14.2694 8.69349 14.4898C8.69349 14.7103 8.77163 14.8951 8.92791 15.0442C9.0842 15.1933 9.27785 15.2679 9.50888 15.2679ZM11.955 15.2679C12.1861 15.2679 12.3797 15.1933 12.536 15.0442C12.6923 14.8951 12.7704 14.7103 12.7704 14.4898C12.7704 14.2694 12.6923 14.0846 12.536 13.9355C12.3797 13.7864 12.1861 13.7118 11.955 13.7118C11.724 13.7118 11.5303 13.7864 11.3741 13.9355C11.2178 14.0846 11.1396 14.2694 11.1396 14.4898C11.1396 14.7103 11.2178 14.8951 11.3741 15.0442C11.5303 15.1933 11.724 15.2679 11.955 15.2679Z" fill="#F66C6A"/>
</svg>
