<svg width="320" height="314" viewBox="0 0 320 314" fill="none" xmlns="http://www.w3.org/2000/svg">
<g opacity="0.6">
<g filter="url(#filter0_f_46_312)">
<path d="M152.637 273.338V273.798H152.672L152.706 273.795L152.637 273.338ZM156.3 273.073L156.308 272.609H156.301H156.294L156.3 273.073ZM152.578 273.612L153.031 273.71L153.151 273.151H152.578V273.612ZM160.286 273.612V273.151H160.254L160.222 273.155L160.286 273.612ZM156.126 273.883L156.113 274.344H156.124H156.134L156.126 273.883ZM160.331 273.403L160.286 273.863H160.309H160.331V273.403ZM175.967 272.975C175.712 272.952 175.486 273.138 175.462 273.393C175.438 273.648 175.626 273.873 175.881 273.896L175.967 272.975ZM175.861 273.115C175.606 273.132 175.413 273.354 175.431 273.609C175.449 273.863 175.671 274.056 175.926 274.04L175.861 273.115ZM177.885 272.926C177.631 272.9 177.404 273.086 177.378 273.341C177.354 273.596 177.539 273.821 177.794 273.847L177.885 272.926ZM177.747 273.168C177.492 273.187 177.304 273.413 177.326 273.667C177.349 273.922 177.574 274.112 177.829 274.089L177.747 273.168ZM179.587 272.874C179.332 272.848 179.105 273.031 179.079 273.285C179.053 273.54 179.238 273.765 179.492 273.792L179.587 272.874ZM179.421 273.213C179.166 273.24 178.98 273.465 179.006 273.72C179.031 273.975 179.258 274.161 179.513 274.135L179.421 273.213ZM181.411 272.831C181.156 272.805 180.93 272.995 180.906 273.246C180.882 273.501 181.069 273.726 181.324 273.752L181.411 272.831ZM181.23 273.256C180.975 273.282 180.789 273.507 180.815 273.762C180.841 274.017 181.069 274.2 181.323 274.177L181.23 273.256ZM127.259 271.58H300.144V270.656H127.259V271.58ZM298.92 276.375H126.033V277.303H298.92V276.375ZM302.009 273.883C301.715 275.248 300.318 276.375 298.92 276.375V277.303C300.756 277.303 302.529 275.869 302.916 274.076L302.009 273.883ZM300.144 271.58C300.828 271.58 301.355 271.848 301.679 272.247C301.999 272.645 302.153 273.217 302.009 273.883L302.916 274.076C303.112 273.161 302.912 272.302 302.399 271.665C301.882 271.028 301.08 270.656 300.144 270.656V271.58ZM124.17 274.076C124.463 272.71 125.86 271.58 127.259 271.58V270.656C125.423 270.656 123.648 272.09 123.263 273.883L124.17 274.076ZM123.263 273.883C123.068 274.794 123.265 275.657 123.781 276.294C124.296 276.927 125.098 277.303 126.033 277.303V276.375C125.35 276.375 124.825 276.111 124.501 275.709C124.178 275.31 124.027 274.742 124.17 274.076L123.263 273.883ZM169.244 272.142H279.354V271.218H169.244V272.142ZM279.099 272.403H168.989V273.328H279.099V272.403ZM168.989 272.403C168.967 272.403 168.956 272.4 168.954 272.4C168.952 272.397 168.954 272.397 168.957 272.403C168.96 272.407 168.96 272.407 168.96 272.407C168.959 272.403 168.957 272.39 168.962 272.371L168.056 272.175C167.994 272.462 168.053 272.756 168.236 272.985C168.419 273.21 168.695 273.328 168.989 273.328V272.403ZM279.383 272.175C279.357 272.292 279.216 272.403 279.099 272.403V273.328C279.655 273.328 280.172 272.91 280.29 272.371L279.383 272.175ZM279.354 272.142C279.377 272.142 279.387 272.145 279.39 272.149C279.393 272.149 279.39 272.149 279.387 272.145C279.383 272.142 279.383 272.139 279.383 272.142C279.383 272.142 279.387 272.155 279.383 272.175L280.29 272.371C280.349 272.083 280.29 271.789 280.106 271.564C279.923 271.335 279.648 271.218 279.354 271.218V272.142ZM169.244 271.218C168.689 271.218 168.171 271.636 168.056 272.175L168.962 272.371C168.986 272.256 169.127 272.142 169.244 272.142V271.218ZM271.305 272.142H293.469V271.218H271.305V272.142ZM293.217 272.403H271.05V273.328H293.217V272.403ZM271.05 272.403C271.027 272.403 271.017 272.4 271.014 272.4C271.014 272.397 271.014 272.397 271.017 272.403C271.02 272.407 271.02 272.407 271.02 272.407C271.02 272.403 271.017 272.39 271.023 272.371L270.117 272.175C270.055 272.462 270.114 272.756 270.297 272.985C270.48 273.21 270.755 273.328 271.05 273.328V272.403ZM293.499 272.175C293.473 272.292 293.332 272.403 293.217 272.403V273.328C293.77 273.328 294.287 272.91 294.405 272.371L293.499 272.175ZM293.469 272.142C293.492 272.142 293.502 272.145 293.505 272.149C293.509 272.149 293.505 272.149 293.502 272.145C293.499 272.142 293.499 272.139 293.499 272.142C293.502 272.142 293.502 272.155 293.499 272.175L294.405 272.371C294.467 272.083 294.405 271.789 294.222 271.564C294.039 271.335 293.764 271.218 293.469 271.218V272.142ZM271.305 271.218C270.749 271.218 270.232 271.636 270.117 272.175L271.023 272.371C271.046 272.256 271.187 272.142 271.305 272.142V271.218ZM145.1 273.501H167.947V272.577H145.1V273.501ZM167.762 273.439H144.916V274.363H167.762V273.439ZM144.916 273.439C144.92 273.439 144.958 273.442 144.991 273.481C145.024 273.524 145.021 273.563 145.02 273.566L144.114 273.374C144.062 273.615 144.111 273.867 144.27 274.066C144.43 274.262 144.668 274.363 144.916 274.363V273.439ZM167.843 273.374C167.843 273.374 167.842 273.377 167.836 273.387C167.83 273.393 167.821 273.403 167.81 273.413C167.798 273.423 167.786 273.429 167.776 273.432C167.767 273.439 167.762 273.439 167.762 273.439V274.363C168.224 274.363 168.652 274.017 168.749 273.566L167.843 273.374ZM167.947 273.501C167.942 273.501 167.904 273.498 167.871 273.455C167.838 273.416 167.842 273.377 167.843 273.374L168.749 273.566C168.801 273.325 168.751 273.07 168.592 272.874C168.433 272.678 168.195 272.577 167.947 272.577V273.501ZM145.1 272.577C144.638 272.577 144.211 272.92 144.114 273.374L145.02 273.566C145.02 273.566 145.021 273.56 145.027 273.553C145.032 273.543 145.041 273.534 145.053 273.524C145.065 273.514 145.076 273.507 145.086 273.504C145.096 273.501 145.101 273.501 145.1 273.501V272.577ZM144.568 273.798H152.637V272.874H144.568V273.798ZM152.706 273.795C153.214 273.716 154.665 273.556 156.305 273.537L156.294 272.609C154.608 272.629 153.115 272.795 152.568 272.88L152.706 273.795ZM156.291 273.537C156.906 273.547 158.322 273.586 159.119 273.654L159.199 272.733C158.366 272.661 156.921 272.622 156.308 272.609L156.291 273.537ZM144.509 274.076H152.578V273.151H144.509V274.076ZM168.265 273.151H160.286V274.076H168.265V273.151ZM160.222 273.155C159.7 273.227 158.128 273.387 156.119 273.419L156.134 274.344C158.177 274.311 159.788 274.151 160.351 274.069L160.222 273.155ZM156.139 273.419C155.544 273.403 154.656 273.37 153.922 273.325C153.553 273.302 153.232 273.276 153.008 273.249C152.893 273.233 152.82 273.223 152.783 273.213C152.76 273.207 152.778 273.21 152.811 273.227C152.825 273.233 152.879 273.262 152.931 273.321C152.991 273.39 153.07 273.53 153.031 273.71L152.124 273.517C152.084 273.703 152.166 273.854 152.233 273.929C152.293 273.997 152.358 274.033 152.388 274.05C152.454 274.082 152.521 274.102 152.562 274.112C152.655 274.135 152.772 274.151 152.895 274.167C153.147 274.197 153.491 274.226 153.864 274.249C154.613 274.295 155.513 274.327 156.113 274.344L156.139 273.419ZM168.31 272.939H160.331V273.863H168.31V272.939ZM160.376 272.942C160.293 272.933 160.206 272.923 160.137 272.913C160.102 272.906 160.076 272.903 160.061 272.9C160.033 272.893 160.059 272.893 160.101 272.916C160.114 272.923 160.139 272.936 160.168 272.962C160.194 272.982 160.245 273.027 160.284 273.099C160.328 273.184 160.353 273.298 160.323 273.423C160.295 273.537 160.232 273.609 160.191 273.645C160.121 273.71 160.05 273.733 160.047 273.733C160.03 273.739 160.022 273.739 160.029 273.739C160.064 273.73 160.168 273.72 160.387 273.71L160.342 272.786C160.124 272.795 159.961 272.808 159.853 272.828C159.824 272.835 159.787 272.844 159.749 272.857C159.725 272.864 159.64 272.893 159.562 272.965C159.518 273.008 159.452 273.083 159.423 273.2C159.392 273.325 159.417 273.445 159.464 273.53C159.537 273.671 159.656 273.73 159.674 273.739C159.744 273.775 159.818 273.792 159.851 273.798C159.896 273.811 159.945 273.818 159.992 273.828C160.086 273.841 160.193 273.854 160.286 273.863L160.376 272.942ZM175.881 273.896C175.945 273.903 176.012 273.909 176.063 273.919C176.089 273.922 176.106 273.926 176.113 273.929C176.134 273.932 176.098 273.929 176.048 273.899C176.035 273.893 175.928 273.834 175.866 273.697C175.829 273.615 175.813 273.511 175.84 273.403C175.864 273.302 175.917 273.233 175.954 273.194C176.022 273.125 176.091 273.099 176.1 273.096C176.12 273.089 176.132 273.086 176.13 273.086C176.112 273.093 176.037 273.102 175.861 273.115L175.926 274.04C176.102 274.027 176.242 274.01 176.34 273.988C176.366 273.981 176.401 273.971 176.439 273.958C176.465 273.948 176.546 273.916 176.619 273.841C176.66 273.798 176.715 273.726 176.74 273.622C176.767 273.511 176.751 273.406 176.712 273.318C176.648 273.174 176.533 273.109 176.509 273.096C176.437 273.057 176.362 273.037 176.335 273.031C176.294 273.021 176.251 273.011 176.211 273.004C176.132 272.991 176.044 272.982 175.967 272.975L175.881 273.896ZM177.794 273.847C177.893 273.857 177.997 273.87 178.078 273.883C178.12 273.89 178.149 273.896 178.166 273.903C178.198 273.909 178.164 273.906 178.116 273.873C178.097 273.86 178 273.798 177.951 273.664C177.922 273.586 177.914 273.494 177.936 273.403C177.957 273.318 177.998 273.256 178.032 273.217C178.092 273.148 178.156 273.122 178.164 273.115C178.181 273.109 178.19 273.106 178.181 273.109C178.137 273.122 178.012 273.142 177.747 273.168L177.829 274.089C178.094 274.066 178.293 274.037 178.424 274.004C178.459 273.994 178.502 273.981 178.546 273.961C178.58 273.945 178.661 273.906 178.731 273.824C178.821 273.723 178.894 273.543 178.821 273.344C178.767 273.197 178.659 273.122 178.625 273.099C178.543 273.047 178.453 273.021 178.412 273.011C178.356 272.995 178.297 272.982 178.241 272.972C178.127 272.952 177.998 272.936 177.885 272.926L177.794 273.847ZM179.492 273.792C179.623 273.805 179.759 273.824 179.869 273.844C179.924 273.857 179.965 273.867 179.992 273.873C180.033 273.886 180.004 273.883 179.958 273.85C179.938 273.834 179.849 273.769 179.807 273.638C179.783 273.566 179.778 273.481 179.797 273.4C179.816 273.321 179.852 273.266 179.883 273.227C179.938 273.161 179.996 273.132 180.003 273.129C180.017 273.122 180.021 273.122 180.006 273.125C179.938 273.148 179.765 273.178 179.421 273.213L179.513 274.135C179.858 274.099 180.109 274.063 180.27 274.014C180.313 274.001 180.362 273.984 180.41 273.961C180.451 273.942 180.532 273.896 180.6 273.814C180.685 273.71 180.75 273.543 180.689 273.354C180.641 273.207 180.539 273.125 180.497 273.096C180.408 273.034 180.307 273.001 180.254 272.985C180.186 272.965 180.112 272.949 180.041 272.936C179.897 272.91 179.732 272.887 179.587 272.874L179.492 273.792ZM181.324 273.752C181.493 273.769 181.673 273.788 181.82 273.814C181.893 273.828 181.951 273.841 181.992 273.854C182.012 273.857 182.022 273.863 182.026 273.863C182.032 273.867 182.016 273.86 181.989 273.844C181.973 273.831 181.883 273.769 181.839 273.638C181.813 273.566 181.807 273.481 181.827 273.396C181.846 273.318 181.884 273.259 181.914 273.223C181.968 273.158 182.023 273.135 182.024 273.135C182.033 273.129 182.03 273.132 182.007 273.138C181.905 273.168 181.672 273.21 181.23 273.256L181.323 274.177C181.766 274.131 182.076 274.082 182.267 274.027C182.318 274.01 182.372 273.994 182.424 273.968C182.47 273.945 182.555 273.903 182.624 273.818C182.712 273.71 182.784 273.537 182.715 273.341C182.663 273.191 182.555 273.109 182.513 273.08C182.418 273.014 182.307 272.982 182.241 272.962C182.161 272.939 182.071 272.92 181.981 272.903C181.802 272.874 181.595 272.848 181.411 272.831L181.324 273.752Z" fill="#DF1919" fill-opacity="0.96"/>
</g>
<g filter="url(#filter1_f_46_312)">
<path d="M30.4479 266.458V266.921H30.4826L30.517 266.916L30.4479 266.458ZM34.1106 266.195L34.1188 265.733H34.1119H34.105L34.1106 266.195ZM30.3887 266.734L30.8419 266.831L30.9616 266.272H30.3887V266.734ZM38.0969 266.734V266.272H38.0645L38.0324 266.276L38.0969 266.734ZM33.9372 267.004L33.9244 267.467L33.9346 267.467L33.9447 267.467L33.9372 267.004ZM38.142 266.524L38.0972 266.984L38.1195 266.986H38.142V266.524ZM53.7776 266.097C53.5227 266.074 53.297 266.26 53.2731 266.515C53.2492 266.769 53.4367 266.995 53.6916 267.018L53.7776 266.097ZM53.6719 266.237C53.4167 266.255 53.2243 266.476 53.242 266.731C53.26 266.986 53.4815 267.178 53.7367 267.16L53.6719 266.237ZM55.696 266.047C55.4414 266.022 55.2147 266.207 55.1895 266.462C55.1643 266.716 55.3504 266.943 55.605 266.968L55.696 266.047ZM55.5582 266.288C55.303 266.311 55.1145 266.535 55.1371 266.789C55.1597 267.044 55.3845 267.232 55.6394 267.21L55.5582 266.288ZM57.3981 265.994C57.1435 265.968 56.9158 266.153 56.8896 266.407C56.8634 266.661 57.0486 266.888 57.3035 266.915L57.3981 265.994ZM57.2319 266.335C56.977 266.36 56.7911 266.587 56.8163 266.841C56.8418 267.095 57.0689 267.281 57.3235 267.256L57.2319 266.335ZM59.2219 265.952C58.967 265.928 58.7409 266.115 58.717 266.369C58.6928 266.624 58.88 266.849 59.1348 266.873L59.2219 265.952ZM59.0406 266.377C58.7857 266.402 58.6005 266.629 58.6264 266.884C58.6522 267.138 58.8793 267.323 59.1342 267.297L59.0406 266.377ZM5.0703 264.703H177.956V263.778H5.0703V264.703ZM176.73 269.5H3.84396V270.424H176.73V269.5ZM179.82 267.004C179.527 268.37 178.13 269.5 176.73 269.5V270.424C178.567 270.424 180.342 268.99 180.726 267.197L179.82 267.004ZM177.956 264.703C178.639 264.703 179.165 264.971 179.488 265.369C179.811 265.768 179.963 266.337 179.82 267.004L180.726 267.197C180.922 266.285 180.724 265.424 180.209 264.788C179.693 264.151 178.892 263.778 177.956 263.778V264.703ZM1.98056 267.197C2.2734 265.831 3.67087 264.703 5.0703 264.703V263.778C3.23373 263.778 1.45868 265.211 1.07422 267.004L1.98056 267.197ZM1.07422 267.004C0.87855 267.917 1.07618 268.778 1.59152 269.414C2.10686 270.052 2.9085 270.424 3.84396 270.424V269.5C3.16142 269.5 2.63529 269.231 2.31234 268.832C1.98907 268.433 1.83757 267.864 1.98056 267.197L1.07422 267.004ZM47.0546 265.264H157.165V264.339H47.0546V265.264ZM156.911 265.526H46.8001V266.451H156.911V265.526ZM46.8001 265.526C46.7778 265.526 46.7673 265.522 46.7651 265.521C46.7631 265.52 46.765 265.52 46.768 265.524C46.7709 265.527 46.7709 265.529 46.7706 265.527C46.77 265.525 46.768 265.514 46.7726 265.492L45.8662 265.298C45.8047 265.585 45.8639 265.879 46.0472 266.106C46.2304 266.332 46.5059 266.451 46.8001 266.451V265.526ZM157.193 265.298C157.168 265.412 157.028 265.526 156.911 265.526V266.451C157.465 266.451 157.983 266.033 158.099 265.492L157.193 265.298ZM157.165 265.264C157.187 265.264 157.198 265.268 157.2 265.269C157.203 265.27 157.2 265.27 157.197 265.266C157.195 265.263 157.194 265.26 157.195 265.263C157.195 265.265 157.197 265.276 157.193 265.298L158.099 265.492C158.161 265.204 158.101 264.91 157.918 264.684C157.735 264.458 157.459 264.339 157.165 264.339V265.264ZM47.0546 264.339C46.5004 264.339 45.9824 264.757 45.8662 265.298L46.7726 265.492C46.7971 265.377 46.9375 265.264 47.0546 265.264V264.339ZM149.115 265.264H171.281V264.339H149.115V265.264ZM171.027 265.526H148.86V266.451H171.027V265.526ZM148.86 265.526C148.838 265.526 148.828 265.522 148.825 265.521C148.823 265.52 148.825 265.52 148.828 265.524C148.831 265.527 148.831 265.529 148.83 265.527C148.83 265.525 148.828 265.514 148.833 265.492L147.926 265.298C147.865 265.585 147.924 265.879 148.107 266.106C148.291 266.332 148.566 266.451 148.86 266.451V265.526ZM171.309 265.298C171.284 265.412 171.144 265.526 171.027 265.526V266.451C171.581 266.451 172.099 266.033 172.215 265.492L171.309 265.298ZM171.281 265.264C171.304 265.264 171.314 265.268 171.316 265.269C171.319 265.27 171.316 265.27 171.313 265.266C171.311 265.263 171.31 265.26 171.311 265.263C171.311 265.265 171.313 265.276 171.309 265.298L172.215 265.492C172.277 265.204 172.217 264.91 172.034 264.684C171.851 264.458 171.575 264.339 171.281 264.339V265.264ZM149.115 264.339C148.561 264.339 148.042 264.757 147.926 265.298L148.833 265.492C148.857 265.377 148.998 265.264 149.115 265.264V264.339ZM22.9115 266.623H45.7576V265.697H22.9115V266.623ZM45.5727 266.559H22.7267V267.484H45.5727V266.559ZM22.7267 266.559C22.7312 266.559 22.7692 266.564 22.8019 266.605C22.835 266.645 22.8317 266.683 22.831 266.688L21.9247 266.494C21.8727 266.736 21.9221 266.99 22.0814 267.186C22.2408 267.383 22.4786 267.484 22.7267 267.484V266.559ZM45.6532 266.494C45.6536 266.494 45.6522 266.498 45.6467 266.507C45.6411 266.516 45.6323 266.526 45.6205 266.536C45.6087 266.545 45.597 266.552 45.5871 266.555C45.5777 266.559 45.5724 266.559 45.5727 266.559V267.484C46.0351 267.484 46.4631 267.139 46.5596 266.688L45.6532 266.494ZM45.7576 266.623C45.753 266.623 45.7154 266.618 45.6823 266.577C45.6493 266.536 45.6526 266.498 45.6532 266.494L46.5596 266.688C46.6116 266.445 46.5622 266.192 46.4028 265.995C46.2435 265.799 46.0056 265.697 45.7576 265.697V266.623ZM22.9115 265.697C22.4492 265.697 22.0212 266.043 21.9247 266.494L22.831 266.688C22.8307 266.688 22.832 266.683 22.8376 266.674C22.8432 266.665 22.852 266.655 22.8638 266.646C22.8755 266.636 22.8873 266.63 22.8971 266.626C22.9066 266.623 22.9119 266.623 22.9115 266.623V265.697ZM22.3789 266.921H30.4479V265.995H22.3789V266.921ZM30.517 266.916C31.0254 266.839 32.4756 266.677 34.1158 266.658L34.105 265.733C32.4193 265.752 30.9263 265.918 30.3786 266.001L30.517 266.916ZM34.1021 266.658C34.7163 266.669 36.133 266.708 36.9297 266.776L37.0096 265.855C36.1775 265.783 34.7319 265.743 34.1188 265.733L34.1021 266.658ZM22.3196 267.197H30.3887V266.272H22.3196V267.197ZM46.0756 266.272H38.0969V267.197H46.0756V266.272ZM38.0324 266.276C37.5112 266.349 35.939 266.508 33.9293 266.542L33.9447 267.467C35.9884 267.433 37.5986 267.271 38.1613 267.193L38.0324 266.276ZM33.9499 266.542C33.3551 266.525 32.4664 266.492 31.7325 266.447C31.3641 266.423 31.0428 266.398 30.819 266.37C30.7041 266.356 30.6312 266.344 30.5945 266.334C30.5709 266.329 30.589 266.331 30.622 266.348C30.6361 266.355 30.6894 266.383 30.7414 266.442C30.8016 266.511 30.8805 266.651 30.8419 266.831L29.9355 266.638C29.895 266.827 29.9764 266.975 30.0442 267.052C30.1037 267.12 30.1688 267.156 30.1992 267.171C30.2644 267.205 30.3314 267.223 30.373 267.233C30.4656 267.256 30.5834 267.274 30.7061 267.289C30.9584 267.32 31.3019 267.347 31.6749 267.37C32.4236 267.417 33.324 267.45 33.9244 267.467L33.9499 266.542ZM46.1208 266.061H38.142V266.986H46.1208V266.061ZM38.1869 266.063C38.1041 266.055 38.0174 266.045 37.9477 266.034C37.9127 266.028 37.8871 266.024 37.8714 266.02C37.8439 266.013 37.8698 266.017 37.9114 266.038C37.9251 266.045 37.95 266.059 37.9787 266.082C38.0053 266.103 38.0553 266.148 38.0946 266.222C38.1391 266.307 38.1643 266.421 38.1335 266.544C38.1054 266.657 38.0422 266.729 38.0023 266.767C37.9316 266.832 37.8613 266.853 37.858 266.854C37.841 266.86 37.8328 266.861 37.8397 266.86C37.8754 266.853 37.9788 266.841 38.1976 266.83L38.1532 265.906C37.9349 265.917 37.7713 265.93 37.6633 265.951C37.6345 265.957 37.5982 265.965 37.5603 265.978C37.5357 265.986 37.451 266.015 37.3728 266.087C37.3286 266.128 37.2632 266.204 37.234 266.321C37.2023 266.448 37.2282 266.566 37.2746 266.653C37.3473 266.792 37.4664 266.85 37.4853 266.86C37.5554 266.896 37.629 266.914 37.662 266.921C37.7072 266.932 37.7563 266.941 37.8027 266.948C37.897 266.963 38.0033 266.975 38.0972 266.984L38.1869 266.063ZM53.6916 267.018C53.756 267.024 53.8224 267.032 53.8741 267.041C53.9003 267.045 53.9167 267.048 53.9242 267.05C53.9451 267.055 53.9088 267.049 53.8591 267.021C53.846 267.014 53.7387 266.955 53.6775 266.819C53.6398 266.735 53.6241 266.632 53.6507 266.524C53.6752 266.424 53.7275 266.356 53.7655 266.317C53.8323 266.248 53.9016 266.222 53.9104 266.219C53.9307 266.211 53.9432 266.208 53.9409 266.209C53.9222 266.213 53.848 266.225 53.6719 266.237L53.7367 267.16C53.9124 267.148 54.0531 267.133 54.1506 267.11C54.1768 267.104 54.2121 267.095 54.2494 267.08C54.2756 267.07 54.3564 267.037 54.43 266.962C54.4713 266.919 54.5256 266.848 54.5508 266.744C54.5779 266.633 54.5619 266.527 54.523 266.44C54.4585 266.297 54.344 266.232 54.3198 266.218C54.2475 266.177 54.1732 266.158 54.1454 266.152C54.1045 266.141 54.0616 266.134 54.0223 266.127C53.9432 266.114 53.8545 266.104 53.7776 266.097L53.6916 267.018ZM55.605 266.968C55.7041 266.977 55.8072 266.99 55.8893 267.005C55.9306 267.012 55.9597 267.019 55.977 267.024C56.0084 267.032 55.9754 267.028 55.9263 266.996C55.908 266.984 55.8115 266.92 55.7617 266.785C55.7329 266.707 55.7248 266.617 55.7467 266.526C55.7676 266.439 55.8095 266.377 55.8432 266.338C55.9034 266.27 55.9662 266.242 55.9747 266.238C55.9921 266.231 56.0006 266.229 55.9918 266.231C55.9479 266.243 55.8226 266.265 55.5582 266.288L55.6394 267.21C55.9044 267.187 56.1033 267.16 56.2349 267.124C56.2702 267.115 56.3127 267.101 56.3563 267.082C56.3909 267.066 56.4714 267.027 56.5418 266.947C56.6314 266.844 56.7047 266.665 56.6318 266.466C56.5778 266.319 56.4705 266.245 56.4354 266.222C56.3533 266.168 56.2637 266.143 56.2224 266.131C56.1675 266.116 56.1079 266.104 56.0513 266.094C55.9378 266.074 55.8092 266.058 55.696 266.047L55.605 266.968ZM57.3035 266.915C57.4334 266.928 57.5702 266.946 57.6798 266.967C57.7351 266.977 57.7763 266.987 57.8028 266.995C57.8437 267.007 57.8153 267.004 57.7688 266.971C57.7485 266.956 57.6601 266.892 57.6176 266.76C57.5937 266.687 57.5888 266.604 57.6081 266.522C57.6271 266.444 57.6634 266.386 57.6942 266.349C57.7491 266.282 57.8071 266.254 57.8136 266.251C57.8277 266.244 57.8316 266.244 57.8169 266.249C57.7488 266.269 57.5764 266.301 57.2319 266.335L57.3235 267.256C57.6693 267.221 57.92 267.183 58.0806 267.135C58.1235 267.123 58.1725 267.106 58.2206 267.082C58.2615 267.063 58.3424 267.019 58.4111 266.935C58.4955 266.832 58.5603 266.663 58.4994 266.476C58.4516 266.328 58.3496 266.248 58.308 266.218C58.2187 266.155 58.1173 266.123 58.0643 266.107C57.9972 266.087 57.9232 266.071 57.8516 266.058C57.7076 266.03 57.5434 266.009 57.3981 265.994L57.3035 266.915ZM59.1348 266.873C59.304 266.889 59.484 266.911 59.6306 266.937C59.7042 266.951 59.7618 266.963 59.8023 266.974C59.8226 266.98 59.8334 266.984 59.8367 266.985C59.8432 266.988 59.8262 266.982 59.8 266.964C59.7843 266.953 59.694 266.892 59.6492 266.761C59.624 266.686 59.6181 266.602 59.6381 266.519C59.6571 266.439 59.6947 266.381 59.7251 266.345C59.7791 266.28 59.8337 266.256 59.8347 266.255C59.8436 266.251 59.8406 266.254 59.8174 266.26C59.716 266.29 59.4827 266.332 59.0406 266.377L59.1342 267.297C59.5772 267.252 59.8864 267.205 60.0785 267.148C60.1286 267.133 60.1835 267.115 60.2362 267.09C60.2807 267.068 60.3651 267.023 60.4361 266.938C60.5241 266.833 60.5935 266.658 60.5268 266.462C60.4751 266.311 60.3671 266.231 60.3239 266.201C60.2287 266.136 60.1177 266.102 60.052 266.083C59.9718 266.061 59.8818 266.042 59.7925 266.026C59.6129 265.994 59.4061 265.969 59.2219 265.952L59.1348 266.873Z" fill="black" fill-opacity="0.3"/>
</g>
</g>
<g filter="url(#filter2_f_46_312)">
<path d="M218.419 109.688L157.422 160.781L180.008 187.651L241.005 136.557L218.419 109.688Z" fill="black" fill-opacity="0.51"/>
</g>
<mask id="mask0_46_312" style="mask-type:luminance" maskUnits="userSpaceOnUse" x="26" y="0" width="176" height="204">
<path d="M201.271 98.3359L57.9399 0L26.6577 104.884L169.989 203.22L201.271 98.3359Z" fill="white"/>
</mask>
<g mask="url(#mask0_46_312)">
<g filter="url(#filter3_ii_46_312)">
<path d="M56.1366 6.04627L28.4611 98.8375C27.4651 102.177 28.9895 106.484 31.8659 108.457L164.78 199.646C167.657 201.62 170.796 200.513 171.792 197.173L199.467 104.382C200.463 101.043 198.939 96.736 196.062 94.7626L63.1482 3.57318C60.2717 1.59973 57.1325 2.70698 56.1366 6.04627Z" fill="#E90F12"/>
<path d="M56.1366 6.04627L28.4611 98.8375C27.4651 102.177 28.9895 106.484 31.8659 108.457L164.78 199.646C167.657 201.62 170.796 200.513 171.792 197.173L199.467 104.382C200.463 101.043 198.939 96.736 196.062 94.7626L63.1482 3.57318C60.2717 1.59973 57.1325 2.70698 56.1366 6.04627Z" fill="url(#paint0_radial_46_312)"/>
</g>
<path opacity="0.48" d="M176.522 106.849C178.314 100.838 175.57 93.0856 170.393 89.5334C165.215 85.9812 159.565 87.9742 157.772 93.985C155.979 99.9957 158.723 107.748 163.901 111.3C169.078 114.852 174.729 112.859 176.522 106.849Z" fill="#3A3A3A"/>
<path opacity="0.7" d="M187.841 114.615C189.634 108.604 186.89 100.852 181.712 97.2995C176.534 93.7473 170.884 95.7403 169.091 101.751C167.298 107.762 170.042 115.514 175.22 119.066C180.397 122.619 186.048 120.626 187.841 114.615Z" fill="#FF5C04"/>
<g filter="url(#filter4_d_46_312)">
<path d="M80.6724 57.9871L66.506 48.2679C65.1636 47.3469 63.6987 47.8636 63.2339 49.422L60.2042 59.5798C59.7395 61.1381 60.4509 63.148 61.7932 64.0689L75.9596 73.7882C77.3019 74.7091 78.7669 74.1924 79.2317 72.6341L82.2613 62.4762C82.7261 60.9179 82.0147 58.908 80.6724 57.9871Z" fill="url(#paint1_linear_46_312)"/>
</g>
<path d="M62.4233 52.0542L68.8936 56.4934C69.7388 55.3139 71.7884 53.0945 73.2242 53.6534C73.658 54.1933 74.5968 55.7088 74.8781 57.4514M60.9126 57.1195L67.383 61.5584C66.6347 64.0669 68.0158 67.2227 68.7997 68.4871C70.6016 68.9868 72.7265 66.9033 73.5641 65.7993L79.9618 70.1888M81.1129 66.3294L74.7149 61.9399C74.6138 61.1119 74.6419 59.3814 75.5662 59.0858" stroke="url(#paint2_linear_46_312)" stroke-width="0.772581"/>
<path d="M87.0389 71.1433C87.1259 71.7858 87.0942 73.2014 86.2693 73.723M88.8431 71.2642C88.9618 72.2682 88.8637 74.5608 87.5205 75.6981M90.4856 71.2259C90.6286 72.5703 90.4558 75.7017 88.6222 77.4737M92.1723 71.4605C92.3863 73.0802 92.222 76.9037 89.8521 79.2401" stroke="white" stroke-width="2.8328" stroke-linecap="round" stroke-linejoin="round"/>
<path d="M48.001 104.684L48.4587 99.0459L49.3382 99.6495L48.9675 103.483L50.758 100.623L51.7798 101.324L51.4968 105.288L53.1792 102.285L54.0443 102.878L51.537 107.11L50.6254 106.484L50.8797 102.209L48.9332 105.323L48.001 104.684ZM55.0211 108.128L55.7867 108.844C55.5789 109.118 55.3348 109.269 55.0541 109.295C54.776 109.321 54.4674 109.218 54.1288 108.985C53.5928 108.618 53.2565 108.142 53.1203 107.559C53.0143 107.094 53.0356 106.613 53.1835 106.116C53.3605 105.523 53.6324 105.151 53.9992 104.999C54.367 104.845 54.755 104.909 55.1634 105.189C55.6221 105.503 55.9313 105.928 56.0913 106.463C56.252 106.995 56.2183 107.62 55.9902 108.338L53.9462 106.936C53.8683 107.221 53.8686 107.485 53.9478 107.729C54.0273 107.97 54.1608 108.155 54.3487 108.284C54.4763 108.371 54.596 108.405 54.7069 108.383C54.8182 108.362 54.9229 108.277 55.0211 108.128ZM55.3531 107.203C55.4291 106.924 55.43 106.675 55.3561 106.454C55.2828 106.23 55.1631 106.061 54.9965 105.947C54.8185 105.825 54.649 105.799 54.488 105.87C54.3271 105.941 54.2089 106.106 54.1337 106.366L55.3531 107.203ZM56.2225 109.095L57.0847 109.511C57.0644 109.719 57.0932 109.908 57.1708 110.078C57.2493 110.245 57.3841 110.395 57.5758 110.526C57.7869 110.671 57.959 110.735 58.0921 110.718C58.1825 110.704 58.2433 110.645 58.2751 110.539C58.2963 110.467 58.2947 110.394 58.2701 110.32C58.243 110.248 58.1644 110.144 58.0346 110.008C57.4266 109.389 57.0556 108.949 56.9208 108.688C56.7346 108.328 56.6927 107.976 56.7955 107.632C56.8877 107.322 57.071 107.133 57.3448 107.067C57.619 107.001 57.9776 107.119 58.4206 107.424C58.8427 107.713 59.1323 108.008 59.29 108.308C59.4477 108.609 59.5184 108.941 59.5027 109.307L58.6841 108.944C58.6929 108.782 58.6618 108.632 58.5908 108.494C58.5221 108.358 58.4027 108.231 58.2322 108.114C58.0172 107.967 57.853 107.896 57.7394 107.902C57.6629 107.909 57.6128 107.952 57.5892 108.03C57.5693 108.098 57.5791 108.174 57.6193 108.258C57.674 108.371 57.9011 108.634 58.3006 109.046C58.7017 109.459 58.9638 109.809 59.0865 110.093C59.2066 110.378 59.2216 110.672 59.1317 110.973C59.0338 111.301 58.8319 111.501 58.5254 111.576C58.2188 111.649 57.8343 111.528 57.3716 111.21C56.9518 110.922 56.6482 110.595 56.4614 110.229C56.2765 109.863 56.197 109.486 56.2225 109.095ZM59.5151 112.584L60.9888 107.643L61.8046 108.202L60.3308 113.143L59.5151 112.584ZM63.2953 113.805L64.0609 114.521C63.8532 114.795 63.6091 114.945 63.3283 114.972C63.0502 114.998 62.7417 114.894 62.403 114.662C61.8667 114.294 61.5307 113.819 61.3946 113.236C61.2886 112.77 61.3095 112.289 61.4577 111.793C61.6344 111.2 61.9066 110.827 62.2734 110.676C62.6412 110.522 63.0289 110.585 63.4376 110.865C63.896 111.18 64.2055 111.605 64.3655 112.139C64.5259 112.672 64.4922 113.297 64.2641 114.015L62.2204 112.613C62.1426 112.897 62.1429 113.162 62.2217 113.405C62.3012 113.646 62.4351 113.832 62.6229 113.96C62.7505 114.048 62.8699 114.081 62.9812 114.06C63.0924 114.039 63.1971 113.954 63.2953 113.805ZM63.6271 112.879C63.703 112.601 63.7043 112.352 63.6303 112.13C63.557 111.907 63.4373 111.738 63.2707 111.624C63.0927 111.502 62.9229 111.476 62.7619 111.547C62.601 111.618 62.4828 111.783 62.4079 112.043L63.6271 112.879ZM65.161 112.145L66.029 112.741L66.0084 115.788L67.4864 113.741L68.3312 114.32L66.2152 117.018L65.8347 117.508C65.7008 117.668 65.5847 117.78 65.4859 117.845C65.3894 117.912 65.2883 117.949 65.1829 117.958C65.0789 117.971 64.9594 117.954 64.8239 117.907C64.6908 117.861 64.5468 117.785 64.3917 117.679C64.235 117.571 64.0868 117.447 63.9474 117.305L64.0959 116.514C64.215 116.631 64.3256 116.724 64.4284 116.795C64.6181 116.925 64.7778 116.956 64.9077 116.888C65.0366 116.823 65.1554 116.706 65.2634 116.539L65.161 112.145ZM69.4381 119.391L70.9118 114.451L72.1981 115.333L71.9651 119.233L73.7339 116.386L75.0228 117.271L73.5491 122.212L72.7507 121.664L73.911 117.775L71.9059 121.085L71.0787 120.517L71.3967 116.05L70.2365 119.939L69.4381 119.391Z" fill="white"/>
</g>
<path d="M139.16 153.811L140.082 154.29C139.893 154.564 139.82 154.808 139.863 155.021C139.908 155.236 140.063 155.429 140.33 155.6C140.612 155.782 140.874 155.869 141.115 155.861C141.36 155.853 141.55 155.782 141.685 155.647C141.771 155.561 141.813 155.468 141.812 155.369C141.814 155.27 141.763 155.149 141.657 155.008C141.585 154.912 141.404 154.708 141.116 154.396C140.744 153.995 140.535 153.663 140.488 153.398C140.423 153.025 140.534 152.694 140.823 152.406C141.009 152.22 141.244 152.087 141.529 152.006C141.818 151.925 142.122 151.917 142.441 151.984C142.763 152.052 143.09 152.194 143.424 152.409C143.968 152.76 144.277 153.124 144.35 153.502C144.426 153.881 144.303 154.242 143.982 154.586L143.073 154.054C143.223 153.842 143.277 153.656 143.234 153.494C143.195 153.332 143.052 153.172 142.805 153.013C142.55 152.849 142.307 152.764 142.075 152.759C141.926 152.756 141.804 152.802 141.71 152.896C141.624 152.983 141.593 153.084 141.619 153.202C141.651 153.351 141.838 153.605 142.18 153.965C142.521 154.324 142.748 154.615 142.86 154.837C142.975 155.059 143.011 155.286 142.968 155.517C142.929 155.748 142.793 155.979 142.563 156.21C142.354 156.419 142.089 156.57 141.769 156.664C141.448 156.757 141.117 156.767 140.775 156.694C140.434 156.619 140.075 156.46 139.699 156.217C139.15 155.863 138.835 155.485 138.754 155.084C138.674 154.68 138.81 154.256 139.16 153.811ZM144.689 156.308L144.049 155.707C144.39 155.506 144.725 155.411 145.054 155.421C145.384 155.432 145.753 155.569 146.162 155.833C146.533 156.072 146.772 156.287 146.878 156.479C146.987 156.669 147.02 156.845 146.979 157.006C146.941 157.168 146.77 157.4 146.467 157.704L145.641 158.514C145.409 158.747 145.25 158.927 145.165 159.055C145.083 159.182 145.016 159.332 144.963 159.505L144.14 158.975C144.164 158.914 144.207 158.828 144.267 158.716C144.294 158.666 144.312 158.633 144.319 158.615C144.061 158.64 143.822 158.629 143.602 158.583C143.382 158.537 143.181 158.454 142.997 158.336C142.674 158.127 142.492 157.889 142.452 157.62C142.414 157.353 142.509 157.107 142.734 156.881C142.883 156.732 143.059 156.626 143.259 156.565C143.462 156.502 143.67 156.488 143.883 156.525C144.1 156.561 144.376 156.649 144.71 156.788C145.16 156.977 145.487 157.093 145.69 157.137L145.76 157.067C145.894 156.933 145.95 156.812 145.927 156.705C145.906 156.596 145.786 156.471 145.567 156.329C145.42 156.234 145.279 156.185 145.147 156.181C145.016 156.176 144.863 156.218 144.689 156.308ZM145.234 157.593C145.098 157.554 144.894 157.481 144.621 157.373C144.349 157.266 144.158 157.209 144.047 157.203C143.874 157.198 143.737 157.245 143.638 157.345C143.54 157.443 143.499 157.555 143.514 157.683C143.529 157.81 143.604 157.917 143.738 158.003C143.888 158.1 144.073 158.151 144.292 158.156C144.456 158.158 144.599 158.123 144.722 158.052C144.803 158.006 144.928 157.9 145.095 157.732L145.234 157.593ZM148.463 161.763L147.631 161.226L148.98 159.877C149.266 159.592 149.432 159.396 149.479 159.29C149.529 159.183 149.536 159.08 149.501 158.981C149.469 158.884 149.396 158.799 149.284 158.726C149.14 158.634 148.978 158.584 148.797 158.576C148.616 158.568 148.449 158.606 148.296 158.687C148.146 158.77 147.922 158.959 147.627 159.254L146.43 160.451L145.599 159.916L148.241 157.272L149.014 157.77L148.626 158.158C149.198 158.036 149.693 158.11 150.109 158.378C150.293 158.497 150.432 158.633 150.528 158.787C150.625 158.94 150.669 159.084 150.659 159.22C150.652 159.357 150.608 159.49 150.528 159.619C150.45 159.749 150.309 159.916 150.105 160.12L148.463 161.763ZM153.393 160.594L152.836 161.152L152.268 160.786L151.202 161.851C150.987 162.067 150.866 162.196 150.839 162.239C150.816 162.281 150.812 162.326 150.826 162.373C150.842 162.422 150.878 162.464 150.933 162.5C151.01 162.549 151.144 162.599 151.334 162.648L150.863 163.237C150.6 163.182 150.346 163.075 150.102 162.918C149.952 162.821 149.837 162.713 149.759 162.594C149.681 162.473 149.647 162.361 149.657 162.258C149.669 162.154 149.722 162.038 149.815 161.91C149.878 161.817 150.034 161.647 150.281 161.4L151.433 160.247L151.051 160.001L151.609 159.444L151.99 159.69L152.516 159.165L153.758 159.295L152.825 160.228L153.393 160.594ZM153.785 162.173L153.145 161.572C153.485 161.372 153.82 161.277 154.15 161.287C154.48 161.298 154.849 161.435 155.258 161.699C155.629 161.938 155.867 162.153 155.974 162.345C156.083 162.535 156.116 162.711 156.075 162.872C156.037 163.033 155.866 163.266 155.562 163.57L154.737 164.38C154.505 164.613 154.346 164.793 154.261 164.92C154.179 165.048 154.111 165.198 154.058 165.371L153.236 164.841C153.261 164.78 153.303 164.694 153.362 164.583C153.39 164.532 153.408 164.498 153.415 164.481C153.157 164.506 152.918 164.495 152.698 164.449C152.478 164.402 152.276 164.32 152.093 164.202C151.77 163.993 151.588 163.755 151.548 163.486C151.51 163.219 151.604 162.972 151.83 162.747C151.979 162.597 152.154 162.492 152.355 162.431C152.558 162.367 152.766 162.354 152.979 162.391C153.196 162.427 153.472 162.515 153.806 162.654C154.256 162.843 154.583 162.96 154.786 163.003L154.855 162.934C154.99 162.799 155.046 162.678 155.023 162.571C155.002 162.462 154.883 162.337 154.663 162.196C154.515 162.1 154.375 162.051 154.243 162.047C154.112 162.042 153.959 162.084 153.785 162.173ZM154.33 163.459C154.194 163.42 153.99 163.347 153.717 163.239C153.445 163.132 153.253 163.075 153.142 163.069C152.969 163.064 152.833 163.111 152.733 163.211C152.636 163.309 152.594 163.421 152.61 163.549C152.625 163.676 152.7 163.783 152.834 163.869C152.984 163.966 153.169 164.017 153.388 164.022C153.551 164.024 153.694 163.989 153.818 163.918C153.899 163.872 154.023 163.765 154.191 163.598L154.33 163.459ZM157.559 167.628L156.727 167.092L158.076 165.743C158.361 165.458 158.528 165.262 158.575 165.157C158.624 165.049 158.632 164.946 158.597 164.847C158.565 164.75 158.493 164.665 158.38 164.592C158.236 164.499 158.073 164.449 157.893 164.442C157.712 164.435 157.545 164.472 157.392 164.553C157.241 164.636 157.018 164.825 156.723 165.12L155.526 166.318L154.694 165.781L157.337 163.138L158.11 163.636L157.721 164.024C158.294 163.903 158.789 163.976 159.205 164.244C159.388 164.363 159.528 164.499 159.623 164.653C159.721 164.806 159.764 164.95 159.755 165.086C159.748 165.224 159.704 165.356 159.624 165.485C159.546 165.615 159.405 165.782 159.201 165.986L157.559 167.628ZM161.287 170.033L160.515 169.535L160.903 169.147C160.624 169.215 160.359 169.23 160.109 169.191C159.862 169.152 159.65 169.076 159.473 168.961C159.112 168.728 158.924 168.406 158.909 167.996C158.899 167.585 159.112 167.16 159.55 166.722C159.998 166.275 160.463 166.015 160.946 165.944C161.43 165.872 161.864 165.959 162.247 166.206C162.598 166.432 162.779 166.751 162.79 167.162L164.104 165.848L164.935 166.384L161.287 170.033ZM160.447 167.223C160.165 167.505 160.007 167.739 159.973 167.925C159.925 168.194 160.021 168.406 160.262 168.561C160.453 168.685 160.684 168.722 160.954 168.672C161.226 168.621 161.498 168.459 161.77 168.187C162.074 167.883 162.227 167.623 162.229 167.406C162.233 167.188 162.134 167.013 161.931 166.882C161.733 166.755 161.501 166.715 161.234 166.761C160.971 166.807 160.709 166.961 160.447 167.223ZM164.771 170.896L165.482 171.547C165.12 171.734 164.756 171.82 164.391 171.806C164.03 171.791 163.676 171.672 163.331 171.45C162.785 171.097 162.531 170.686 162.568 170.217C162.602 169.842 162.802 169.472 163.169 169.105C163.607 168.667 164.085 168.412 164.605 168.341C165.126 168.267 165.594 168.365 166.011 168.633C166.478 168.935 166.717 169.303 166.727 169.738C166.738 170.171 166.47 170.652 165.922 171.18L163.839 169.836C163.638 170.048 163.543 170.253 163.555 170.452C163.569 170.649 163.671 170.809 163.863 170.933C163.993 171.017 164.132 171.057 164.281 171.055C164.429 171.052 164.593 170.999 164.771 170.896ZM165.525 170.219C165.721 170.013 165.812 169.819 165.799 169.639C165.786 169.456 165.696 169.31 165.526 169.201C165.344 169.084 165.139 169.043 164.909 169.077C164.68 169.112 164.471 169.226 164.282 169.418L165.525 170.219ZM166.279 173.252L165.448 172.716L168.09 170.073L168.862 170.571L168.487 170.947C168.796 170.854 169.032 170.814 169.193 170.824C169.356 170.837 169.504 170.886 169.638 170.973C169.828 171.095 169.966 171.257 170.054 171.458L169.187 171.901C169.123 171.735 169.031 171.613 168.911 171.535C168.794 171.46 168.668 171.424 168.533 171.426C168.399 171.427 168.238 171.483 168.049 171.594C167.863 171.705 167.545 171.986 167.095 172.436L166.279 173.252Z" fill="white"/>
<path d="M136.533 161.369L137.156 162.143C136.628 162.458 136.115 162.614 135.617 162.612C135.123 162.61 134.643 162.459 134.177 162.159C133.601 161.787 133.293 161.317 133.252 160.747C133.213 160.176 133.481 159.604 134.055 159.03C134.662 158.422 135.319 158.071 136.027 157.976C136.737 157.88 137.396 158.028 138.003 158.419C138.534 158.762 138.833 159.172 138.9 159.649C138.942 159.932 138.866 160.252 138.672 160.608L137.631 160.222C137.769 160 137.811 159.782 137.757 159.567C137.705 159.353 137.562 159.171 137.329 159.02C137.008 158.813 136.649 158.742 136.254 158.806C135.86 158.872 135.447 159.122 135.012 159.557C134.551 160.018 134.321 160.41 134.322 160.733C134.324 161.056 134.482 161.32 134.798 161.523C135.031 161.673 135.293 161.74 135.585 161.724C135.877 161.708 136.194 161.589 136.533 161.369ZM137.956 162.258C138.189 162.026 138.482 161.845 138.835 161.715C139.188 161.586 139.547 161.544 139.91 161.59C140.275 161.637 140.611 161.76 140.919 161.958C141.394 162.265 141.654 162.646 141.697 163.102C141.742 163.557 141.566 163.983 141.17 164.379C140.77 164.78 140.284 165.012 139.713 165.077C139.145 165.142 138.628 165.025 138.163 164.725C137.875 164.539 137.654 164.307 137.501 164.028C137.35 163.75 137.312 163.463 137.387 163.164C137.463 162.864 137.653 162.562 137.956 162.258ZM138.771 162.845C138.509 163.107 138.382 163.356 138.391 163.591C138.4 163.825 138.512 164.013 138.729 164.153C138.947 164.293 139.198 164.34 139.483 164.295C139.77 164.251 140.047 164.096 140.312 163.83C140.571 163.572 140.696 163.325 140.687 163.09C140.681 162.856 140.569 162.67 140.352 162.53C140.135 162.39 139.883 162.342 139.595 162.386C139.308 162.43 139.034 162.583 138.771 162.845ZM143.377 167.989L142.604 167.491L142.993 167.103C142.714 167.171 142.449 167.186 142.199 167.147C141.952 167.108 141.74 167.032 141.563 166.917C141.201 166.684 141.014 166.363 140.999 165.952C140.988 165.541 141.202 165.117 141.64 164.679C142.088 164.231 142.553 163.971 143.036 163.9C143.52 163.828 143.954 163.915 144.337 164.162C144.688 164.389 144.869 164.707 144.88 165.118L146.193 163.804L147.025 164.34L143.377 167.989ZM142.536 165.179C142.254 165.461 142.097 165.695 142.063 165.881C142.015 166.15 142.111 166.362 142.351 166.517C142.543 166.641 142.774 166.678 143.044 166.628C143.316 166.577 143.588 166.415 143.86 166.143C144.163 165.839 144.316 165.579 144.319 165.363C144.323 165.144 144.224 164.969 144.02 164.838C143.823 164.711 143.591 164.671 143.324 164.717C143.061 164.763 142.798 164.917 142.536 165.179ZM146.86 168.852L147.572 169.503C147.21 169.69 146.846 169.776 146.481 169.762C146.119 169.747 145.766 169.628 145.421 169.406C144.874 169.053 144.62 168.642 144.658 168.173C144.692 167.799 144.891 167.428 145.258 167.061C145.696 166.623 146.175 166.368 146.694 166.297C147.216 166.223 147.684 166.321 148.1 166.589C148.568 166.891 148.806 167.259 148.816 167.694C148.828 168.127 148.56 168.608 148.012 169.136L145.929 167.793C145.727 168.004 145.633 168.209 145.645 168.408C145.658 168.605 145.761 168.765 145.952 168.889C146.082 168.972 146.222 169.013 146.37 169.011C146.519 169.008 146.682 168.955 146.86 168.852ZM147.614 168.176C147.811 167.969 147.902 167.776 147.888 167.595C147.876 167.412 147.785 167.266 147.615 167.157C147.434 167.04 147.229 166.999 146.999 167.034C146.77 167.069 146.561 167.182 146.372 167.374L147.614 168.176ZM148.369 171.208L147.537 170.672L150.18 168.029L150.952 168.527L150.577 168.903C150.886 168.81 151.121 168.77 151.282 168.781C151.445 168.793 151.594 168.842 151.728 168.929C151.917 169.051 152.056 169.213 152.144 169.414L151.276 169.858C151.213 169.691 151.121 169.569 151 169.491C150.884 169.416 150.758 169.38 150.622 169.382C150.488 169.383 150.327 169.439 150.139 169.55C149.952 169.661 149.635 169.942 149.185 170.392L148.369 171.208Z" fill="#040404"/>
<mask id="mask1_46_312" style="mask-type:luminance" maskUnits="userSpaceOnUse" x="142" y="127" width="42" height="42">
<path d="M183.757 140.666L156.314 127.193L142.817 154.588L170.26 168.061L183.757 140.666Z" fill="white"/>
</mask>
<g mask="url(#mask1_46_312)">
<path fill-rule="evenodd" clip-rule="evenodd" d="M169.955 145.765C169.98 144.294 169.178 136.495 169.698 135.219C168.747 135.805 167.971 136.634 167.45 137.62C166.929 138.607 166.683 139.715 166.737 140.829L167.103 147.722C167.157 148.836 166.911 149.944 166.39 150.93C165.869 151.917 165.093 152.746 164.142 153.331C164.314 152.7 164.385 152.046 164.352 151.393C164.384 149.971 163.458 140.294 164.003 139.123C163.056 139.708 162.282 140.534 161.761 141.516C161.241 142.499 160.993 143.602 161.042 144.713L161.413 151.64C161.467 152.754 161.221 153.862 160.701 154.849C160.18 155.836 159.404 156.666 158.453 157.251C158.973 156.03 158.179 148.122 158.196 146.704C158.137 145.562 158.396 144.427 158.946 143.425C144.917 141.039 145.986 153.165 157.862 158.846C169.623 164.761 179.896 158.212 169.438 148.576C169.829 147.692 170.006 146.73 169.955 145.765Z" fill="#040404"/>
</g>
<mask id="mask2_46_312" style="mask-type:luminance" maskUnits="userSpaceOnUse" x="127" y="74" width="185" height="210">
<path d="M259.684 74.1446L127.435 186.898L179.609 283.143L311.858 170.39L259.684 74.1446Z" fill="white"/>
</mask>
<g mask="url(#mask2_46_312)">
<g filter="url(#filter5_ii_46_312)">
<path d="M130.443 192.446L176.602 277.595C178.263 280.659 181.761 281.309 184.415 279.046L307.053 174.487C309.707 172.224 310.512 167.906 308.851 164.842L262.692 79.6931C261.03 76.6288 257.532 75.9791 254.878 78.2419L132.241 182.801C129.587 185.063 128.782 189.382 130.443 192.446Z" fill="#E70A0D"/>
<path d="M130.443 192.446L176.602 277.595C178.263 280.659 181.761 281.309 184.415 279.046L307.053 174.487C309.707 172.224 310.512 167.906 308.851 164.842L262.692 79.6931C261.03 76.6288 257.532 75.9791 254.878 78.2419L132.241 182.801C129.587 185.063 128.782 189.382 130.443 192.446Z" fill="url(#paint3_radial_46_312)"/>
</g>
<path opacity="0.48" d="M253.201 108.068C250.211 102.552 243.914 101.382 239.137 105.455C234.36 109.528 232.911 117.302 235.901 122.817C238.891 128.333 245.188 129.503 249.965 125.43C254.742 121.356 256.191 113.583 253.201 108.068Z" fill="#3A3A3A"/>
<path opacity="0.7" d="M263.645 99.1631C260.655 93.6474 254.358 92.4779 249.581 96.5509C244.804 100.624 243.355 108.397 246.345 113.913C249.335 119.428 255.632 120.598 260.409 116.525C265.186 112.452 266.635 104.679 263.645 99.1631Z" fill="#FF5C04"/>
<g filter="url(#filter6_d_46_312)">
<path d="M175.6 193.05L162.529 204.194C161.29 205.25 160.915 207.265 161.69 208.695L166.743 218.016C167.518 219.446 169.151 219.75 170.389 218.694L183.46 207.549C184.699 206.493 185.074 204.478 184.299 203.048L179.246 193.727C178.471 192.297 176.839 191.994 175.6 193.05Z" fill="url(#paint4_linear_46_312)"/>
</g>
<path d="M162.987 211.141L168.956 206.051C168.608 204.388 168.174 200.721 169.225 199.35C169.781 199.145 171.206 198.901 172.459 199.559M165.506 215.789L171.476 210.699C172.724 213.001 175.415 213.167 176.604 212.962C177.794 211.127 177.483 207.447 177.179 205.837L183.082 200.804M181.163 197.262L175.26 202.295C174.679 201.945 173.583 200.93 173.84 199.676" stroke="url(#paint5_linear_46_312)" stroke-width="0.772581"/>
<path d="M187.11 193.025C187.565 193.287 188.458 194.127 188.393 195.392M188.059 190.973C188.759 191.402 190.183 192.818 190.264 195.041M188.828 189.02C189.757 189.614 191.684 191.593 191.936 194.753M189.793 187.17C190.935 187.836 193.307 190.198 193.661 194.308" stroke="white" stroke-width="2.8328" stroke-linecap="round" stroke-linejoin="round"/>
<path d="M189.783 257.937L186.387 254.203L187.198 253.511L189.479 256.12L188.507 252.394L189.453 251.59L191.858 254.17L190.742 250.489L191.54 249.809L193.045 255.156L192.204 255.873L189.583 253.15L190.644 257.204L189.783 257.937ZM195.378 251.637L196.209 251.143C196.285 251.543 196.262 251.915 196.144 252.26C196.026 252.602 195.81 252.906 195.499 253.172C195.005 253.594 194.537 253.719 194.096 253.549C193.749 253.41 193.448 253.112 193.202 252.656C192.908 252.112 192.8 251.581 192.878 251.064C192.957 250.545 193.186 250.124 193.562 249.803C193.984 249.442 194.406 249.319 194.828 249.435C195.247 249.548 195.63 249.941 195.98 250.617L194.096 252.225C194.24 252.478 194.41 252.627 194.606 252.672C194.799 252.716 194.982 252.664 195.156 252.516C195.273 252.415 195.352 252.294 195.391 252.151C195.431 252.008 195.427 251.837 195.378 251.637ZM194.946 250.722C194.806 250.475 194.645 250.332 194.469 250.294C194.289 250.253 194.122 250.298 193.968 250.429C193.804 250.569 193.706 250.754 193.673 250.983C193.641 251.213 193.69 251.446 193.821 251.681L194.946 250.722ZM196.579 250.772L197.263 249.995C197.387 250.137 197.521 250.21 197.669 250.215C197.813 250.218 197.973 250.144 198.15 249.993C198.346 249.827 198.47 249.661 198.523 249.495C198.559 249.381 198.549 249.275 198.496 249.178C198.46 249.113 198.411 249.073 198.352 249.06C198.294 249.051 198.189 249.084 198.038 249.161C197.348 249.523 196.887 249.711 196.654 249.721C196.334 249.736 196.088 249.585 195.918 249.27C195.764 248.985 195.732 248.663 195.82 248.303C195.912 247.944 196.16 247.589 196.569 247.241C196.959 246.909 197.286 246.735 197.554 246.72C197.822 246.705 198.071 246.81 198.297 247.036L197.672 247.793C197.57 247.691 197.459 247.643 197.338 247.648C197.217 247.651 197.076 247.72 196.919 247.854C196.723 248.023 196.599 248.176 196.546 248.313C196.514 248.407 196.517 248.49 196.556 248.562C196.589 248.624 196.644 248.656 196.716 248.656C196.815 248.656 197.093 248.538 197.551 248.302C198.009 248.065 198.359 247.955 198.601 247.972C198.843 247.992 199.04 248.141 199.187 248.417C199.35 248.718 199.383 249.07 199.282 249.472C199.18 249.874 198.918 250.257 198.49 250.621C198.104 250.951 197.747 251.123 197.423 251.135C197.099 251.145 196.818 251.024 196.579 250.772ZM200.407 248.88L197.947 244.346L198.699 243.704L201.16 248.238L200.407 248.88ZM203.015 245.128L203.843 244.634C203.918 245.034 203.898 245.406 203.777 245.751C203.66 246.093 203.447 246.397 203.133 246.663C202.639 247.085 202.171 247.211 201.732 247.04C201.382 246.901 201.085 246.603 200.836 246.148C200.541 245.603 200.433 245.072 200.515 244.555C200.594 244.036 200.82 243.615 201.196 243.294C201.621 242.933 202.043 242.811 202.462 242.926C202.881 243.039 203.267 243.433 203.617 244.108L201.729 245.716C201.876 245.969 202.047 246.118 202.24 246.163C202.433 246.207 202.616 246.155 202.789 246.007C202.907 245.906 202.986 245.785 203.025 245.642C203.067 245.499 203.061 245.328 203.015 245.128ZM202.58 244.213C202.439 243.966 202.279 243.823 202.102 243.785C201.922 243.744 201.755 243.789 201.602 243.92C201.438 244.06 201.34 244.245 201.307 244.475C201.274 244.704 201.323 244.937 201.454 245.172L202.58 244.213ZM202.851 241.993L203.65 241.311L205.597 243.062L204.995 240.164L205.777 239.5L206.483 243.517L206.614 244.242C206.653 244.49 206.67 244.691 206.663 244.843C206.657 244.995 206.634 245.135 206.588 245.264C206.546 245.393 206.477 245.524 206.382 245.656C206.29 245.787 206.172 245.914 206.029 246.035C205.885 246.159 205.731 246.262 205.574 246.346L205.139 245.723C205.269 245.649 205.384 245.572 205.479 245.491C205.652 245.342 205.75 245.172 205.77 244.981C205.79 244.792 205.773 244.586 205.718 244.365L202.851 241.993ZM209.562 241.074L207.105 236.539L208.289 235.528L210.681 238.013L209.706 234.32L210.897 233.305L213.355 237.84L212.618 238.468L210.685 234.899L211.84 239.132L211.074 239.783L208.365 236.876L210.298 240.445L209.562 241.074Z" fill="white"/>
</g>
<path d="M267.68 181.963L268.406 181.219C268.615 181.478 268.828 181.618 269.044 181.638C269.263 181.656 269.492 181.563 269.734 181.357C269.99 181.139 270.147 180.914 270.209 180.68C270.271 180.444 270.258 180.241 270.166 180.075C270.107 179.967 270.032 179.9 269.937 179.873C269.842 179.843 269.712 179.857 269.545 179.917C269.433 179.96 269.185 180.074 268.802 180.261C268.311 180.501 267.932 180.606 267.667 180.575C267.29 180.531 267.002 180.33 266.809 179.971C266.685 179.74 266.623 179.477 266.626 179.181C266.633 178.881 266.711 178.588 266.868 178.302C267.025 178.014 267.254 177.741 267.555 177.484C268.049 177.064 268.488 176.873 268.871 176.911C269.257 176.947 269.568 177.168 269.806 177.574L269.034 178.29C268.874 178.086 268.71 177.982 268.543 177.976C268.377 177.968 268.184 178.059 267.958 178.249C267.729 178.445 267.578 178.654 267.506 178.874C267.46 179.016 267.47 179.145 267.532 179.263C267.591 179.37 267.68 179.428 267.801 179.438C267.955 179.449 268.252 179.343 268.694 179.12C269.136 178.896 269.479 178.762 269.725 178.719C269.973 178.672 270.199 178.702 270.409 178.81C270.621 178.914 270.801 179.109 270.958 179.396C271.099 179.655 271.168 179.952 271.168 180.285C271.164 180.619 271.079 180.939 270.912 181.245C270.742 181.549 270.487 181.846 270.147 182.137C269.649 182.561 269.195 182.754 268.786 182.716C268.377 182.677 268.007 182.426 267.68 181.963ZM271.662 177.39L270.899 177.83C270.804 177.447 270.811 177.099 270.916 176.787C271.02 176.475 271.256 176.161 271.626 175.845C271.963 175.559 272.238 175.392 272.454 175.345C272.666 175.296 272.843 175.314 272.987 175.4C273.131 175.483 273.304 175.712 273.51 176.089L274.05 177.111C274.207 177.4 274.335 177.603 274.433 177.721C274.531 177.836 274.656 177.944 274.809 178.044L274.063 178.679C274.011 178.638 273.942 178.573 273.851 178.484C273.811 178.443 273.785 178.417 273.769 178.405C273.72 178.659 273.641 178.884 273.533 179.081C273.425 179.278 273.288 179.447 273.124 179.589C272.83 179.839 272.548 179.944 272.28 179.905C272.012 179.865 271.802 179.705 271.652 179.424C271.55 179.238 271.498 179.041 271.498 178.831C271.495 178.619 271.544 178.417 271.639 178.223C271.737 178.026 271.897 177.787 272.126 177.507C272.437 177.131 272.643 176.852 272.745 176.67L272.696 176.584C272.607 176.417 272.506 176.329 272.398 176.319C272.287 176.308 272.133 176.387 271.933 176.556C271.799 176.67 271.711 176.79 271.671 176.916C271.629 177.04 271.626 177.198 271.662 177.39ZM273.049 177.237C272.974 177.356 272.846 177.53 272.663 177.76C272.483 177.99 272.375 178.157 272.336 178.261C272.283 178.425 272.287 178.569 272.355 178.693C272.421 178.814 272.519 178.886 272.643 178.908C272.771 178.929 272.895 178.888 273.016 178.785C273.15 178.669 273.255 178.507 273.321 178.299C273.37 178.143 273.376 177.996 273.344 177.858C273.324 177.767 273.258 177.618 273.144 177.41L273.049 177.237ZM277.977 175.342L277.224 175.984L276.314 174.308C276.125 173.953 275.984 173.738 275.896 173.662C275.807 173.585 275.709 173.548 275.604 173.553C275.503 173.556 275.398 173.601 275.297 173.688C275.166 173.799 275.074 173.94 275.016 174.11C274.957 174.281 274.944 174.451 274.976 174.621C275.012 174.789 275.13 175.057 275.33 175.424L276.138 176.911L275.385 177.553L273.602 174.268L274.302 173.672L274.564 174.155C274.61 173.572 274.822 173.12 275.199 172.799C275.366 172.657 275.536 172.563 275.712 172.516C275.886 172.466 276.036 172.466 276.164 172.514C276.295 172.56 276.409 172.64 276.511 172.753C276.612 172.865 276.733 173.048 276.871 173.301L277.977 175.342ZM278.268 170.292L278.644 170.985L278.127 171.424L278.847 172.747C278.991 173.016 279.079 173.168 279.115 173.206C279.148 173.24 279.191 173.257 279.24 173.257C279.292 173.256 279.341 173.233 279.393 173.191C279.462 173.131 279.547 173.017 279.649 172.849L280.081 173.469C279.95 173.704 279.776 173.917 279.554 174.105C279.42 174.221 279.282 174.3 279.145 174.341C279.007 174.381 278.89 174.381 278.795 174.343C278.7 174.301 278.602 174.217 278.507 174.091C278.435 174.004 278.317 173.807 278.15 173.5L277.375 172.068L277.028 172.362L276.652 171.67L276.998 171.375L276.645 170.722L277.123 169.571L277.754 170.731L278.268 170.292ZM279.894 170.37L279.135 170.809C279.04 170.427 279.043 170.079 279.148 169.766C279.253 169.454 279.492 169.14 279.861 168.825C280.195 168.539 280.473 168.372 280.686 168.325C280.899 168.275 281.079 168.293 281.222 168.379C281.366 168.462 281.54 168.692 281.743 169.069L282.286 170.09C282.443 170.379 282.571 170.582 282.669 170.701C282.767 170.816 282.891 170.923 283.042 171.023L282.299 171.658C282.247 171.618 282.178 171.553 282.086 171.463C282.047 171.423 282.018 171.396 282.004 171.384C281.955 171.638 281.874 171.864 281.769 172.06C281.661 172.258 281.524 172.427 281.357 172.569C281.065 172.818 280.784 172.924 280.516 172.885C280.247 172.844 280.038 172.684 279.884 172.404C279.786 172.218 279.734 172.02 279.734 171.811C279.73 171.599 279.776 171.396 279.874 171.202C279.969 171.005 280.133 170.767 280.362 170.487C280.673 170.111 280.879 169.832 280.977 169.65L280.931 169.563C280.84 169.396 280.741 169.308 280.63 169.299C280.519 169.288 280.365 169.366 280.169 169.536C280.035 169.65 279.946 169.77 279.904 169.896C279.861 170.019 279.858 170.177 279.894 170.37ZM281.285 170.216C281.209 170.335 281.079 170.51 280.899 170.739C280.719 170.969 280.607 171.136 280.571 171.24C280.516 171.405 280.522 171.548 280.591 171.672C280.656 171.794 280.751 171.865 280.879 171.887C281.007 171.909 281.131 171.868 281.252 171.764C281.386 171.649 281.488 171.487 281.556 171.279C281.605 171.122 281.612 170.976 281.579 170.838C281.559 170.747 281.491 170.597 281.38 170.389L281.285 170.216ZM286.212 168.322L285.46 168.963L284.55 167.287C284.357 166.932 284.216 166.718 284.128 166.642C284.04 166.564 283.945 166.527 283.84 166.532C283.735 166.535 283.634 166.58 283.532 166.667C283.402 166.778 283.307 166.919 283.248 167.09C283.189 167.261 283.176 167.431 283.212 167.6C283.248 167.769 283.366 168.036 283.565 168.403L284.37 169.891L283.618 170.533L281.838 167.248L282.538 166.652L282.8 167.134C282.845 166.552 283.058 166.1 283.434 165.778C283.601 165.637 283.771 165.542 283.948 165.495C284.121 165.446 284.272 165.445 284.4 165.493C284.53 165.539 284.645 165.619 284.746 165.732C284.848 165.844 284.969 166.027 285.106 166.28L286.212 168.322ZM289.586 165.444L288.889 166.04L288.627 165.558C288.611 165.844 288.548 166.102 288.44 166.33C288.333 166.555 288.198 166.735 288.038 166.873C287.711 167.151 287.348 167.239 286.952 167.135C286.553 167.028 286.206 166.702 285.911 166.158C285.61 165.601 285.496 165.082 285.564 164.6C285.633 164.116 285.843 163.726 286.189 163.431C286.507 163.16 286.863 163.078 287.263 163.185L286.376 161.552L287.128 160.91L289.586 165.444ZM286.647 165.444C286.837 165.794 287.017 166.012 287.187 166.097C287.433 166.22 287.662 166.189 287.881 166.004C288.054 165.856 288.156 165.646 288.185 165.373C288.215 165.098 288.136 164.792 287.953 164.454C287.747 164.076 287.544 163.856 287.335 163.791C287.128 163.725 286.932 163.77 286.746 163.927C286.569 164.079 286.464 164.289 286.432 164.558C286.399 164.822 286.471 165.118 286.647 165.444ZM291.411 162.359L292.239 161.865C292.318 162.265 292.295 162.637 292.177 162.983C292.059 163.324 291.843 163.628 291.533 163.894C291.035 164.316 290.571 164.442 290.129 164.271C289.779 164.132 289.481 163.835 289.236 163.379C288.941 162.835 288.833 162.304 288.912 161.786C288.99 161.267 289.219 160.847 289.596 160.526C290.018 160.165 290.44 160.042 290.862 160.157C291.281 160.27 291.663 160.664 292.014 161.339L290.129 162.947C290.273 163.2 290.443 163.349 290.639 163.395C290.832 163.438 291.016 163.386 291.189 163.238C291.307 163.138 291.385 163.016 291.425 162.873C291.464 162.731 291.461 162.559 291.411 162.359ZM290.98 161.444C290.836 161.198 290.679 161.055 290.499 161.016C290.322 160.975 290.155 161.021 290.001 161.151C289.838 161.292 289.739 161.476 289.707 161.706C289.674 161.935 289.723 162.168 289.854 162.404L290.98 161.444ZM294.104 161.591L293.352 162.233L291.572 158.948L292.272 158.352L292.524 158.819C292.524 158.497 292.553 158.26 292.609 158.109C292.668 157.957 292.76 157.829 292.881 157.726C293.051 157.58 293.247 157.493 293.463 157.467L293.643 158.423C293.463 158.437 293.319 158.49 293.211 158.583C293.106 158.672 293.034 158.782 292.998 158.913C292.962 159.041 292.969 159.212 293.021 159.423C293.074 159.634 293.254 160.018 293.555 160.577L294.104 161.591Z" fill="white"/>
<path d="M274.184 186.639L275.104 186.265C275.254 186.861 275.257 187.396 275.113 187.872C274.969 188.344 274.688 188.76 274.266 189.119C273.746 189.563 273.206 189.724 272.646 189.6C272.087 189.474 271.616 189.054 271.23 188.341C270.821 187.586 270.67 186.856 270.781 186.152C270.893 185.446 271.223 184.858 271.773 184.389C272.254 183.98 272.731 183.811 273.209 183.883C273.494 183.925 273.779 184.088 274.066 184.375L273.399 185.261C273.222 185.065 273.026 184.963 272.803 184.953C272.584 184.942 272.368 185.026 272.159 185.206C271.868 185.454 271.694 185.776 271.645 186.173C271.593 186.568 271.717 187.036 272.008 187.576C272.319 188.149 272.63 188.481 272.941 188.572C273.252 188.663 273.549 188.587 273.834 188.343C274.047 188.163 274.184 187.932 274.253 187.648C274.322 187.364 274.299 187.027 274.184 186.639ZM275.444 185.533C275.287 185.244 275.199 184.912 275.176 184.537C275.153 184.162 275.215 183.807 275.362 183.473C275.513 183.137 275.725 182.851 276.003 182.613C276.435 182.246 276.874 182.107 277.325 182.197C277.774 182.284 278.134 182.574 278.402 183.067C278.67 183.564 278.755 184.095 278.654 184.66C278.552 185.222 278.291 185.682 277.872 186.042C277.61 186.264 277.325 186.408 277.011 186.475C276.704 186.54 276.416 186.494 276.151 186.337C275.886 186.178 275.65 185.91 275.444 185.533ZM276.242 184.921C276.419 185.247 276.619 185.439 276.848 185.499C277.077 185.558 277.286 185.503 277.486 185.336C277.682 185.168 277.797 184.942 277.836 184.656C277.875 184.368 277.806 184.06 277.626 183.73C277.453 183.408 277.253 183.218 277.024 183.159C276.799 183.098 276.586 183.152 276.39 183.319C276.193 183.487 276.075 183.714 276.036 184.002C275.997 184.289 276.066 184.595 276.242 184.921ZM282.498 181.989L281.798 182.585L281.536 182.103C281.523 182.389 281.461 182.647 281.353 182.875C281.245 183.1 281.108 183.281 280.947 183.418C280.62 183.696 280.26 183.784 279.861 183.68C279.462 183.573 279.118 183.247 278.821 182.703C278.52 182.146 278.405 181.627 278.474 181.145C278.543 180.661 278.752 180.271 279.099 179.976C279.416 179.704 279.773 179.623 280.172 179.73L279.285 178.097L280.038 177.455L282.498 181.989ZM279.56 181.989C279.75 182.339 279.93 182.557 280.097 182.642C280.342 182.765 280.571 182.734 280.79 182.548C280.964 182.4 281.065 182.19 281.095 181.918C281.124 181.643 281.046 181.337 280.862 180.999C280.66 180.621 280.453 180.401 280.244 180.336C280.038 180.27 279.842 180.315 279.658 180.471C279.478 180.624 279.374 180.834 279.341 181.102C279.308 181.367 279.383 181.663 279.56 181.989ZM284.321 178.904L285.152 178.41C285.227 178.81 285.204 179.182 285.087 179.527C284.969 179.869 284.753 180.173 284.442 180.439C283.948 180.861 283.48 180.987 283.038 180.816C282.691 180.677 282.39 180.38 282.145 179.924C281.851 179.38 281.743 178.849 281.821 178.331C281.9 177.812 282.129 177.392 282.505 177.071C282.93 176.71 283.349 176.587 283.771 176.702C284.19 176.815 284.573 177.209 284.926 177.884L283.038 179.492C283.186 179.745 283.352 179.894 283.549 179.94C283.742 179.983 283.925 179.931 284.098 179.783C284.216 179.683 284.295 179.561 284.334 179.418C284.373 179.276 284.37 179.104 284.321 178.904ZM283.889 177.989C283.748 177.742 283.588 177.6 283.411 177.561C283.231 177.52 283.064 177.566 282.911 177.697C282.747 177.837 282.649 178.021 282.616 178.251C282.583 178.48 282.633 178.713 282.763 178.949L283.889 177.989ZM287.017 178.136L286.264 178.778L284.481 175.494L285.181 174.898L285.433 175.364C285.433 175.042 285.463 174.805 285.518 174.654C285.577 174.502 285.669 174.374 285.79 174.27C285.96 174.124 286.156 174.038 286.376 174.012L286.552 174.968C286.372 174.981 286.228 175.035 286.12 175.127C286.016 175.217 285.944 175.327 285.908 175.458C285.872 175.586 285.878 175.757 285.931 175.968C285.983 176.179 286.163 176.563 286.467 177.122L287.017 178.136Z" fill="#040404"/>
<path fill-rule="evenodd" clip-rule="evenodd" d="M270.215 150.04C268.906 149.368 261.541 146.641 260.625 145.612C260.73 146.723 261.132 147.784 261.79 148.686C262.448 149.588 263.334 150.298 264.358 150.742L270.716 153.459C271.74 153.902 272.627 154.612 273.284 155.514C273.939 156.416 274.341 157.478 274.449 158.588C273.958 158.155 273.399 157.803 272.8 157.544C271.534 156.886 262.428 153.442 261.616 152.437C261.724 153.543 262.124 154.601 262.778 155.501C263.432 156.401 264.313 157.111 265.333 157.557L271.724 160.285C272.748 160.728 273.634 161.438 274.292 162.34C274.95 163.243 275.352 164.304 275.457 165.415C274.59 164.41 267.133 161.627 265.867 160.986C264.813 160.535 263.907 159.801 263.249 158.866C254.909 170.377 266.279 174.775 276.632 166.648C287.141 158.727 285.793 146.635 272.515 151.744C271.894 151.004 271.105 150.42 270.215 150.04Z" fill="#040404"/>
<defs>
<filter id="filter0_f_46_312" x="87.189" y="234.656" width="251.801" height="78.6467" filterUnits="userSpaceOnUse" color-interpolation-filters="sRGB">
<feFlood flood-opacity="0" result="BackgroundImageFix"/>
<feBlend mode="normal" in="SourceGraphic" in2="BackgroundImageFix" result="shape"/>
<feGaussianBlur stdDeviation="18" result="effect1_foregroundBlur_46_312"/>
</filter>
<filter id="filter1_f_46_312" x="-35" y="227.778" width="251.8" height="78.6455" filterUnits="userSpaceOnUse" color-interpolation-filters="sRGB">
<feFlood flood-opacity="0" result="BackgroundImageFix"/>
<feBlend mode="normal" in="SourceGraphic" in2="BackgroundImageFix" result="shape"/>
<feGaussianBlur stdDeviation="18" result="effect1_foregroundBlur_46_312"/>
</filter>
<filter id="filter2_f_46_312" x="93.0398" y="45.3059" width="212.347" height="206.727" filterUnits="userSpaceOnUse" color-interpolation-filters="sRGB">
<feFlood flood-opacity="0" result="BackgroundImageFix"/>
<feBlend mode="normal" in="SourceGraphic" in2="BackgroundImageFix" result="shape"/>
<feGaussianBlur stdDeviation="32.1909" result="effect1_foregroundBlur_46_312"/>
</filter>
<filter id="filter3_ii_46_312" x="27.6412" y="2.08016" width="173.161" height="199.574" filterUnits="userSpaceOnUse" color-interpolation-filters="sRGB">
<feFlood flood-opacity="0" result="BackgroundImageFix"/>
<feBlend mode="normal" in="SourceGraphic" in2="BackgroundImageFix" result="shape"/>
<feColorMatrix in="SourceAlpha" type="matrix" values="0 0 0 0 0 0 0 0 0 0 0 0 0 0 0 0 0 0 127 0" result="hardAlpha"/>
<feOffset dx="-0.515054" dy="-0.515054"/>
<feGaussianBlur stdDeviation="0.386291"/>
<feComposite in2="hardAlpha" operator="arithmetic" k2="-1" k3="1"/>
<feColorMatrix type="matrix" values="0 0 0 0 0 0 0 0 0 0 0 0 0 0 0 0 0 0 0.36 0"/>
<feBlend mode="normal" in2="shape" result="effect1_innerShadow_46_312"/>
<feColorMatrix in="SourceAlpha" type="matrix" values="0 0 0 0 0 0 0 0 0 0 0 0 0 0 0 0 0 0 127 0" result="hardAlpha"/>
<feOffset dx="1.28764" dy="1.03011"/>
<feGaussianBlur stdDeviation="0.515054"/>
<feComposite in2="hardAlpha" operator="arithmetic" k2="-1" k3="1"/>
<feColorMatrix type="matrix" values="0 0 0 0 1 0 0 0 0 1 0 0 0 0 1 0 0 0 0.25 0"/>
<feBlend mode="normal" in2="effect1_innerShadow_46_312" result="effect2_innerShadow_46_312"/>
</filter>
<filter id="filter4_d_46_312" x="59.2894" y="47.0389" width="23.1141" height="27.2057" filterUnits="userSpaceOnUse" color-interpolation-filters="sRGB">
<feFlood flood-opacity="0" result="BackgroundImageFix"/>
<feColorMatrix in="SourceAlpha" type="matrix" values="0 0 0 0 0 0 0 0 0 0 0 0 0 0 0 0 0 0 127 0" result="hardAlpha"/>
<feOffset dx="-0.772581" dy="-0.772581"/>
<feComposite in2="hardAlpha" operator="out"/>
<feColorMatrix type="matrix" values="0 0 0 0 0 0 0 0 0 0 0 0 0 0 0 0 0 0 0.25 0"/>
<feBlend mode="normal" in2="BackgroundImageFix" result="effect1_dropShadow_46_312"/>
<feBlend mode="normal" in="SourceGraphic" in2="effect1_dropShadow_46_312" result="shape"/>
</filter>
<filter id="filter5_ii_46_312" x="129.064" y="76.3775" width="181.681" height="205.048" filterUnits="userSpaceOnUse" color-interpolation-filters="sRGB">
<feFlood flood-opacity="0" result="BackgroundImageFix"/>
<feBlend mode="normal" in="SourceGraphic" in2="BackgroundImageFix" result="shape"/>
<feColorMatrix in="SourceAlpha" type="matrix" values="0 0 0 0 0 0 0 0 0 0 0 0 0 0 0 0 0 0 127 0" result="hardAlpha"/>
<feOffset dx="-0.515054" dy="-0.515054"/>
<feGaussianBlur stdDeviation="0.386291"/>
<feComposite in2="hardAlpha" operator="arithmetic" k2="-1" k3="1"/>
<feColorMatrix type="matrix" values="0 0 0 0 0 0 0 0 0 0 0 0 0 0 0 0 0 0 0.36 0"/>
<feBlend mode="normal" in2="shape" result="effect1_innerShadow_46_312"/>
<feColorMatrix in="SourceAlpha" type="matrix" values="0 0 0 0 0 0 0 0 0 0 0 0 0 0 0 0 0 0 127 0" result="hardAlpha"/>
<feOffset dx="1.28764" dy="1.03011"/>
<feGaussianBlur stdDeviation="0.515054"/>
<feComposite in2="hardAlpha" operator="arithmetic" k2="-1" k3="1"/>
<feColorMatrix type="matrix" values="0 0 0 0 1 0 0 0 0 1 0 0 0 0 1 0 0 0 0.25 0"/>
<feBlend mode="normal" in2="effect1_innerShadow_46_312" result="effect2_innerShadow_46_312"/>
</filter>
<filter id="filter6_d_46_312" x="160.514" y="191.648" width="24.1886" height="27.6757" filterUnits="userSpaceOnUse" color-interpolation-filters="sRGB">
<feFlood flood-opacity="0" result="BackgroundImageFix"/>
<feColorMatrix in="SourceAlpha" type="matrix" values="0 0 0 0 0 0 0 0 0 0 0 0 0 0 0 0 0 0 127 0" result="hardAlpha"/>
<feOffset dx="-0.772581" dy="-0.772581"/>
<feComposite in2="hardAlpha" operator="out"/>
<feColorMatrix type="matrix" values="0 0 0 0 0 0 0 0 0 0 0 0 0 0 0 0 0 0 0.25 0"/>
<feBlend mode="normal" in2="BackgroundImageFix" result="effect1_dropShadow_46_312"/>
<feBlend mode="normal" in="SourceGraphic" in2="effect1_dropShadow_46_312" result="shape"/>
</filter>
<radialGradient id="paint0_radial_46_312" cx="0" cy="0" r="1" gradientUnits="userSpaceOnUse" gradientTransform="translate(23.6701 106.767) rotate(0.758363) scale(163.33 133.305)">
<stop stop-color="white" stop-opacity="0.3"/>
<stop offset="1" stop-color="white" stop-opacity="0"/>
</radialGradient>
<linearGradient id="paint1_linear_46_312" x1="64.0754" y1="46.6003" x2="78.2719" y2="73.101" gradientUnits="userSpaceOnUse">
<stop stop-color="#ABABAB"/>
<stop offset="0.3125" stop-color="white"/>
<stop offset="0.630208" stop-color="#BDBDBD"/>
<stop offset="1" stop-color="#5E5E5E"/>
</linearGradient>
<linearGradient id="paint2_linear_46_312" x1="64.5062" y1="47.9635" x2="79.8108" y2="72.2829" gradientUnits="userSpaceOnUse">
<stop stop-color="#7D7D7D"/>
<stop offset="0.494792" stop-color="white"/>
<stop offset="1" stop-color="#1C1C1C"/>
</linearGradient>
<radialGradient id="paint3_radial_46_312" cx="0" cy="0" r="1" gradientUnits="userSpaceOnUse" gradientTransform="translate(179.376 287.723) rotate(-67.1968) scale(206.953 108.122)">
<stop stop-color="white" stop-opacity="0.3"/>
<stop offset="1" stop-color="white" stop-opacity="0"/>
</radialGradient>
<linearGradient id="paint4_linear_46_312" x1="160.286" y1="206.106" x2="183.772" y2="208.313" gradientUnits="userSpaceOnUse">
<stop stop-color="#ABABAB"/>
<stop offset="0.3125" stop-color="white"/>
<stop offset="0.630208" stop-color="#BDBDBD"/>
<stop offset="1" stop-color="#5E5E5E"/>
</linearGradient>
<linearGradient id="paint5_linear_46_312" x1="161.368" y1="206.373" x2="184.077" y2="207.543" gradientUnits="userSpaceOnUse">
<stop stop-color="#7D7D7D"/>
<stop offset="0.494792" stop-color="white"/>
<stop offset="1" stop-color="#1C1C1C"/>
</linearGradient>
</defs>
</svg>
