<svg width="24" height="24" viewBox="0 0 24 24" fill="none" xmlns="http://www.w3.org/2000/svg">
<path d="M12 7C11.5833 7 11.2292 6.85417 10.9375 6.5625C10.6458 6.27083 10.5 5.91667 10.5 5.5C10.5 5.08333 10.6458 4.72917 10.9375 4.4375C11.2292 4.14583 11.5833 4 12 4C12.4167 4 12.7708 4.14583 13.0625 4.4375C13.3542 4.72917 13.5 5.08333 13.5 5.5C13.5 5.91667 13.3542 6.27083 13.0625 6.5625C12.7708 6.85417 12.4167 7 12 7ZM12 23C10.6167 23 9.4375 22.5125 8.4625 21.5375C7.4875 20.5625 7 19.3833 7 18V6C7 4.61667 7.4875 3.4375 8.4625 2.4625C9.4375 1.4875 10.6167 1 12 1C13.3833 1 14.5625 1.4875 15.5375 2.4625C16.5125 3.4375 17 4.61667 17 6V18C17 19.3833 16.5125 20.5625 15.5375 21.5375C14.5625 22.5125 13.3833 23 12 23ZM12 8C12.7 8 13.2917 7.75833 13.775 7.275C14.2583 6.79167 14.5 6.2 14.5 5.5C14.5 4.8 14.2583 4.20833 13.775 3.725C13.2917 3.24167 12.7 3 12 3C11.3 3 10.7083 3.24167 10.225 3.725C9.74167 4.20833 9.5 4.8 9.5 5.5C9.5 6.2 9.74167 6.79167 10.225 7.275C10.7083 7.75833 11.3 8 12 8ZM12 21C12.8333 21 13.5417 20.7083 14.125 20.125C14.7083 19.5417 15 18.8333 15 18V8.825C14.5833 9.20833 14.1167 9.5 13.6 9.7C13.0833 9.9 12.55 10 12 10C11.45 10 10.9167 9.9 10.4 9.7C9.88333 9.5 9.41667 9.20833 9 8.825V18C9 18.8333 9.29167 19.5417 9.875 20.125C10.4583 20.7083 11.1667 21 12 21ZM10.5 16C10.7833 16 11.0208 15.9042 11.2125 15.7125C11.4042 15.5208 11.5 15.2833 11.5 15C11.5 14.7167 11.4042 14.4792 11.2125 14.2875C11.0208 14.0958 10.7833 14 10.5 14C10.2167 14 9.97917 14.0958 9.7875 14.2875C9.59583 14.4792 9.5 14.7167 9.5 15C9.5 15.2833 9.59583 15.5208 9.7875 15.7125C9.97917 15.9042 10.2167 16 10.5 16ZM10.5 13C10.7833 13 11.0208 12.9042 11.2125 12.7125C11.4042 12.5208 11.5 12.2833 11.5 12C11.5 11.7167 11.4042 11.4792 11.2125 11.2875C11.0208 11.0958 10.7833 11 10.5 11C10.2167 11 9.97917 11.0958 9.7875 11.2875C9.59583 11.4792 9.5 11.7167 9.5 12C9.5 12.2833 9.59583 12.5208 9.7875 12.7125C9.97917 12.9042 10.2167 13 10.5 13ZM13.5 13C13.7833 13 14.0208 12.9042 14.2125 12.7125C14.4042 12.5208 14.5 12.2833 14.5 12C14.5 11.7167 14.4042 11.4792 14.2125 11.2875C14.0208 11.0958 13.7833 11 13.5 11C13.2167 11 12.9792 11.0958 12.7875 11.2875C12.5958 11.4792 12.5 11.7167 12.5 12C12.5 12.2833 12.5958 12.5208 12.7875 12.7125C12.9792 12.9042 13.2167 13 13.5 13ZM13.5 16C13.7833 16 14.0208 15.9042 14.2125 15.7125C14.4042 15.5208 14.5 15.2833 14.5 15C14.5 14.7167 14.4042 14.4792 14.2125 14.2875C14.0208 14.0958 13.7833 14 13.5 14C13.2167 14 12.9792 14.0958 12.7875 14.2875C12.5958 14.4792 12.5 14.7167 12.5 15C12.5 15.2833 12.5958 15.5208 12.7875 15.7125C12.9792 15.9042 13.2167 16 13.5 16ZM10.5 19C10.7833 19 11.0208 18.9042 11.2125 18.7125C11.4042 18.5208 11.5 18.2833 11.5 18C11.5 17.7167 11.4042 17.4792 11.2125 17.2875C11.0208 17.0958 10.7833 17 10.5 17C10.2167 17 9.97917 17.0958 9.7875 17.2875C9.59583 17.4792 9.5 17.7167 9.5 18C9.5 18.2833 9.59583 18.5208 9.7875 18.7125C9.97917 18.9042 10.2167 19 10.5 19ZM13.5 19C13.7833 19 14.0208 18.9042 14.2125 18.7125C14.4042 18.5208 14.5 18.2833 14.5 18C14.5 17.7167 14.4042 17.4792 14.2125 17.2875C14.0208 17.0958 13.7833 17 13.5 17C13.2167 17 12.9792 17.0958 12.7875 17.2875C12.5958 17.4792 12.5 17.7167 12.5 18C12.5 18.2833 12.5958 18.5208 12.7875 18.7125C12.9792 18.9042 13.2167 19 13.5 19Z" fill="#F66C6A"/>
</svg>
