<svg id="logosandtypes_com" data-name="logosandtypes com" xmlns="http://www.w3.org/2000/svg" viewBox="0 0 150 150"><defs><style>.cls-1{fill:none;}.cls-2{fill:#ec0000;fill-rule:evenodd;}</style></defs><path class="cls-1" d="M0,0H150V150H0Z" transform="translate(0 0)"/><path class="cls-2" d="M100.31,52.36c-3.08-6.54-23.52-39.19-24-45.94a30.64,30.64,0,0,0-.87,31.14L92,67.16a30.64,30.64,0,0,1-.87,31.14,30.36,30.36,0,0,0-3.28-9c-2.94-6.34-28-47-28.14-53.34a30.67,30.67,0,0,0-.91,31.05L75.45,96.75a30.64,30.64,0,0,1-.86,31.15c-.36-6.51-21-39.66-24-45.95a30.3,30.3,0,0,1-3.81-16.08c-66.92,19.85-35.92,71,28.67,70.34,64.59.62,95.6-50.49,28.68-70.34A30.25,30.25,0,0,0,100.31,52.36Z" transform="translate(0 0)"/></svg>