<svg width="33" height="33" viewBox="0 0 33 33" fill="none" xmlns="http://www.w3.org/2000/svg">
<g clip-path="url(#clip0_43_176)">
<path fill-rule="evenodd" clip-rule="evenodd" d="M22.0682 11.5192C21.3906 10.0804 16.8938 2.8974 16.7882 1.4124C16.1466 2.4329 15.7905 3.60674 15.7568 4.81166C15.7232 6.01658 16.0132 7.20848 16.5968 8.2632L20.24 14.7752C20.8235 15.8299 21.1136 17.0218 21.0799 18.2267C21.0462 19.4317 20.6901 20.6055 20.0486 21.626C19.9143 20.932 19.6708 20.2637 19.327 19.646C18.6802 18.2512 13.167 9.306 13.1362 7.9112C12.4977 8.92889 12.1425 10.0986 12.1073 11.2995C12.0721 12.5004 12.3582 13.6889 12.936 14.7422L16.599 21.285C17.1833 22.3398 17.4739 23.532 17.4406 24.7373C17.4074 25.9427 17.0514 27.1171 16.4098 28.138C16.3306 26.7058 11.7898 19.4128 11.1298 18.029C10.528 16.9502 10.2378 15.7255 10.2916 14.4914C-4.43083 18.8584 2.38917 30.1114 16.599 29.9662C30.8088 30.1026 37.631 18.8584 22.9086 14.4914C22.8654 13.4485 22.5775 12.4303 22.0682 11.5192Z" fill="#EC0000"/>
</g>
<defs>
<clipPath id="clip0_43_176">
<rect width="33" height="33" fill="white"/>
</clipPath>
</defs>
</svg>
