<svg width="21" height="20" viewBox="0 0 21 20" fill="none" xmlns="http://www.w3.org/2000/svg">
<path d="M18.5848 5.39359V14.73C18.5848 15.1579 18.4251 15.5242 18.1058 15.8289C17.7864 16.1337 17.4025 16.286 16.954 16.286H3.90787C3.45941 16.286 3.0755 16.1337 2.75614 15.8289C2.43678 15.5242 2.2771 15.1579 2.2771 14.73V5.39359C2.2771 4.96567 2.43678 4.59935 2.75614 4.29462C3.0755 3.98989 3.45941 3.83752 3.90787 3.83752H16.954C17.4025 3.83752 17.7864 3.98989 18.1058 4.29462C18.4251 4.59935 18.5848 4.96567 18.5848 5.39359ZM3.90787 6.94965H16.954V5.39359H3.90787V6.94965ZM3.90787 10.0618V14.73H16.954V10.0618H3.90787Z" fill="#F66C6A"/>
</svg>
