<svg width="21" height="20" viewBox="0 0 21 20" fill="none" xmlns="http://www.w3.org/2000/svg">
<path d="M9.63582 17.1945V15.5218C8.91556 15.3661 8.29383 15.0679 7.77063 14.627C7.24742 14.1861 6.86351 13.5637 6.6189 12.7597L8.12736 12.1762C8.3312 12.7986 8.63358 13.2719 9.03447 13.5961C9.43537 13.9203 9.96197 14.0824 10.6143 14.0824C11.1715 14.0824 11.6437 13.9624 12.031 13.7226C12.4183 13.4827 12.612 13.1099 12.612 12.6041C12.612 12.1503 12.4625 11.7904 12.1635 11.5246C11.8645 11.2588 11.1715 10.9573 10.0843 10.6201C8.91556 10.27 8.11377 9.85184 7.6789 9.36557C7.24402 8.8793 7.02659 8.28605 7.02659 7.58582C7.02659 6.74295 7.31197 6.08811 7.88274 5.62129C8.45351 5.15447 9.03787 4.88864 9.63582 4.82381V3.18994H11.2666V4.82381C11.9461 4.92755 12.5067 5.1642 12.9483 5.53376C13.39 5.90333 13.7127 6.35394 13.9166 6.88559L12.4081 7.50802C12.2451 7.09307 12.014 6.78186 11.7151 6.57438C11.4161 6.36691 11.0084 6.26317 10.492 6.26317C9.89402 6.26317 9.43877 6.3896 9.1262 6.64246C8.81364 6.89532 8.65736 7.20977 8.65736 7.58582C8.65736 8.01374 8.8612 8.35089 9.2689 8.59726C9.67659 8.84364 10.3833 9.10299 11.3889 9.3753C12.3266 9.63464 13.0367 10.0463 13.5191 10.6104C14.0015 11.1745 14.2427 11.8261 14.2427 12.5652C14.2427 13.4859 13.9574 14.1861 13.3866 14.6659C12.8158 15.1457 12.1092 15.4439 11.2666 15.5607V17.1945H9.63582Z" fill="#F66C6A"/>
</svg>
