<svg width="21" height="20" viewBox="0 0 21 20" fill="none" xmlns="http://www.w3.org/2000/svg">
<path d="M4.20889 3.68884L5.83966 6.80097H8.28582L6.65505 3.68884H8.28582L9.91659 6.80097H12.3627L10.732 3.68884H12.3627L13.9935 6.80097H16.4397L14.8089 3.68884H17.255C17.7035 3.68884 18.0874 3.84121 18.4068 4.14594C18.7261 4.45067 18.8858 4.81699 18.8858 5.24491V14.5813C18.8858 15.0092 18.7261 15.3755 18.4068 15.6803C18.0874 15.985 17.7035 16.1374 17.255 16.1374H4.20889C3.76043 16.1374 3.37652 15.985 3.05716 15.6803C2.7378 15.3755 2.57812 15.0092 2.57812 14.5813V5.24491C2.57812 4.81699 2.7378 4.45067 3.05716 4.14594C3.37652 3.84121 3.76043 3.68884 4.20889 3.68884ZM4.20889 8.35703V14.5813H17.255V8.35703H4.20889Z" fill="#F66C6A"/>
</svg>
