<svg width="21" height="20" viewBox="0 0 21 20" fill="none" xmlns="http://www.w3.org/2000/svg">
<path d="M12.0617 10.8215C11.3822 10.8215 10.8046 10.5946 10.329 10.1407C9.85334 9.68687 9.61552 9.13577 9.61552 8.48741C9.61552 7.83905 9.85334 7.28794 10.329 6.83409C10.8046 6.38024 11.3822 6.15331 12.0617 6.15331C12.7412 6.15331 13.3187 6.38024 13.7944 6.83409C14.27 7.28794 14.5078 7.83905 14.5078 8.48741C14.5078 9.13577 14.27 9.68687 13.7944 10.1407C13.3187 10.5946 12.7412 10.8215 12.0617 10.8215ZM6.35398 13.1556C5.90552 13.1556 5.52161 13.0032 5.20225 12.6985C4.88289 12.3938 4.72321 12.0275 4.72321 11.5995V5.37528C4.72321 4.94736 4.88289 4.58104 5.20225 4.27631C5.52161 3.97158 5.90552 3.81921 6.35398 3.81921H17.7694C18.2178 3.81921 18.6017 3.97158 18.9211 4.27631C19.2405 4.58104 19.4001 4.94736 19.4001 5.37528V11.5995C19.4001 12.0275 19.2405 12.3938 18.9211 12.6985C18.6017 13.0032 18.2178 13.1556 17.7694 13.1556H6.35398ZM7.98475 11.5995H16.1386C16.1386 11.1716 16.2983 10.8053 16.6176 10.5006C16.937 10.1958 17.3209 10.0435 17.7694 10.0435V6.93134C17.3209 6.93134 16.937 6.77898 16.6176 6.47425C16.2983 6.16952 16.1386 5.8032 16.1386 5.37528H7.98475C7.98475 5.8032 7.82507 6.16952 7.50571 6.47425C7.18635 6.77898 6.80244 6.93134 6.35398 6.93134V10.0435C6.80244 10.0435 7.18635 10.1958 7.50571 10.5006C7.82507 10.8053 7.98475 11.1716 7.98475 11.5995ZM16.954 16.2677H3.09244C2.64398 16.2677 2.26007 16.1154 1.94071 15.8106C1.62135 15.5059 1.46167 15.1396 1.46167 14.7117V6.15331H3.09244V14.7117H16.954V16.2677Z" fill="#F66C6A"/>
</svg>
