<svg width="21" height="20" viewBox="0 0 21 20" fill="none" xmlns="http://www.w3.org/2000/svg">
<path d="M6.35391 18.5836C5.90545 18.5836 5.52154 18.4313 5.20218 18.1265C4.88282 17.8218 4.72314 17.4555 4.72314 17.0276V3.02298C4.72314 2.59507 4.88282 2.22874 5.20218 1.92401C5.52154 1.61928 5.90545 1.46692 6.35391 1.46692H14.5078C14.9562 1.46692 15.3401 1.61928 15.6595 1.92401C15.9788 2.22874 16.1385 2.59507 16.1385 3.02298V17.0276C16.1385 17.4555 15.9788 17.8218 15.6595 18.1265C15.3401 18.4313 14.9562 18.5836 14.5078 18.5836H6.35391ZM6.35391 14.6935V17.0276H14.5078V14.6935H6.35391ZM10.4308 16.6385C10.6619 16.6385 10.8555 16.564 11.0118 16.4149C11.1681 16.2657 11.2462 16.081 11.2462 15.8605C11.2462 15.6401 11.1681 15.4553 11.0118 15.3062C10.8555 15.157 10.6619 15.0825 10.4308 15.0825C10.1998 15.0825 10.0062 15.157 9.84988 15.3062C9.69359 15.4553 9.61545 15.6401 9.61545 15.8605C9.61545 16.081 9.69359 16.2657 9.84988 16.4149C10.0062 16.564 10.1998 16.6385 10.4308 16.6385ZM6.35391 13.1374H14.5078V5.35708H6.35391V13.1374ZM6.35391 3.80101H14.5078V3.02298H6.35391V3.80101Z" fill="#F66C6A"/>
</svg>
